<svg width="56" height="56" viewBox="0 0 56 56" fill="none" xmlns="http://www.w3.org/2000/svg">
<path d="M36.985 0H7.963C7.155 0 6.5 0.655 6.5 1.926V55C6.5 55.345 7.155 56 7.963 56H48.037C48.845 56 49.5 55.345 49.5 55V12.978C49.5 12.282 49.407 12.058 49.243 11.893L37.607 0.257C37.442 0.093 37.218 0 36.985 0Z" fill="#E9E9E0"/>
<path d="M48.037 56H7.963C7.155 56 6.5 55.345 6.5 54.537V39H49.5V54.537C49.5 55.345 48.845 56 48.037 56Z" fill="#42A66C"/>
<path d="M28.5 35C20.229 35 13.5 28.271 13.5 20C13.5 11.729 20.229 5 28.5 5C36.771 5 43.5 11.729 43.5 20C43.5 28.271 36.771 35 28.5 35ZM28.5 7C21.332 7 15.5 12.832 15.5 20C15.5 27.168 21.332 33 28.5 33C35.668 33 41.5 27.168 41.5 20C41.5 12.832 35.668 7 28.5 7Z" fill="#C8BDB8"/>
<path d="M37.5 0.151001V12H49.349L37.5 0.151001Z" fill="#D9D7CA"/>
<path d="M16.868 49.14H13.22L12.548 51H11.396L14.42 42.684H15.68L18.692 51H17.54L16.868 49.14ZM16.556 48.252L15.044 44.028L13.532 48.252H16.556ZM25.8419 44.424V51H24.7499V50.028C24.5419 50.364 24.2499 50.628 23.8739 50.82C23.5059 51.004 23.0979 51.096 22.6499 51.096C22.1379 51.096 21.6779 50.992 21.2699 50.784C20.8619 50.568 20.5379 50.248 20.2979 49.824C20.0659 49.4 19.9499 48.884 19.9499 48.276V44.424H21.0299V48.132C21.0299 48.78 21.1939 49.28 21.5219 49.632C21.8499 49.976 22.2979 50.148 22.8659 50.148C23.4499 50.148 23.9099 49.968 24.2459 49.608C24.5819 49.248 24.7499 48.724 24.7499 48.036V44.424H25.8419ZM27.2777 47.688C27.2777 47.016 27.4137 46.428 27.6857 45.924C27.9577 45.412 28.3297 45.016 28.8017 44.736C29.2817 44.456 29.8177 44.316 30.4097 44.316C30.9217 44.316 31.3977 44.436 31.8377 44.676C32.2777 44.908 32.6137 45.216 32.8457 45.6V42.12H33.9497V51H32.8457V49.764C32.6297 50.156 32.3097 50.48 31.8857 50.736C31.4617 50.984 30.9657 51.108 30.3977 51.108C29.8137 51.108 29.2817 50.964 28.8017 50.676C28.3297 50.388 27.9577 49.984 27.6857 49.464C27.4137 48.944 27.2777 48.352 27.2777 47.688ZM32.8457 47.7C32.8457 47.204 32.7457 46.772 32.5457 46.404C32.3457 46.036 32.0737 45.756 31.7297 45.564C31.3937 45.364 31.0217 45.264 30.6137 45.264C30.2057 45.264 29.8337 45.36 29.4977 45.552C29.1617 45.744 28.8937 46.024 28.6937 46.392C28.4937 46.76 28.3937 47.192 28.3937 47.688C28.3937 48.192 28.4937 48.632 28.6937 49.008C28.8937 49.376 29.1617 49.66 29.4977 49.86C29.8337 50.052 30.2057 50.148 30.6137 50.148C31.0217 50.148 31.3937 50.052 31.7297 49.86C32.0737 49.66 32.3457 49.376 32.5457 49.008C32.7457 48.632 32.8457 48.196 32.8457 47.7ZM36.3591 43.356C36.1511 43.356 35.9751 43.284 35.8311 43.14C35.6871 42.996 35.6151 42.82 35.6151 42.612C35.6151 42.404 35.6871 42.228 35.8311 42.084C35.9751 41.94 36.1511 41.868 36.3591 41.868C36.5591 41.868 36.7271 41.94 36.8631 42.084C37.0071 42.228 37.0791 42.404 37.0791 42.612C37.0791 42.82 37.0071 42.996 36.8631 43.14C36.7271 43.284 36.5591 43.356 36.3591 43.356ZM36.8871 44.424V51H35.7951V44.424H36.8871ZM41.6162 51.108C41.0002 51.108 40.4402 50.968 39.9362 50.688C39.4402 50.408 39.0482 50.012 38.7602 49.5C38.4802 48.98 38.3402 48.38 38.3402 47.7C38.3402 47.028 38.4842 46.436 38.7722 45.924C39.0682 45.404 39.4682 45.008 39.9722 44.736C40.4762 44.456 41.0402 44.316 41.6642 44.316C42.2882 44.316 42.8522 44.456 43.3562 44.736C43.8602 45.008 44.2562 45.4 44.5442 45.912C44.8402 46.424 44.9882 47.02 44.9882 47.7C44.9882 48.38 44.8362 48.98 44.5322 49.5C44.2362 50.012 43.8322 50.408 43.3202 50.688C42.8082 50.968 42.2402 51.108 41.6162 51.108ZM41.6162 50.148C42.0082 50.148 42.3762 50.056 42.7202 49.872C43.0642 49.688 43.3402 49.412 43.5482 49.044C43.7642 48.676 43.8722 48.228 43.8722 47.7C43.8722 47.172 43.7682 46.724 43.5602 46.356C43.3522 45.988 43.0802 45.716 42.7442 45.54C42.4082 45.356 42.0442 45.264 41.6522 45.264C41.2522 45.264 40.8842 45.356 40.5482 45.54C40.2202 45.716 39.9562 45.988 39.7562 46.356C39.5562 46.724 39.4562 47.172 39.4562 47.7C39.4562 48.236 39.5522 48.688 39.7442 49.056C39.9442 49.424 40.2082 49.7 40.5362 49.884C40.8642 50.06 41.2242 50.148 41.6162 50.148Z" fill="white"/>
<path d="M31.1429 13H29V20.4429C28.5571 20.2429 28.0857 20.1429 27.5714 20.1429C25.6 20.1429 24 21.7429 24 23.7143C24 25.6857 25.6 27.2857 27.5714 27.2857C29.5429 27.2857 31.1429 25.6857 31.1429 23.7143V15.8571H34V13H31.1429Z" fill="#C8BDB8"/>
</svg>
