<svg width="18" height="18" viewBox="0 0 18 18" fill="none" xmlns="http://www.w3.org/2000/svg">
<g clip-path="url(#clip0)">
<path d="M17.1848 1.98852C17.3486 1.87267 17.3874 1.64587 17.2715 1.48205C17.1556 1.31823 16.9289 1.27935 16.7651 1.39533L15.8576 2.03739C15.6938 2.15325 15.655 2.38005 15.7709 2.54387C15.8417 2.64391 15.9539 2.69739 16.0678 2.69739C16.1403 2.69739 16.2136 2.67571 16.2774 2.63053L17.1848 1.98852Z" fill="#4A4A4A"/>
<path d="M14.7806 1.7797C14.8226 1.79557 14.8659 1.80308 14.9083 1.80308C15.0554 1.80308 15.1938 1.71321 15.2485 1.56744L15.6397 0.526879C15.7103 0.339079 15.6153 0.129538 15.4275 0.0589239C15.2397 -0.0117507 15.0301 0.0833906 14.9594 0.27119L14.5682 1.31175C14.4977 1.49955 14.5927 1.70909 14.7806 1.7797Z" fill="#4A4A4A"/>
<path d="M17.637 3.36785C17.6345 3.36785 17.632 3.36785 17.6295 3.36785L16.5181 3.37718C16.3175 3.38124 16.1581 3.53494 16.1622 3.73558C16.1662 3.93373 16.3281 4.09458 16.5254 4.09458C16.5279 4.09458 16.5303 4.09458 16.5329 4.09458L17.6442 4.07569C17.8448 4.07163 18.0042 3.91024 18.0001 3.7096C17.9962 3.51144 17.8343 3.36785 17.637 3.36785Z" fill="#4A4A4A"/>
<path d="M15.3946 8.91179C15.2085 8.76444 14.9882 8.66415 14.7553 8.61704C14.7707 8.58918 14.785 8.56084 14.7986 8.53207L14.9444 8.38624C15.5061 7.82454 15.5651 6.94041 15.0815 6.32953C14.8533 6.0412 14.5364 5.84958 14.1845 5.77806C14.2096 5.73179 14.2319 5.68449 14.2522 5.63647C14.6347 5.08239 14.6284 4.33774 14.2048 3.8025C13.9765 3.51399 13.6595 3.32177 13.3074 3.25036C13.5981 2.71585 13.561 2.04968 13.1727 1.5592C12.8791 1.18826 12.4393 0.97545 11.9661 0.97545C11.5872 0.97545 11.2297 1.11086 10.9492 1.3588C10.9067 1.11783 10.8061 0.885093 10.6456 0.682396C10.352 0.311459 9.91223 0.0987086 9.43901 0.0986481C9.0278 0.0986481 8.64178 0.258226 8.35212 0.54789L4.66759 4.23242L4.65354 3.74067C4.64706 2.90311 3.96363 2.22367 3.12455 2.22367C2.30068 2.22367 1.62694 2.87864 1.59666 3.69518L0.861087 9.04308L0.256506 9.74583C-0.10583 10.1672 -0.0815451 10.8045 0.31192 11.197L1.21046 12.094C0.933457 12.5107 0.981967 13.0791 1.34406 13.4403L5.56316 17.6527C5.76477 17.8539 6.03239 17.9645 6.31691 17.9645C6.55049 17.9645 6.78129 17.8861 6.96667 17.7438L7.84746 17.0674C8.69477 16.8673 9.62893 16.4126 10.6256 15.7151C11.496 15.106 12.4402 14.2943 13.4319 13.3026L15.5291 11.2053C15.8384 10.896 16.0012 10.4672 15.9758 10.0288C15.9503 9.5911 15.7386 9.18401 15.3946 8.91179ZM7.47205 16.4393L6.52396 17.1673C6.46256 17.2145 6.38958 17.2377 6.31691 17.2377C6.22952 17.2377 6.14249 17.2042 6.0766 17.1383L1.85725 12.9257C1.73111 12.7999 1.72341 12.5981 1.83963 12.463L2.58332 11.5985C2.58374 11.598 2.58399 11.5974 2.58411 11.5969L3.35438 5.99602C3.35438 5.55477 3.71545 5.19371 4.1567 5.19371C4.59794 5.19371 4.95895 5.55477 4.95895 5.99602L4.99686 7.3177C5.00316 7.5373 5.18381 7.68028 5.37179 7.68028C5.46348 7.68028 5.55699 7.64624 5.63275 7.57048L9.89812 3.30511C10.0558 3.14747 10.2634 3.06874 10.4711 3.06874C10.7082 3.06874 10.9454 3.17139 11.1079 3.37675C11.3657 3.70239 11.3205 4.17495 11.0268 4.46855L8.0885 7.40685C7.93594 7.55946 7.93594 7.80673 8.0885 7.95922C8.16571 8.03644 8.26691 8.07508 8.36811 8.07508C8.4693 8.07508 8.57056 8.03644 8.64772 7.95922L12.4251 4.18185C12.5827 4.02421 12.7904 3.94548 12.9982 3.94548C13.2353 3.94554 13.4724 4.04819 13.635 4.25356C13.8927 4.57913 13.8475 5.05169 13.5538 5.34529L9.79414 9.10498C9.63953 9.25965 9.63953 9.51025 9.79414 9.66492C9.87032 9.74111 9.97013 9.7792 10.0701 9.7792C10.1699 9.7792 10.2697 9.74111 10.3459 9.66492L13.302 6.70894C13.4596 6.5513 13.6673 6.47257 13.875 6.47257C14.1121 6.47257 14.3492 6.57522 14.5118 6.78065C14.7695 7.10622 14.7243 7.57878 14.4306 7.87238L11.5026 10.8005C11.3444 10.9586 11.3444 11.2152 11.5026 11.3733L11.5073 11.3781C11.5804 11.4512 11.6762 11.4877 11.7719 11.4877C11.8677 11.4877 11.9636 11.4512 12.0366 11.3781L13.8518 9.56282C14.0154 9.39924 14.2344 9.31276 14.4527 9.31276C14.6263 9.31276 14.7994 9.36751 14.9436 9.48167C15.3289 9.78659 15.3528 10.354 15.0153 10.6915L12.9181 12.7888C11.1268 14.58 9.25448 16.0178 7.6097 16.3762C7.55968 16.3871 7.51268 16.4082 7.47205 16.4393ZM0.80749 10.2197L1.55124 9.35509C1.5516 9.35467 1.55191 9.35406 1.55197 9.35352L2.3223 3.75266C2.3223 3.31141 2.68331 2.9504 3.12455 2.9504C3.5658 2.9504 3.92687 3.31141 3.92687 3.75266L3.94776 4.48151C3.22175 4.58119 2.65648 5.19207 2.62874 5.93842L1.89323 11.2864L1.67927 11.5352L0.825174 10.6825C0.699026 10.5566 0.691334 10.3548 0.80749 10.2197ZM9.43901 0.82532C9.67616 0.82538 9.91326 0.928031 10.0758 1.13339C10.3336 1.45903 10.2884 1.93153 9.99472 2.22513L5.69979 6.47566L5.68568 5.98397C5.68198 5.51008 5.4616 5.08694 5.11907 4.80878L8.86604 1.06175C9.02356 0.90417 9.23128 0.82532 9.43901 0.82532ZM11.966 1.70212C12.2031 1.70212 12.4403 1.80477 12.6028 2.01014C12.8606 2.33577 12.8154 2.80833 12.5217 3.10193L12.1477 3.47595C12.09 3.51441 12.0339 3.55553 11.9813 3.6021C11.9388 3.36107 11.8381 3.12833 11.6777 2.9257C11.4805 2.67655 11.2172 2.49916 10.9222 2.40929L11.3929 1.93849C11.5506 1.78091 11.7584 1.70212 11.966 1.70212Z" fill="#4A4A4A"/>
</g>
<defs>
<clipPath id="clip0">
<rect width="18" height="18" fill="white"/>
</clipPath>
</defs>
</svg>
