<svg width="56" height="56" viewBox="0 0 56 56" fill="none" xmlns="http://www.w3.org/2000/svg">
<g clip-path="url(#clip0)">
<path d="M36.985 0H7.963C7.155 0 6.5 0.655 6.5 1.926V55C6.5 55.345 7.155 56 7.963 56H48.037C48.845 56 49.5 55.345 49.5 55V12.978C49.5 12.282 49.407 12.058 49.243 11.893L37.607 0.257C37.442 0.093 37.218 0 36.985 0Z" fill="#E9E9E0"/>
<path d="M48.037 56H7.963C7.155 56 6.5 55.345 6.5 54.537V39H49.5V54.537C49.5 55.345 48.845 56 48.037 56Z" fill="#42A66C"/>
<path d="M37.5 0.151001V12H49.349L37.5 0.151001Z" fill="#D9D7CA"/>
<path d="M27.4214 22.0047C27.1349 21.2547 27.1406 19.8062 27.3068 19.8062C27.788 19.8062 27.7422 21.5359 27.4214 22.0047ZM27.324 24.2172C26.8828 25.1641 26.3328 26.2469 25.6969 27.1562C26.7453 26.8281 27.9313 26.35 29.3005 26.1297C28.5729 25.6797 27.874 25.0328 27.324 24.2172ZM21.9328 30.0672C21.9328 30.1047 22.6891 29.8141 23.9323 28.1828C23.5484 28.4781 22.2651 29.3313 21.9328 30.0672ZM31.2083 17.5H39V32.875C39 33.4984 38.387 34 37.625 34H18.375C17.613 34 17 33.4984 17 32.875V11.125C17 10.5016 17.613 10 18.375 10H29.8333V16.375C29.8333 16.9937 30.4521 17.5 31.2083 17.5ZM30.75 25.5531C29.6042 24.9812 28.8422 24.1937 28.3036 23.0312C28.5615 22.1641 28.9682 20.8469 28.6589 20.0219C28.3896 18.6438 26.2297 18.7797 25.9203 19.7031C25.6339 20.5609 25.8974 21.7703 26.3844 23.3125C25.7198 24.6063 24.7401 26.3406 24.0469 27.3344C24.0411 27.3344 24.0411 27.3391 24.0354 27.3391C22.4828 27.9906 19.8188 29.425 20.913 30.5266C21.2339 30.85 21.8297 30.9953 22.1448 30.9953C23.1703 30.9953 24.1901 30.1516 25.6453 28.0984C27.1234 27.7 28.7448 27.2031 30.1714 27.0109C31.4146 27.5641 32.8698 27.925 33.838 27.925C35.5109 27.925 35.6255 26.425 34.9667 25.8906C34.1703 25.2531 31.8557 25.4359 30.75 25.5531ZM38.599 14.9219L32.9844 10.3281C32.7266 10.1172 32.3771 10 32.0104 10H31.6667V16H39V15.7141C39 15.4188 38.8568 15.1328 38.599 14.9219ZM34.3536 26.8891C34.5885 26.7625 34.2104 26.3312 31.9016 26.4672C34.0271 27.2078 34.3536 26.8891 34.3536 26.8891Z" fill="#C8BDB8"/>
<path d="M12.016 44.524V47.32H15.064V48.22H12.016V51.1H15.424V52H10.924V43.624H15.424V44.524H12.016ZM18.1683 46.648C18.3923 46.256 18.7203 45.936 19.1523 45.688C19.5843 45.44 20.0763 45.316 20.6283 45.316C21.2203 45.316 21.7523 45.456 22.2243 45.736C22.6963 46.016 23.0683 46.412 23.3403 46.924C23.6123 47.428 23.7483 48.016 23.7483 48.688C23.7483 49.352 23.6123 49.944 23.3403 50.464C23.0683 50.984 22.6923 51.388 22.2123 51.676C21.7403 51.964 21.2123 52.108 20.6283 52.108C20.0603 52.108 19.5603 51.984 19.1283 51.736C18.7043 51.488 18.3843 51.172 18.1683 50.788V52H17.0763V43.12H18.1683V46.648ZM22.6323 48.688C22.6323 48.192 22.5323 47.76 22.3323 47.392C22.1323 47.024 21.8603 46.744 21.5163 46.552C21.1803 46.36 20.8083 46.264 20.4003 46.264C20.0003 46.264 19.6283 46.364 19.2843 46.564C18.9483 46.756 18.6763 47.04 18.4683 47.416C18.2683 47.784 18.1683 48.212 18.1683 48.7C18.1683 49.196 18.2683 49.632 18.4683 50.008C18.6763 50.376 18.9483 50.66 19.2843 50.86C19.6283 51.052 20.0003 51.148 20.4003 51.148C20.8083 51.148 21.1803 51.052 21.5163 50.86C21.8603 50.66 22.1323 50.376 22.3323 50.008C22.5323 49.632 22.6323 49.192 22.6323 48.688ZM28.0537 52.108C27.4377 52.108 26.8777 51.968 26.3737 51.688C25.8777 51.408 25.4857 51.012 25.1977 50.5C24.9177 49.98 24.7777 49.38 24.7777 48.7C24.7777 48.028 24.9217 47.436 25.2097 46.924C25.5057 46.404 25.9057 46.008 26.4097 45.736C26.9137 45.456 27.4777 45.316 28.1017 45.316C28.7257 45.316 29.2897 45.456 29.7937 45.736C30.2977 46.008 30.6937 46.4 30.9817 46.912C31.2777 47.424 31.4257 48.02 31.4257 48.7C31.4257 49.38 31.2737 49.98 30.9697 50.5C30.6737 51.012 30.2697 51.408 29.7577 51.688C29.2457 51.968 28.6777 52.108 28.0537 52.108ZM28.0537 51.148C28.4457 51.148 28.8137 51.056 29.1577 50.872C29.5017 50.688 29.7777 50.412 29.9857 50.044C30.2017 49.676 30.3097 49.228 30.3097 48.7C30.3097 48.172 30.2057 47.724 29.9977 47.356C29.7897 46.988 29.5177 46.716 29.1817 46.54C28.8457 46.356 28.4817 46.264 28.0897 46.264C27.6897 46.264 27.3217 46.356 26.9857 46.54C26.6577 46.716 26.3937 46.988 26.1937 47.356C25.9937 47.724 25.8937 48.172 25.8937 48.7C25.8937 49.236 25.9897 49.688 26.1817 50.056C26.3817 50.424 26.6457 50.7 26.9737 50.884C27.3017 51.06 27.6617 51.148 28.0537 51.148ZM35.7295 52.108C35.1135 52.108 34.5535 51.968 34.0495 51.688C33.5535 51.408 33.1615 51.012 32.8735 50.5C32.5935 49.98 32.4535 49.38 32.4535 48.7C32.4535 48.028 32.5975 47.436 32.8855 46.924C33.1815 46.404 33.5815 46.008 34.0855 45.736C34.5895 45.456 35.1535 45.316 35.7775 45.316C36.4015 45.316 36.9655 45.456 37.4695 45.736C37.9735 46.008 38.3695 46.4 38.6575 46.912C38.9535 47.424 39.1015 48.02 39.1015 48.7C39.1015 49.38 38.9495 49.98 38.6455 50.5C38.3495 51.012 37.9455 51.408 37.4335 51.688C36.9215 51.968 36.3535 52.108 35.7295 52.108ZM35.7295 51.148C36.1215 51.148 36.4895 51.056 36.8335 50.872C37.1775 50.688 37.4535 50.412 37.6615 50.044C37.8775 49.676 37.9855 49.228 37.9855 48.7C37.9855 48.172 37.8815 47.724 37.6735 47.356C37.4655 46.988 37.1935 46.716 36.8575 46.54C36.5215 46.356 36.1575 46.264 35.7655 46.264C35.3655 46.264 34.9975 46.356 34.6615 46.54C34.3335 46.716 34.0695 46.988 33.8695 47.356C33.6695 47.724 33.5695 48.172 33.5695 48.7C33.5695 49.236 33.6655 49.688 33.8575 50.056C34.0575 50.424 34.3215 50.7 34.6495 50.884C34.9775 51.06 35.3375 51.148 35.7295 51.148ZM44.2093 52L41.6293 49.096V52H40.5373V43.12H41.6293V48.34L44.1613 45.424H45.6853L42.5893 48.7L45.6973 52H44.2093Z" fill="white"/>
</g>
<defs>
<clipPath id="clip0">
<rect width="56" height="56" fill="white"/>
</clipPath>
</defs>
</svg>
