<svg width="48" height="48" viewBox="0 0 48 48" fill="none" xmlns="http://www.w3.org/2000/svg">
<path d="M48 24.0001C48 10.7452 37.2548 0 24 0C10.7452 0 0 10.7452 0 24.0001C0 35.9792 8.77644 45.9081 20.25 47.7086V30.9376H14.1563V24.0001H20.25V18.7126C20.25 12.6975 23.833 9.37504 29.3152 9.37504C31.941 9.37504 34.6875 9.84378 34.6875 9.84378V15.75H31.6612C28.6798 15.75 27.75 17.6001 27.75 19.4981V24.0001H34.4063L33.3422 30.9376H27.75V47.7086C39.2236 45.9081 48 35.9792 48 24.0001Z" fill="#1877F2"/>
<path d="M33.3422 30.9378L34.4063 24.0003H27.75V19.4982C27.75 17.6003 28.6798 15.7502 31.6612 15.7502H34.6875V9.84395C34.6875 9.84395 31.941 9.37521 29.3152 9.37521C23.833 9.37521 20.25 12.6977 20.25 18.7127V24.0003H14.1562V30.9378H20.25V47.7088C21.4905 47.9032 22.7443 48.0006 24 48.0003C25.2758 48.0003 26.5281 47.9005 27.75 47.7088V30.9378H33.3422Z" fill="white"/>
</svg>
