<svg width="56" height="56" viewBox="0 0 56 56" fill="none" xmlns="http://www.w3.org/2000/svg">
<path d="M36.985 0H7.963C7.155 0 6.5 0.655 6.5 1.926V55C6.5 55.345 7.155 56 7.963 56H48.037C48.845 56 49.5 55.345 49.5 55V12.978C49.5 12.282 49.407 12.058 49.243 11.893L37.607 0.257C37.442 0.093 37.218 0 36.985 0Z" fill="#E9E9E0"/>
<path d="M48.037 56H7.963C7.155 56 6.5 55.345 6.5 54.537V39H49.5V54.537C49.5 55.345 48.845 56 48.037 56Z" fill="#42A66C"/>
<path d="M37.5 0.151001V12H49.349L37.5 0.151001Z" fill="#D9D7CA"/>
<path d="M11.24 43.63C11.0667 43.63 10.92 43.57 10.8 43.45C10.68 43.33 10.62 43.1833 10.62 43.01C10.62 42.8367 10.68 42.69 10.8 42.57C10.92 42.45 11.0667 42.39 11.24 42.39C11.4067 42.39 11.5467 42.45 11.66 42.57C11.78 42.69 11.84 42.8367 11.84 43.01C11.84 43.1833 11.78 43.33 11.66 43.45C11.5467 43.57 11.4067 43.63 11.24 43.63ZM11.68 44.52V50H10.77V44.52H11.68ZM19.8209 44.42C20.2476 44.42 20.6276 44.51 20.9609 44.69C21.2943 44.8633 21.5576 45.1267 21.7509 45.48C21.9443 45.8333 22.0409 46.2633 22.0409 46.77V50H21.1409V46.9C21.1409 46.3533 21.0043 45.9367 20.7309 45.65C20.4643 45.3567 20.1009 45.21 19.6409 45.21C19.1676 45.21 18.7909 45.3633 18.5109 45.67C18.2309 45.97 18.0909 46.4067 18.0909 46.98V50H17.1909V46.9C17.1909 46.3533 17.0543 45.9367 16.7809 45.65C16.5143 45.3567 16.1509 45.21 15.6909 45.21C15.2176 45.21 14.8409 45.3633 14.5609 45.67C14.2809 45.97 14.1409 46.4067 14.1409 46.98V50H13.2309V44.52H14.1409V45.31C14.3209 45.0233 14.5609 44.8033 14.8609 44.65C15.1676 44.4967 15.5043 44.42 15.8709 44.42C16.3309 44.42 16.7376 44.5233 17.0909 44.73C17.4443 44.9367 17.7076 45.24 17.8809 45.64C18.0343 45.2533 18.2876 44.9533 18.6409 44.74C18.9943 44.5267 19.3876 44.42 19.8209 44.42ZM23.1937 47.24C23.1937 46.68 23.307 46.19 23.5337 45.77C23.7603 45.3433 24.0703 45.0133 24.4637 44.78C24.8637 44.5467 25.307 44.43 25.7937 44.43C26.2737 44.43 26.6903 44.5333 27.0437 44.74C27.397 44.9467 27.6603 45.2067 27.8337 45.52V44.52H28.7537V50H27.8337V48.98C27.6537 49.3 27.3837 49.5667 27.0237 49.78C26.6703 49.9867 26.257 50.09 25.7837 50.09C25.297 50.09 24.857 49.97 24.4637 49.73C24.0703 49.49 23.7603 49.1533 23.5337 48.72C23.307 48.2867 23.1937 47.7933 23.1937 47.24ZM27.8337 47.25C27.8337 46.8367 27.7503 46.4767 27.5837 46.17C27.417 45.8633 27.1903 45.63 26.9037 45.47C26.6237 45.3033 26.3137 45.22 25.9737 45.22C25.6337 45.22 25.3237 45.3 25.0437 45.46C24.7637 45.62 24.5403 45.8533 24.3737 46.16C24.207 46.4667 24.1237 46.8267 24.1237 47.24C24.1237 47.66 24.207 48.0267 24.3737 48.34C24.5403 48.6467 24.7637 48.8833 25.0437 49.05C25.3237 49.21 25.6337 49.29 25.9737 49.29C26.3137 49.29 26.6237 49.21 26.9037 49.05C27.1903 48.8833 27.417 48.6467 27.5837 48.34C27.7503 48.0267 27.8337 47.6633 27.8337 47.25ZM32.5515 44.43C33.0248 44.43 33.4382 44.5333 33.7915 44.74C34.1515 44.9467 34.4182 45.2067 34.5915 45.52V44.52H35.5115V50.12C35.5115 50.62 35.4048 51.0633 35.1915 51.45C34.9782 51.8433 34.6715 52.15 34.2715 52.37C33.8782 52.59 33.4182 52.7 32.8915 52.7C32.1715 52.7 31.5715 52.53 31.0915 52.19C30.6115 51.85 30.3282 51.3867 30.2415 50.8H31.1415C31.2415 51.1333 31.4482 51.4 31.7615 51.6C32.0748 51.8067 32.4515 51.91 32.8915 51.91C33.3915 51.91 33.7982 51.7533 34.1115 51.44C34.4315 51.1267 34.5915 50.6867 34.5915 50.12V48.97C34.4115 49.29 34.1448 49.5567 33.7915 49.77C33.4382 49.9833 33.0248 50.09 32.5515 50.09C32.0648 50.09 31.6215 49.97 31.2215 49.73C30.8282 49.49 30.5182 49.1533 30.2915 48.72C30.0648 48.2867 29.9515 47.7933 29.9515 47.24C29.9515 46.68 30.0648 46.19 30.2915 45.77C30.5182 45.3433 30.8282 45.0133 31.2215 44.78C31.6215 44.5467 32.0648 44.43 32.5515 44.43ZM34.5915 47.25C34.5915 46.8367 34.5082 46.4767 34.3415 46.17C34.1748 45.8633 33.9482 45.63 33.6615 45.47C33.3815 45.3033 33.0715 45.22 32.7315 45.22C32.3915 45.22 32.0815 45.3 31.8015 45.46C31.5215 45.62 31.2982 45.8533 31.1315 46.16C30.9648 46.4667 30.8815 46.8267 30.8815 47.24C30.8815 47.66 30.9648 48.0267 31.1315 48.34C31.2982 48.6467 31.5215 48.8833 31.8015 49.05C32.0815 49.21 32.3915 49.29 32.7315 49.29C33.0715 49.29 33.3815 49.21 33.6615 49.05C33.9482 48.8833 34.1748 48.6467 34.3415 48.34C34.5082 48.0267 34.5915 47.6633 34.5915 47.25ZM42.0493 47.05C42.0493 47.2233 42.0393 47.4067 42.0193 47.6H37.6393C37.6726 48.14 37.856 48.5633 38.1893 48.87C38.5293 49.17 38.9393 49.32 39.4193 49.32C39.8126 49.32 40.1393 49.23 40.3993 49.05C40.666 48.8633 40.8526 48.6167 40.9593 48.31H41.9393C41.7926 48.8367 41.4993 49.2667 41.0593 49.6C40.6193 49.9267 40.0726 50.09 39.4193 50.09C38.8993 50.09 38.4326 49.9733 38.0193 49.74C37.6126 49.5067 37.2926 49.1767 37.0593 48.75C36.826 48.3167 36.7093 47.8167 36.7093 47.25C36.7093 46.6833 36.8226 46.1867 37.0493 45.76C37.276 45.3333 37.5926 45.0067 37.9993 44.78C38.4126 44.5467 38.886 44.43 39.4193 44.43C39.9393 44.43 40.3993 44.5433 40.7993 44.77C41.1993 44.9967 41.506 45.31 41.7193 45.71C41.9393 46.1033 42.0493 46.55 42.0493 47.05ZM41.1093 46.86C41.1093 46.5133 41.0326 46.2167 40.8793 45.97C40.726 45.7167 40.516 45.5267 40.2493 45.4C39.9893 45.2667 39.6993 45.2 39.3793 45.2C38.9193 45.2 38.526 45.3467 38.1993 45.64C37.8793 45.9333 37.696 46.34 37.6493 46.86H41.1093ZM45.1905 50.09C44.7705 50.09 44.3938 50.02 44.0605 49.88C43.7271 49.7333 43.4638 49.5333 43.2705 49.28C43.0771 49.02 42.9705 48.7233 42.9505 48.39H43.8905C43.9171 48.6633 44.0438 48.8867 44.2705 49.06C44.5038 49.2333 44.8071 49.32 45.1805 49.32C45.5271 49.32 45.8005 49.2433 46.0005 49.09C46.2005 48.9367 46.3005 48.7433 46.3005 48.51C46.3005 48.27 46.1938 48.0933 45.9805 47.98C45.7671 47.86 45.4371 47.7433 44.9905 47.63C44.5838 47.5233 44.2505 47.4167 43.9905 47.31C43.7371 47.1967 43.5171 47.0333 43.3305 46.82C43.1505 46.6 43.0605 46.3133 43.0605 45.96C43.0605 45.68 43.1438 45.4233 43.3105 45.19C43.4771 44.9567 43.7138 44.7733 44.0205 44.64C44.3271 44.5 44.6771 44.43 45.0705 44.43C45.6771 44.43 46.1671 44.5833 46.5405 44.89C46.9138 45.1967 47.1138 45.6167 47.1405 46.15H46.2305C46.2105 45.8633 46.0938 45.6333 45.8805 45.46C45.6738 45.2867 45.3938 45.2 45.0405 45.2C44.7138 45.2 44.4538 45.27 44.2605 45.41C44.0671 45.55 43.9705 45.7333 43.9705 45.96C43.9705 46.14 44.0271 46.29 44.1405 46.41C44.2605 46.5233 44.4071 46.6167 44.5805 46.69C44.7605 46.7567 45.0071 46.8333 45.3205 46.92C45.7138 47.0267 46.0338 47.1333 46.2805 47.24C46.5271 47.34 46.7371 47.4933 46.9105 47.7C47.0905 47.9067 47.1838 48.1767 47.1905 48.51C47.1905 48.81 47.1071 49.08 46.9405 49.32C46.7738 49.56 46.5371 49.75 46.2305 49.89C45.9305 50.0233 45.5838 50.09 45.1905 50.09Z" fill="white"/>
<path d="M35.3333 31V31.75C35.3333 32.9927 34.5125 34 33.5 34H18.8333C17.8208 34 17 32.9927 17 31.75V19.75C17 18.5073 17.8208 17.5 18.8333 17.5H19.4444V27.25C19.4444 29.3177 20.8152 31 22.5 31H35.3333ZM39 27.25V15.25C39 14.0073 38.1792 13 37.1667 13H22.5C21.4875 13 20.6667 14.0073 20.6667 15.25V27.25C20.6667 28.4927 21.4875 29.5 22.5 29.5H37.1667C38.1792 29.5 39 28.4927 39 27.25ZM26.7778 17.5C26.7778 18.7427 25.957 19.75 24.9444 19.75C23.9319 19.75 23.1111 18.7427 23.1111 17.5C23.1111 16.2573 23.9319 15.25 24.9444 15.25C25.957 15.25 26.7778 16.2573 26.7778 17.5ZM23.1111 24.25L25.2315 21.6477C25.4105 21.4281 25.7007 21.4281 25.8797 21.6477L27.3889 23.5L32.5648 17.1477C32.7438 16.9281 33.034 16.9281 33.213 17.1477L36.5556 21.25V26.5H23.1111V24.25Z" fill="#C8BDB8"/>
</svg>
