<svg width="273" height="322" viewBox="0 0 273 322" fill="none" xmlns="http://www.w3.org/2000/svg">
<path d="M19.9 5.9C18.2 7.7 17 9.9 17 11.5C17 15 22 20 25.5 20C29 20 34 15 34 11.5C34 9.9 32.8 7.7 31.1 5.9C29.3 4.2 27.1 3 25.5 3C23.9 3 21.7 4.2 19.9 5.9ZM29.2 7.7C32.6 10.8 30.3 17 25.7 17C23 17 20 14.2 20 11.7C20 6.9 25.6 4.4 29.2 7.7Z" fill="black"/>
<path d="M10 89C10 77.9543 18.9543 69 30 69H249C260.046 69 269 77.9543 269 89V158C269 169.046 260.046 178 249 178H30C18.9543 178 10 169.046 10 158V89Z" fill="#55D98D"/>
<path d="M183.6 15.5C183.1 16.8 188 17 224 17C246.6 17 265 16.6 265 16.2C265 15 238.8 14 208.9 14C187.9 14 184.1 14.2 183.6 15.5Z" fill="black"/>
<path d="M142 218.5L133 224L147 254.5L157.5 265L162.5 283L173.5 306.5L244 304.5L258 280V254.5V213L253 210.5L248 213L241 217L237.5 207H224L217.5 218.5L214.5 217L209.5 205C207.333 204.5 202.1 204.2 198.5 207C194.9 209.8 194.333 214.833 194.5 217H188.5L187 150.5L178.5 147.5L169 150.5V207L164.5 245.5L162.5 242L149 224L142 218.5Z" fill="white" stroke="black"/>
<path d="M15.6 61.5C9.9 63.5 6.9 66 4 71.1L1.5 75.5V119.5V163.5L4 168C6.8 172.9 11.3 176.4 16.9 178C19.2 178.6 47.6 179 93.3 179H166.1L165.6 203.2C165.4 216.6 164.8 230.4 164.3 234L163.5 240.5L157.5 231.1C147.6 215.4 145.1 213.9 137.1 217.9C129.4 221.9 128.8 225.1 134.1 236.1C139.5 247.2 146.8 259.2 152.4 265.9C155.9 270.1 157 272.4 157.5 276.3C158.8 285.5 165.1 300.6 169.6 305.6L171.9 308H206.9H241.9L245.2 305.1C249.8 301.1 254.7 292.6 258.1 282.8L261 274.5V243.7V212.8L258.1 209.9C253.2 205.1 246.4 206.5 242.9 213.1L241.1 216.5L241 213.5C240.9 203.3 227.8 198.4 220.7 205.8C219.3 207.3 217.6 210.3 217.1 212.5C216.3 216.2 216.2 216.2 216.1 213.5C215.8 206.4 208.9 201 201.7 202.4C197.2 203.3 193.1 207.7 192.4 212.2C190.7 222.2 190 213.2 190 183.7C190 148.4 190 148.6 184 145.5C178 142.4 170.3 144.5 167.5 150C166.5 151.9 166 155.8 166 161.5V170H126C91.1 170 86 170.2 86 171.5C86 172.8 91.1 173 126 173C160.9 173 166 173.2 166 174.5C166 175.8 157.1 176 92 176C25.7 176 17.6 175.8 14.7 174.4C10.2 172.1 8.1 170 5.9 165.8C4.1 162.3 4 159.3 4 119.5C4 79.7 4.1 76.7 5.9 73.2C8.1 69 10.2 66.9 14.7 64.6C17.6 63.2 29.2 63 137 63C244.8 63 256.4 63.2 259.3 64.6C263.9 66.9 265.9 69 268.1 73.3C270 76.9 270.1 79.2 269.8 120.3C269.5 163.4 269.5 163.5 267.2 167.2C265.9 169.2 263.2 171.9 261.2 173.2C257.6 175.5 256.9 175.5 225.8 175.8C198.3 176.1 194 176.3 194 177.6C194 178.9 198.1 179.1 225.8 178.8L257.5 178.5L262 176C267 173.2 270.5 168.6 272 162.8C272.7 160.4 273 143.9 272.8 117.2L272.5 75.5L270 71C267.2 66.1 262.7 62.6 257.1 61C254.8 60.4 211.9 60 136.5 60C38.7 60.1 18.9 60.3 15.6 61.5ZM183.1 150.9L185.5 152.8L185.8 185.6C186 207 186.5 218.9 187.2 219.7C188.7 221.5 193.5 221.3 195.4 219.4C196.3 218.6 197 216.5 197 214.9C197 211.2 201 207 204.5 207C207.9 207 210.7 210.1 211.6 214.7C212.4 219.5 213.6 221 216.6 221C219.7 221 222 218.4 222 214.9C222 211.3 225.9 207 229.3 207C233 207 235.1 209.2 236.5 214.5C237.9 220.1 239.6 221.6 243.3 220.6C245.1 220.2 246.2 218.9 247 216.5C247.8 214.1 248.9 212.8 250.6 212.4C255.9 211.1 256 211.7 256 243.9C256 262.3 255.6 275 254.9 277.5C253.3 283.4 247.4 295.1 243.9 299.3L240.9 303H206.9H173L168.5 293.7C165.7 288 163.4 281.3 162.5 276.6C161.7 272.3 161 268.7 161 268.5C161 268.3 158.9 265.8 156.4 262.8C151.4 256.9 144.2 245.4 138.6 234.2C135.8 228.6 135.2 226.5 135.9 225.1C137.1 223 142.4 220.5 144.2 221.3C144.9 221.5 148.3 226.2 151.7 231.6C160.5 245.8 162.7 247.7 167 245C169.3 243.5 170.2 231.3 170.6 190.5C171 154.4 171.1 153.5 173.2 151.3C175.8 148.5 180 148.3 183.1 150.9Z" fill="black"/>
<path d="M194 171.5C194 172.8 198 173 224 173C250 173 254 172.8 254 171.5C254 170.2 250 170 224 170C198 170 194 170.2 194 171.5Z" fill="black"/>
<path d="M265 222.1C265 222.7 266.1 224.1 267.5 225.2C268.9 226.3 270 228.2 270 229.5C270 230.8 268.9 232.7 267.5 233.8C264.9 235.9 264.2 238 266.1 238C268.2 238 273 232.2 273 229.5C273 227.9 271.8 225.7 270.1 223.9C267.1 220.9 265 220.2 265 222.1Z" fill="black"/>
<path d="M9.5999 226.5C9.0999 227.8 13.9999 228 49.9999 228C72.5999 228 90.9999 227.6 90.9999 227.2C90.9999 226 64.7999 225 34.8999 225C13.8999 225 10.0999 225.2 9.5999 226.5Z" fill="black"/>
<path d="M37.9 283.9C36.2 285.7 35 287.9 35 289.5C35 293 40 298 43.5 298C47 298 52 293 52 289.5C52 286 47 281 43.5 281C41.9 281 39.7 282.2 37.9 283.9ZM47.2 285.7C50.6 288.8 48.3 295 43.7 295C41 295 38 292.2 38 289.7C38 284.9 43.6 282.4 47.2 285.7Z" fill="black"/>
<rect x="28" y="72" width="108" height="3" rx="1.5" fill="#83FFB7"/>
<path d="M81.232 106.64V111.104H67.072V120.944H78.112V125.408H67.072V140H61.6V106.64H81.232ZM97.7751 140.432C95.2791 140.432 93.0231 139.872 91.0071 138.752C88.9911 137.6 87.4071 136 86.2551 133.952C85.1031 131.872 84.5271 129.472 84.5271 126.752C84.5271 124.064 85.1191 121.68 86.3031 119.6C87.4871 117.52 89.1031 115.92 91.1511 114.8C93.1991 113.68 95.4871 113.12 98.0151 113.12C100.543 113.12 102.831 113.68 104.879 114.8C106.927 115.92 108.543 117.52 109.727 119.6C110.911 121.68 111.503 124.064 111.503 126.752C111.503 129.44 110.895 131.824 109.679 133.904C108.463 135.984 106.799 137.6 104.687 138.752C102.607 139.872 100.303 140.432 97.7751 140.432ZM97.7751 135.68C99.1831 135.68 100.495 135.344 101.711 134.672C102.959 134 103.967 132.992 104.735 131.648C105.503 130.304 105.887 128.672 105.887 126.752C105.887 124.832 105.519 123.216 104.783 121.904C104.047 120.56 103.071 119.552 101.855 118.88C100.639 118.208 99.3271 117.872 97.9191 117.872C96.5111 117.872 95.1991 118.208 93.9831 118.88C92.7991 119.552 91.8551 120.56 91.1511 121.904C90.4471 123.216 90.0951 124.832 90.0951 126.752C90.0951 129.6 90.8151 131.808 92.2551 133.376C93.7271 134.912 95.5671 135.68 97.7751 135.68ZM122.385 104.48V140H116.913V104.48H122.385ZM135.041 104.48V140H129.569V104.48H135.041ZM153.697 140.432C151.201 140.432 148.945 139.872 146.929 138.752C144.913 137.6 143.329 136 142.177 133.952C141.025 131.872 140.449 129.472 140.449 126.752C140.449 124.064 141.041 121.68 142.225 119.6C143.409 117.52 145.025 115.92 147.073 114.8C149.121 113.68 151.409 113.12 153.937 113.12C156.465 113.12 158.753 113.68 160.801 114.8C162.849 115.92 164.465 117.52 165.649 119.6C166.833 121.68 167.425 124.064 167.425 126.752C167.425 129.44 166.817 131.824 165.601 133.904C164.385 135.984 162.721 137.6 160.609 138.752C158.529 139.872 156.225 140.432 153.697 140.432ZM153.697 135.68C155.105 135.68 156.417 135.344 157.633 134.672C158.881 134 159.889 132.992 160.657 131.648C161.425 130.304 161.809 128.672 161.809 126.752C161.809 124.832 161.441 123.216 160.705 121.904C159.969 120.56 158.993 119.552 157.777 118.88C156.561 118.208 155.249 117.872 153.841 117.872C152.433 117.872 151.121 118.208 149.905 118.88C148.721 119.552 147.777 120.56 147.073 121.904C146.369 123.216 146.017 124.832 146.017 126.752C146.017 129.6 146.737 131.808 148.177 133.376C149.649 134.912 151.489 135.68 153.697 135.68ZM208.354 113.552L200.146 140H194.386L189.058 120.464L183.73 140H177.97L169.714 113.552H175.282L180.802 134.816L186.418 113.552H192.13L197.506 134.72L202.978 113.552H208.354Z" fill="white"/>
<path d="M118.511 12C126.18 12 131 16.7845 131 24.5066V29.6429C131 30.0472 130.838 30.4347 130.551 30.7189C130.263 31.0031 129.874 31.1604 129.47 31.1557V31.1205C128.624 31.1205 127.939 30.4353 127.939 29.5901V24.5066C127.939 18.4028 124.597 15.0607 118.511 15.0607H103.507C97.4204 15.0607 94.0607 18.4204 94.0607 24.5066V39.511C94.0607 45.5796 97.4204 48.9393 103.507 48.9393H118.511C124.597 48.9393 127.939 45.5796 127.939 39.511C127.939 38.6658 128.624 37.9807 129.47 37.9807C130.315 37.9807 131 38.6658 131 39.511C131 47.2155 126.215 52 118.511 52H103.507C95.7845 52 91 47.2155 91 39.511V24.5066C91 16.7845 95.7845 12 103.507 12H118.511ZM111.141 35.2894C111.548 35.2984 111.935 35.4715 112.213 35.7696C112.491 36.0676 112.637 36.4653 112.618 36.8725V38.8074L112.591 39.0476C112.53 39.3626 112.371 39.6526 112.133 39.8743C111.836 40.1515 111.441 40.2992 111.035 40.285C110.194 40.2469 109.538 39.5436 109.558 38.7018V36.7669C109.571 36.361 109.746 35.9771 110.043 35.7C110.34 35.4228 110.735 35.2751 111.141 35.2894ZM111.07 23.6974C111.241 23.6974 111.408 23.7261 111.566 23.7807C112.196 23.9704 112.653 24.5544 112.653 25.2454L112.652 30.028L117.86 30.0299C118.036 30.0279 118.208 30.0563 118.371 30.1124C118.608 30.1847 118.828 30.3158 119.006 30.4968C119.291 30.7843 119.448 31.1736 119.443 31.5778C119.443 32.4095 118.78 33.0891 117.948 33.1082H104.316C104.173 33.1049 104.034 33.0823 103.903 33.0428C103.234 32.8762 102.741 32.2762 102.733 31.5602C102.728 31.156 102.885 30.7667 103.169 30.4792C103.454 30.1917 103.841 30.0299 104.245 30.0299H109.522V25.2278C109.541 24.3837 110.226 23.7067 111.07 23.6974Z" fill="#55D98D"/>
<path d="M153 288.91L150.09 286L145 291.09L139.91 286L137 288.91L142.09 294L137 299.09L139.91 302L145 296.91L150.09 302L153 299.09L147.91 294L153 288.91Z" fill="#55D98D"/>
<path d="M122 233.91L119.09 231L114 236.09L108.91 231L106 233.91L111.09 239L106 244.09L108.91 247L114 241.91L119.09 247L122 244.09L116.91 239L122 233.91Z" fill="#55D98D"/>
</svg>
