<?xml version="1.0" encoding="utf-8"?>
<!-- Generator: Adobe Illustrator 21.1.0, SVG Export Plug-In . SVG Version: 6.00 Build 0)  -->
<svg version="1.0" id="Capa_1" xmlns="http://www.w3.org/2000/svg" xmlns:xlink="http://www.w3.org/1999/xlink" x="0px" y="0px"
	 viewBox="0 0 1400 980" enable-background="new 0 0 1400 980" xml:space="preserve">
<g>
	<path fill="#151D38" d="M754.4,801.8c-6.1-5.8-12.3-11.7-18.4-17.5c-9.1-8.6-18.2-17.3-27.3-25.9c-0.7-0.7-1.1-1.5-1.3-2.5
		c-1.8-13.4-3.6-26.8-5.4-40.2c-0.9-6.5-1.8-13-2.7-19.5c-0.1-0.6-0.1-1.1-0.2-1.7c-0.4-1.6,0.4-2.5,1.8-3.2
		c16.7-8.8,33.5-17.7,50.2-26.6c2.3-1.2,2.3-1.2,4.4,0.6c10.6,9.3,21.2,18.5,31.8,27.8c1.8,1.6,1.8,1.6,3.9,0.5
		c35-18.6,70-37.2,105-55.8c1.7-0.9,3.1-1.1,5-0.5c5.9,1.9,11.9,3.6,17.9,5.4c2.6,0.8,2.8,1.1,1.9,3.8c-2,6.2-4.1,12.4-6.1,18.7
		c-0.4,1.2-1,2.1-2.2,2.6c-2,0.9-4,2-5.9,3.1c-2.5,1.4-5.2,1.5-7.9,0.6c-1.3-0.4-2.5-1-3.8-1.4c-4.2-1.5-7.3,0.2-8.5,4.4
		c-0.4,1.4-0.6,2.8-1,4.2c-1.5,5.5-6.3,8.1-11.7,6.4c-1.4-0.4-2.8-1.1-4.3-1.6c-4.2-1.4-7.3,0.3-8.4,4.5c-0.4,1.4-0.6,2.8-1,4.2
		c-1.5,5.3-6.3,7.9-11.6,6.3c-1.5-0.5-3-1.1-4.5-1.6c-4-1.3-7.2,0.4-8.3,4.4c-0.3,1.2-0.6,2.5-0.9,3.7c-0.7,3.1-2.4,5.3-5.3,6.7
		c-7.5,3.9-15,7.9-22.4,11.9c-1.9,1-1.9,1-1.5,3.2c2.3,13.8,4.6,27.6,6.9,41.4c0.4,2.4,0.3,2.6-1.9,3.8c-17.5,9.3-35,18.6-52.5,27.9
		c-0.9,0.5-1.9,0.8-2.6,1.7C755,801.8,754.7,801.8,754.4,801.8z"/>
	<path fill="#EBBE62" d="M702.4,695.3c0.8,5.7,1.5,11.2,2.2,16.6c1.9,13.9,3.8,27.9,5.6,41.8c0.2,1.4,0.7,2.4,1.7,3.3
		c2.1,1.9,4.2,3.9,6.3,5.9c11.8,11.2,23.7,22.4,35.5,33.7c1,1,1.7,1.2,3,0.5c16.9-9,33.9-18,50.8-27c1.7-0.9,1.7-0.9,1.4-2.8
		c-2.3-13.8-4.6-27.6-6.9-41.4c-0.5-2.7-0.4-2.8,2-4.1c7.8-4.2,15.6-8.4,23.5-12.5c2.3-1.2,3.7-2.9,4.2-5.5c0.3-1.7,0.7-3.5,1.4-5.1
		c1.7-3.8,5.7-5.9,9.8-5.2c1.9,0.3,3.6,1.2,5.4,1.8c1.4,0.5,2.7,0.9,4.2,0.5c2.5-0.7,3.9-2.4,4.5-4.8c0.5-1.9,0.7-3.9,1.6-5.8
		c1.8-3.9,5.8-6,10.1-5.1c1.8,0.4,3.5,1.2,5.2,1.8c1.3,0.4,2.5,0.9,4,0.5c2.5-0.7,4-2.3,4.6-4.7c0.4-1.6,0.7-3.3,1.2-4.9
		c1.5-4.7,5.9-7.1,10.8-6.1c1.7,0.4,3.3,1.2,5,1.8c2.1,0.8,4,0.7,6-0.4c1.6-0.9,3.2-1.8,4.9-2.6c0.9-0.5,1.5-1.1,1.8-2.1
		c1.7-5.3,3.5-10.6,5.2-16c0.5-1.7,0.5-1.7-1.2-2.2c-5.2-1.6-10.4-3.1-15.6-4.7c-1.3-0.4-2.3-0.1-3.4,0.5
		c-30.8,16.4-61.7,32.8-92.5,49.2c-4.7,2.5-9.3,4.9-14,7.4c-1.3,0.7-2.4,0.8-3.5-0.3c-0.4-0.4-0.8-0.8-1.3-1.1
		c-10.4-9.1-20.7-18.1-31.1-27.1c-2.2-1.9-1.6-1.7-3.9-0.5c-10.7,5.7-21.5,11.4-32.2,17.1c-4.9,2.6-9.7,5.2-14.6,7.8
		C703.2,693.8,702,694.1,702.4,695.3z"/>
	<path fill="#151D38" d="M747.2,178.2c1,0.8,0.9,1.9,1,3c0.2,6.1,1.7,11.8,5.1,17c2.1,3.2,4.8,5.8,8.1,7.7c0.2,0.1,0.4,0.2,0.6,0.4
		c1.5,1,1.5,2.1-0.1,3.1c-1.7,1-3.2,2.1-4.6,3.4c-4.9,4.6-7.5,10.3-8.6,16.7c-0.3,1.8-0.5,3.6-0.5,5.5c0,0.2,0,0.3,0,0.5
		c-0.1,1.3-0.7,2-1.6,1.9c-1.1-0.1-1.4-0.8-1.5-1.8c-0.2-2.1-0.2-4.3-0.6-6.4c-1.6-8.4-5.5-15.3-13-19.7c-1.8-1.1-1.8-2.2,0.1-3.3
		c8.6-5.2,12.4-13.2,13.3-22.8c0.2-1.7-0.2-3.5,0.9-5.1C746.2,178.2,746.7,178.2,747.2,178.2z M746.7,223.5c0.1-0.2,0.3-0.5,0.4-0.8
		c2-5.7,5.3-10.5,10.2-14.2c0.9-0.7,0.5-1-0.1-1.5c-4.6-3.5-7.9-8.1-9.9-13.5c-0.2-0.5-0.3-1.1-0.8-1.4c-0.2,0.5-0.5,1-0.7,1.5
		c-2,5.2-5,9.6-9.4,13.1c-1.4,1.1-1.4,1.2,0,2.3c4.3,3.5,7.4,7.9,9.4,13.1c0.1,0.4,0.3,0.7,0.4,1.1
		C746.3,223.3,746.3,223.6,746.7,223.5z"/>
	<path fill="#151D38" d="M243.2,497.4c1.3-0.6,2.6-0.7,3.9-0.5c8.1,1.1,16.1,2.1,24.2,3.1c8,1,16,2.1,24,3.1
		c3.4,0.4,6.8,0.9,10.2,1.3c0.4,0.1,0.8,0.1,1.2,0.2c0.8,0.3,1.2,0.8,1.1,1.6c-0.1,0.8-0.6,1.3-1.5,1.3c-0.9,0-1.8-0.1-2.6-0.2
		c-11.8-1.5-23.6-3.1-35.4-4.6c-7.4-1-14.9-1.9-22.3-2.8c-1.1-0.1-2-0.5-2.8-1.1C243.2,498.4,243.2,497.9,243.2,497.4z"/>
	<path fill="#151D38" d="M439.6,204.9c29,0.4,54.5,10.6,75.9,30.7c17.8,16.7,28.6,37.3,32.8,61.3c1.7,9.7,3,19.4,4.4,29.1
		c1.9,12.4,3.8,24.8,5.6,37.2c1,6.9,2.1,13.7,3.1,20.6c0.4,3,0.4,3,3.5,2.6c4.7-0.7,9.3-1.4,14-2.1c0.5-0.1,0.9-0.2,1.4-0.2
		c2-0.2,2.4,0.1,2.7,2c0.5,2.9,0.9,5.8,1.4,8.8c2.1,13.6,4.1,27.2,6.2,40.8c2.5,16.4,4.9,32.7,7.4,49.1c2,13.3,4,26.5,6.1,39.8
		c2.2,14.3,4.3,28.6,6.4,42.9c2,13.2,4,26.4,6,39.6c1.2,7.7,2.3,15.3,3.5,23c0.1,0.5,0.1,1,0.1,1.4c0.2,2,0,2.4-2.1,2.7
		c-5.1,0.8-10.3,1.6-15.4,2.4c-12.2,1.8-24.3,3.7-36.5,5.5c-11.1,1.7-22.3,3.4-33.4,5.1c-12.2,1.9-24.5,3.7-36.7,5.5
		c-12.2,1.8-24.5,3.7-36.7,5.5c-12.2,1.9-24.5,3.7-36.7,5.6c-13,2-26.1,3.9-39.1,5.9c-7,1-13.9,2.1-20.9,3.1
		c-2.6,0.4-2.9,0.2-3.3-2.3c-1.2-7.9-2.4-15.8-3.6-23.7c-1.8-12.2-3.7-24.5-5.5-36.7c-1.7-11.2-3.4-22.4-5.1-33.7
		c-1.8-12.1-3.7-24.2-5.5-36.3c-1.9-12.2-3.7-24.5-5.6-36.7c-1.9-12.2-3.7-24.5-5.6-36.7c-1.8-12.2-3.7-24.3-5.5-36.5
		c-0.2-1.5-0.5-3-0.7-4.5c-0.3-2-0.1-2.4,1.9-2.8c5.1-0.8,10.1-1.6,15.2-2.3c3.3-0.5,3.3-0.5,2.8-3.7c-1.8-12.2-3.7-24.5-5.6-36.7
		c-1.8-12.1-3.7-24.2-5.4-36.3c-0.9-6.2-2-12.3-2.6-18.5c-1.3-15.1,0.3-29.9,5.2-44.2c9.5-27.8,27.1-49,53-63.1
		c13-7.1,27-11.1,41.7-12.6C431.9,205.1,435.5,205.2,439.6,204.9z"/>
	<path fill="#FFFFFF" d="M368.1,316.7c0,2.1,0.2,5.1,0.7,8.1c1,6.7,2,13.4,3,20.1c3.4,22.4,6.7,44.7,10.1,67.1
		c0.3,2,0.3,2.1,2.4,1.8c6.7-1,13.4-2.1,20.1-3.1c11-1.7,22-3.3,32.9-5c12.2-1.8,24.3-3.7,36.5-5.5c11.2-1.7,22.4-3.4,33.7-5.1
		c4.3-0.7,8.7-1.3,13-2c1.6-0.2,1.7-0.3,1.5-2c-0.1-1-0.3-1.9-0.4-2.8c-1.8-12.2-3.7-24.3-5.5-36.5c-1.9-12.3-3.7-24.6-5.6-37
		c-0.9-5.9-1.6-11.9-3.2-17.7c-9.8-35.8-45.9-57.9-81.9-50.9C393.2,252.6,368.3,281.2,368.1,316.7z"/>
	<path fill="#CCD6DA" d="M331.1,316.4c0.2,2.7,0.1,6.4,0.6,9.9c1.8,13.1,3.8,26.1,5.7,39.1c2,13.4,4,26.7,6.1,40.1
		c0.6,4.2,1.3,8.4,1.9,12.6c0.2,1.3,0.6,1.6,1.9,1.3c1.5-0.3,3-0.5,4.5-0.7c8.6-1.3,17.2-2.6,25.8-3.9c1.1-0.2,1.5-0.6,1.3-1.7
		c-0.7-4.3-1.4-8.7-2-13c-1.8-12.1-3.7-24.2-5.5-36.3c-1.7-11.3-3.4-22.6-5.1-33.9c-1.2-7.5-1.6-14.9-0.8-22.5
		c2-17.4,9.3-32.4,21.9-44.5c17.9-17.2,39.4-23.9,63.9-19.9c22.5,3.7,39.6,15.9,51.5,35.3c5.9,9.7,8.7,20.3,10.2,31.5
		c1.5,11.2,3.3,22.3,5,33.4c2,13.4,4,26.7,6,40.1c0.4,2.6,0.8,5.2,1.2,7.8c0.1,1,0.6,1.4,1.6,1.2c0.5-0.1,0.9-0.2,1.4-0.2
		c4.7-0.7,9.5-1.4,14.2-2.1c4.8-0.7,9.6-1.4,14.5-2.2c1.9-0.3,1.9,0.1,1.7-2.3c-0.2-2.1-0.6-4.1-0.9-6.2
		c-1.7-11.2-3.4-22.4-5.1-33.7c-1.8-12.2-3.7-24.3-5.5-36.5c-1-6.8-1.9-13.6-3.6-20.3c-6.6-24.8-20.2-45-41-60
		c-26.3-18.9-55.5-25-87.1-18.1c-21.3,4.6-39.5,15-54.4,30.9C341.5,262.5,331.6,287.2,331.1,316.4z"/>
	<path fill="#EBBE62" d="M606.8,573.7c-0.3,0-0.7,0.1-1,0.1c-12.1,1.8-24.2,3.6-36.3,5.5c-11.1,1.7-22.1,3.4-33.2,5
		c-12.2,1.8-24.3,3.7-36.5,5.5c-12.3,1.9-24.6,3.7-37,5.6c-12.2,1.8-24.3,3.7-36.5,5.5c-12.2,1.8-24.3,3.7-36.5,5.5
		c-11.6,1.8-23.2,3.5-34.8,5.3c-1.5,0.2-1.6,0.3-1.4,1.8c0.7,4.7,1.4,9.5,2.2,14.2c0.3,1.8,0.3,1.8,2.1,1.5c6.8-1,13.6-2.1,20.4-3.1
		c13.2-2,26.4-4,39.6-5.9c12.2-1.8,24.5-3.7,36.7-5.6c12.3-1.9,24.7-3.7,37-5.6c12.2-1.8,24.3-3.7,36.5-5.5
		c11.1-1.7,22.3-3.4,33.4-5.1c12.2-1.8,24.3-3.7,36.5-5.5c3.8-0.6,7.6-1.2,11.4-1.7c1.1-0.2,1.4-0.6,1.2-1.7
		c-0.8-4.8-1.5-9.6-2.2-14.5C608.3,574,608,573.3,606.8,573.7z"/>
	<path fill="#EBBE62" d="M329,443.3c1.5-0.3,2.4-0.4,3.4-0.6c15.3-2.3,30.7-4.6,46-6.9c16.4-2.5,32.9-5,49.3-7.5
		c14.3-2.2,28.6-4.3,42.9-6.4c17.5-2.6,34.9-5.3,52.4-8c18.5-2.8,37-5.5,55.5-8.4c1.3-0.2,3,0.2,3.9-0.9c0.9-1.1-0.2-2.6-0.2-3.9
		c0-0.1,0-0.2,0-0.2c-0.6-3.9-1.2-7.7-1.7-11.6c-0.2-1.3-0.7-1.6-1.9-1.3c-0.2,0.1-0.5,0.1-0.7,0.1c-10.1,1.5-20.2,3.1-30.3,4.6
		c-11.1,1.7-22.1,3.3-33.2,5c-11,1.7-22,3.3-32.9,5c-11.4,1.7-22.8,3.4-34.1,5.1c-12.2,1.8-24.3,3.7-36.5,5.5c-11,1.7-22,3.3-32.9,5
		c-12.2,1.9-24.5,3.7-36.7,5.6c-4.6,0.7-9.2,1.4-13.7,2.1c-1.7,0.3-1.8,0.3-1.5,2.1c0.7,4.7,1.4,9.3,2,14
		C327.9,442.9,328.2,443.6,329,443.3z"/>
	<path fill="#EBBE62" d="M480.6,441.5c1.1-0.1,1.6-0.2,2.2-0.2c8.8-1.3,17.5-2.6,26.3-4c12.2-1.8,24.3-3.7,36.5-5.5
		c12.9-1.9,25.8-3.9,38.6-5.8c1.6-0.2,1.6-0.3,1.4-1.8c-0.7-4.7-1.4-9.3-2.1-14c-0.3-2.1-0.3-2-2.4-1.7c-11.2,1.7-22.4,3.4-33.7,5.1
		c-11,1.7-22,3.3-33,5c-11.1,1.7-22.3,3.4-33.4,5.1c-12.2,1.8-24.3,3.7-36.5,5.5c-12.2,1.8-24.5,3.7-36.7,5.5
		c-11.1,1.7-22.3,3.4-33.4,5.1c-11.1,1.7-22.1,3.3-33.2,5c-3.6,0.5-7.1,1-10.7,1.6c-2,0.3-2,0.4-1.7,2.5c0.3,2,0.6,4,0.9,5.9
		c0.4,2.7,0.9,5.4,1.3,8.1c0.1,1,0.5,1.4,1.5,1.2c0.5-0.1,1.1-0.1,1.7-0.2c4.7-0.7,9.5-1.5,14.2-2.2c14.3-2.2,28.6-4.3,42.9-6.4
		c14.3-2.2,28.6-4.4,42.9-6.5c1.5-0.2,2.6-0.8,3.7-1.9c6.7-7,14.9-10.6,24.6-10.6c5.8,0,11.2,1.5,16.3,4.3
		C479.5,440.9,480.1,441.5,480.6,441.5z"/>
	<path fill="#EBBE62" d="M350.5,592.5c0.7,4.9,1.4,9.6,2.1,14.2c0.3,2.1,0.3,2.1,2.4,1.8c9.8-1.5,19.6-3,29.4-4.4
		c13.3-2,26.6-4,39.8-6c12.2-1.8,24.3-3.7,36.5-5.6c11.1-1.7,22.3-3.3,33.4-5c12.2-1.8,24.3-3.7,36.5-5.6
		c12.2-1.8,24.3-3.6,36.5-5.5c12.4-1.9,24.8-3.7,37.2-5.7c3.7-0.6,3.4,0.1,2.8-3.7c-0.1-0.5-0.1-1-0.2-1.4
		c-0.6-3.8-1.2-7.6-1.7-11.4c-0.2-1.3-0.7-1.5-1.9-1.3c-2.4,0.4-4.7,0.7-7.1,1.1c-12.1,1.8-24.2,3.6-36.3,5.5
		c-12.2,1.9-24.5,3.7-36.7,5.6c-6.5,1-13,1.9-19.4,2.9c-1.6,0.2-1.7,0.4-1.3,2c0.5,1.9,1.1,3.8,1.6,5.8c0.7,2.5,0.4,2.9-2.2,3.3
		c-15.2,2.3-30.5,4.7-45.7,7c-2,0.3-2.6-0.2-2.7-2.3c-0.1-2.3-0.1-4.6-0.2-7c0-1-0.4-1.2-1.3-1c-2.6,0.4-5.2,0.8-7.8,1.2
		c-11.3,1.7-22.6,3.4-33.9,5.1c-11.1,1.7-22.3,3.3-33.4,5c-8.3,1.3-16.6,2.5-24.9,3.8C350.9,591.2,350,591.3,350.5,592.5z"/>
	<path fill="#EBBE62" d="M451.9,521.7c-0.1,0-0.3,0-0.4,0c0-2.1,0-4.2,0-6.2c0-3,0-3-3.1-2.5c-5.9,0.9-11.8,1.8-17.8,2.7
		c-11.1,1.7-22.1,3.3-33.2,5c-11.2,1.7-22.4,3.4-33.7,5.1c-7.1,1.1-14.2,2.2-21.3,3.2c-1.1,0.2-1.5,0.5-1.3,1.7
		c0.8,4.9,1.6,9.8,2.3,14.7c0.2,1.2,0.6,1.4,1.7,1.2c5.7-0.9,11.4-1.7,17.1-2.6c11.1-1.7,22.3-3.4,33.4-5
		c12.2-1.8,24.5-3.7,36.7-5.5c6-0.9,12-1.9,18-2.7c1.4-0.2,1.7-0.7,1.6-2C451.9,526.4,451.9,524.1,451.9,521.7z"/>
	<path fill="#EBBE62" d="M490.8,524.6c1.5-0.2,3-0.5,4.5-0.7c12.2-1.8,24.3-3.6,36.5-5.5c12.3-1.9,24.7-3.7,37-5.6
		c9.3-1.4,18.6-2.9,28-4.2c1.2-0.2,1.6-0.5,1.4-1.8c-0.8-4.7-1.5-9.5-2.2-14.2c-0.3-1.7-0.3-1.7-2.1-1.5c-5.6,0.8-11.2,1.7-16.8,2.5
		c-11.1,1.7-22.3,3.4-33.4,5c-11.1,1.7-22.1,3.4-33.2,5c-7.7,1.2-15.5,2.3-23.2,3.5c-1.8,0.3-1.9,0.4-1.4,2.1
		c1.2,4.2,2.4,8.5,3.5,12.7c0.2,0.6,0.3,1.2,0.5,1.8C489.9,524.3,490.2,524.7,490.8,524.6z"/>
	<path fill="#EBBE62" d="M451.1,505.3c0-0.8-0.1-1.6,0-2.4c0.2-1.4-0.4-2.1-1.8-2.6c-3.2-1.2-6.2-2.8-8.5-5.2
		c-1.6-1.6-3.2-1.7-5.2-1.3c-4.9,0.8-9.8,1.5-14.7,2.3c-11.2,1.7-22.4,3.4-33.6,5.1c-11.1,1.7-22.3,3.3-33.4,5
		c-4.9,0.7-9.8,1.5-14.7,2.2c-1.2,0.2-1.4,0.6-1.2,1.7c0.8,4.8,1.5,9.6,2.1,14.5c0.2,1.2,0.6,1.6,1.9,1.4c7.5-1.2,15-2.3,22.5-3.4
		c14.4-2.2,28.7-4.3,43.1-6.5c13.3-2,26.5-4,39.8-6.1C451.9,509.3,451.3,510.2,451.1,505.3z"/>
	<path fill="#EBBE62" d="M595.1,486.5c-0.8-5.1-1.6-10.3-2.4-15.4c-0.2-1.1-0.8-0.9-1.5-0.8c-4.8,0.7-9.6,1.5-14.5,2.2
		c-11.1,1.7-22.1,3.3-33.2,5c-11.1,1.7-22.3,3.4-33.4,5.1c-5.6,0.8-11.2,1.7-16.8,2.5c-0.9,0.1-1.7,0.3-2.2,1.2
		c-2.1,3.7-4.8,6.7-8.1,9.4c-0.6,0.5-0.8,0.9-0.5,1.7c0.6,1.9,1.1,3.8,1.6,5.8c0.2,0.9,0.6,1.3,1.5,1.1c0.6-0.1,1.1-0.1,1.7-0.2
		c4.8-0.7,9.6-1.5,14.5-2.2c12.2-1.9,24.5-3.7,36.7-5.5c12.2-1.8,24.5-3.7,36.7-5.5c6.2-0.9,12.3-1.9,18.5-2.8
		C594.5,487.8,595.3,487.7,595.1,486.5z"/>
	<path fill="#EBBE62" d="M452.6,542.7c-0.2,0-0.3,0-0.5,0c0-2.6,0-5.3,0-7.9c0-0.8-0.3-1.2-1.1-1c-0.5,0.1-1.1,0.1-1.7,0.2
		c-5,0.8-9.9,1.5-14.9,2.3c-12.2,1.8-24.3,3.7-36.5,5.5c-12.4,1.9-24.8,3.7-37.2,5.6c-5.1,0.8-10.1,1.6-15.2,2.3
		c-0.8,0.1-1.4,0.2-1.2,1.3c0.8,5.1,1.5,10.1,2.3,15.2c0.1,1,0.6,1.3,1.6,1.1c2.6-0.5,5.2-0.8,7.8-1.2c12.1-1.8,24.2-3.6,36.3-5.5
		c12.2-1.9,24.5-3.7,36.7-5.6c7.3-1.1,14.7-2.3,22-3.3c1.3-0.2,1.6-0.7,1.5-1.8C452.5,547.5,452.6,545.1,452.6,542.7z"/>
	<path fill="#EBBE62" d="M601.4,528.4c-0.8-5.5-1.6-10.4-2.3-15.3c-0.3-1.7-0.3-1.7-2.2-1.4c-7.7,1.1-15.3,2.3-23,3.4
		c-11.2,1.7-22.4,3.4-33.6,5.1c-11.1,1.7-22.1,3.3-33.2,5c-5,0.8-9.9,1.5-14.9,2.3c-1.1,0.2-1.3,0.5-1,1.5c1.4,4.8,2.7,9.7,4,14.5
		c0.3,1.3,1,1.3,2.1,1.1c5.8-0.9,11.7-1.8,17.5-2.7c12.1-1.8,24.2-3.6,36.2-5.5c11.3-1.7,22.6-3.4,33.9-5.1c5-0.8,9.9-1.5,14.9-2.3
		C600.7,529.1,601.5,529,601.4,528.4z"/>
	<path fill="#EBBE62" d="M453.2,564.1c-0.2,0-0.3,0-0.5,0c0-2.7,0-5.4,0-8.1c0-1-0.4-1.3-1.3-1.1c-1.5,0.3-3,0.5-4.5,0.7
		c-11.1,1.7-22.1,3.3-33.2,5c-12.2,1.8-24.5,3.7-36.7,5.6c-9.4,1.4-18.8,2.9-28.2,4.2c-1.1,0.2-1.6,0.5-1.4,1.7
		c0.8,5,1.6,9.9,2.3,14.9c0.2,1.1,0.7,1.2,1.7,1c4.1-0.6,8.2-1.2,12.3-1.9c14.3-2.2,28.6-4.4,42.9-6.5c15-2.3,30-4.5,45-6.8
		c1.6-0.2,1.6-0.3,1.6-2C453.2,568.5,453.2,566.3,453.2,564.1z"/>
	<path fill="#EBBE62" d="M502.3,565.1c0.5-0.1,0.9-0.1,1.4-0.2c4.7-0.7,9.5-1.5,14.2-2.2c11.3-1.7,22.6-3.4,33.9-5.1
		c11.1-1.7,22.1-3.3,33.2-5c5.9-0.9,11.9-1.8,17.8-2.7c1.8-0.3,1.8-0.3,1.6-2c-0.7-4.7-1.4-9.3-2.1-14c-0.3-1.7-0.3-1.8-2.2-1.5
		c-6.7,1-13.4,2-20.2,3c-10.9,1.6-21.8,3.3-32.7,4.9c-11.2,1.7-22.4,3.4-33.7,5.1c-5.2,0.8-10.4,1.6-15.6,2.4
		c-1,0.1-1.4,0.5-1.1,1.5c1.4,4.9,2.8,9.8,4.1,14.8C501.1,564.8,501.5,565.2,502.3,565.1z"/>
	<path fill="#EBBE62" d="M335.4,484.6c0.2,0,0.5,0,0.8-0.1c3.2-0.5,6.5-1,9.7-1.5c11.1-1.7,22.1-3.3,33.2-5
		c11.2-1.7,22.4-3.4,33.6-5.1c4.9-0.7,9.8-1.5,14.7-2.2c1-0.1,1.5-0.5,1.5-1.6c-0.1-5.6,1.5-10.9,4.1-15.8c0.2-0.4,0.7-0.9,0.3-1.2
		c-0.3-0.3-0.9-0.1-1.4,0c-4.7,0.7-9.3,1.4-14,2.1c-12.2,1.8-24.5,3.7-36.7,5.5c-12.3,1.9-24.6,3.7-37,5.6
		c-3.7,0.6-7.4,1.2-11.1,1.7c-1.1,0.2-1.7,0.4-1.4,1.8c0.4,1.5,0.4,3,0.7,4.5c0.5,3.3,1,6.6,1.5,10
		C334.1,484,334.1,484.8,335.4,484.6z"/>
	<path fill="#EBBE62" d="M588.8,445.4c0-0.4-0.1-0.7-0.1-0.9c-0.7-4.7-1.4-9.3-2.2-14c-0.3-1.8-0.3-1.8-2.1-1.5
		c-5.8,0.9-11.7,1.8-17.5,2.7c-11.1,1.7-22.1,3.3-33.2,5c-11.2,1.7-22.4,3.4-33.6,5.1c-4.8,0.7-9.6,1.4-14.4,2.2
		c-1.4,0.2-1.4,0.4-0.4,1.4c4.1,3.9,7,8.5,8.7,13.9c0.4,1.3,1.1,1.3,2.1,1.2c2.9-0.5,5.8-0.9,8.8-1.4c11.1-1.7,22.3-3.4,33.4-5.1
		c12.2-1.8,24.3-3.7,36.5-5.5c4.3-0.6,8.5-1.3,12.8-1.9C588.4,446.4,589,446.2,588.8,445.4z"/>
	<path fill="#EBBE62" d="M428.3,473.8c-1.1,0.1-1.8,0.2-2.5,0.3c-7,1.1-13.9,2.1-20.9,3.2c-12.2,1.8-24.3,3.7-36.5,5.5
		c-10.1,1.5-20.2,3-30.3,4.6c-4,0.6-3.4,0.1-2.8,3.9c0,0.3,0.1,0.6,0.1,1c0.6,3.9,1.3,7.9,1.8,11.8c0.1,1.1,0.6,1.4,1.6,1.1
		c0.4-0.1,0.8-0.1,1.2-0.1c9.9-1.5,19.7-3,29.6-4.5c12.2-1.9,24.5-3.7,36.7-5.6c9.4-1.4,18.8-2.9,28.2-4.3c1.6-0.2,1.6-0.3,0.6-1.7
		c-2.3-3.1-3.9-6.6-5-10.3c-0.3-1.2-0.6-2.5-0.8-3.7C429.2,474.3,428.9,473.6,428.3,473.8z"/>
	<path fill="#EBBE62" d="M494.5,481.7c1.3-0.2,2.5-0.4,3.8-0.6c12.3-1.9,24.6-3.7,37-5.6c11-1.7,22-3.3,32.9-5
		c7.4-1.1,14.8-2.3,22.3-3.3c1-0.1,1.6-0.3,1.4-1.6c-0.8-5-1.5-9.9-2.2-14.9c-0.2-1.1-0.6-1.3-1.6-1.1c-5.4,0.8-10.7,1.6-16.1,2.5
		c-12.1,1.8-24.2,3.7-36.3,5.5c-13,2-25.9,3.9-38.9,5.8c-1.7,0.3-1.7,0.3-1.5,2c0.5,3.2,0.3,6.4-0.2,9.6c-0.3,1.9-0.8,3.8-1.4,5.6
		C493.6,481.2,493.4,481.8,494.5,481.7z"/>
	<path fill="#151D38" d="M987.5,429.4c5.4,0.2,9.6,1.7,13.4,4.6c11,8.5,22.1,16.9,33.1,25.4c0.3,0.2,0.6,0.5,1,0.7
		c1.6,1.2,1.5,1.6,2.9-0.4c1.9-2.6,4.4-3.9,7.7-3.3c5.3,0.9,7.9,6.6,5.2,11.3c-0.7,1.2-2.4,2.1-2.2,3.6c0.2,1.2,1.4,2.3,2,3.5
		c3.6,8,3.2,15.7-2.2,22.8c-1.3,1.6-2.5,3.3-3.8,4.9c-0.8,1-0.7,1.5,0.3,2.3c5.6,4.2,11.1,8.4,16.6,12.7
		c10.3,7.9,20.6,15.8,30.8,23.6c0.4,0.3,0.9,0.7,1.3,1c0.5,0.4,0.8,0.3,1.2-0.1c0.3-0.4,0.6-0.7,1-1.1c2.5-2.4,5.8-3,8.4-1.7
		c2.6,1.4,4.4,5,3.9,8.2c-0.1,1-0.3,2.1-0.9,2.9c-1,1.2-0.5,1.8,0.6,2.6c9.5,7.3,19.1,14.6,28.6,21.9c6.3,4.8,12.6,9.6,18.9,14.4
		c2.1,1.6,2.2,2.4,0.6,4.5c-5.7,7.5-11.5,15-17.2,22.5c-1.4,1.8-1.9,1.9-3.7,0.5c-2.8-2.1-5.6-4.3-8.4-6.4c-0.8-0.7-1.4-0.8-2.1,0.2
		c-3.1,4.3-3.2,2.8,0.6,5.8c2.1,1.7,4.3,3.3,6.5,5c1.7,1.3,1.8,1.9,0.6,3.6c-5.9,7.8-11.9,15.5-17.8,23.2c-1.2,1.6-1.8,1.6-3.4,0.4
		c-4.7-3.5-9.3-7.1-13.9-10.7c-1.6-1.2-1.6-1.8-0.4-3.4c3-4,6-7.9,9-11.8c1.1-1.5,1.1-1.5-0.3-2.6c-1.4-1.1-2.8-2.1-4.2-3.2
		c-1-0.9-1.5-0.6-2.2,0.4c-2.9,3.8-5.8,7.6-8.7,11.4c-1.7,2.3-2.1,2.3-4.4,0.6c-4.7-3.6-9.4-7.2-14.1-10.8c-2.1-1.6-2.1-1.9-0.5-4
		c5.8-7.6,11.6-15.1,17.4-22.7c1.4-1.8,2-1.9,3.7-0.5c3.1,2.4,6.2,4.8,9.3,7.1c1.4,1.1,1.5,1.1,2.6-0.4c0.7-0.9,2-1.9,2-2.9
		c0-1.1-1.6-1.6-2.5-2.3c-5.5-4.3-11-8.5-16.5-12.7c-0.9-0.7-1.6-0.9-2.7-0.1c-1.6,1.3-3.6,1.7-5.7,1.5c-5.1-0.5-7.8-4.9-6-9.7
		c0.8-2,0.8-2-0.8-3.2c-15.7-12-31.4-24-47-36c-0.1-0.1-0.2-0.2-0.4-0.3c-1.5-1.1-1.5-1.1-2.7,0.4c-0.9,1.2-1.8,2.4-2.8,3.6
		c-5.5,7.1-14.3,10-22.9,7.5c-2.6-0.7-2.6-0.7-4.3,1.3c-2.4,3-5.5,4.1-8.7,3c-4.8-1.6-6.7-7.1-4-11.3c0.5-0.9,1.7-1.6,1.5-2.6
		c-0.2-0.9-1.5-1.4-2.3-2c-11-8.4-21.9-16.9-32.9-25.2c-3.9-3-6.7-6.7-7.9-11.4c-1.6-6.7-0.5-12.8,3.7-18.4
		c3.9-5.1,7.9-10.3,11.8-15.4c6.2-8.1,12.4-16.3,18.7-24.4C975.8,431.9,981.5,429.6,987.5,429.4z"/>
	<path fill="#EBBE62" d="M1049.7,484.5c0.1-3.2-0.9-6.5-2.8-9.6c-0.4-0.7-0.9-0.9-1.4-0.1c-0.4,0.5-0.8,1-1.2,1.5
		c-7.1,9.3-14.2,18.5-21.3,27.8c-8.9,11.6-17.7,23.1-26.5,34.7c-1.2,1.6-1.2,1.7,0.7,2.1c7.2,1.6,13.5,0,18.4-5.7
		c1.8-2.1,3.3-4.3,5-6.4c1.4-1.8,1.8-1.8,3.7-0.4c0.2,0.1,0.4,0.3,0.6,0.4c13.3,10.2,26.7,20.4,40,30.6c3.6,2.8,7.3,5.5,10.9,8.3
		c1.8,1.4,1.9,1.9,0.7,3.8c-0.3,0.5-0.7,1.1-0.9,1.7c-1,2.4,0.1,4.5,2.6,5.1c2,0.5,3.8,0,5.2-1.6c1.6-1.8,1.8-1.8,3.7-0.3
		c1,0.7,1.9,1.5,2.9,2.2c6.2,4.8,12.4,9.5,18.7,14.3c2,1.5,2,1.9,0.5,3.9c-1.2,1.7-2.5,3.3-3.8,5c-1.7,2.2-2,2.2-4.2,0.6
		c-3.1-2.3-6.1-4.6-9.1-7c-0.9-0.7-1.5-0.9-2.3,0.2c-5,6.6-10.1,13.2-15.2,19.8c-0.8,1-0.4,1.4,0.4,2c3.4,2.5,6.7,5.1,10.1,7.7
		c2.6,2,2.6,2,4.6-0.7c2.7-3.6,5.4-7.1,8.2-10.7c1.1-1.5,1.7-1.6,3-0.7c3,2.2,5.9,4.4,8.8,6.7c0.9,0.7,1.1,1.6,0.5,2.5
		c-0.3,0.5-0.7,1-1.1,1.5c-2.8,3.7-5.6,7.4-8.5,11c-0.7,0.9-0.9,1.5,0.2,2.3c3.4,2.5,6.7,5.1,10.1,7.7c1.4,1,1.4,1,2.4-0.3
		c5-6.5,9.9-12.9,14.9-19.4c1-1.3,1-1.3-0.4-2.4c-2.8-2.2-5.6-4.3-8.4-6.4c-1.6-1.2-1.6-1.8-0.5-3.4c1.3-1.8,2.7-3.6,4.1-5.3
		c1.6-2,2-2.1,4.1-0.5c2.7,2.1,5.5,4.2,8.2,6.3c0.8,0.7,1.4,0.8,2.1-0.2c5-6.6,10-13.1,15-19.6c0.7-0.9,0.9-1.6-0.2-2.3
		c-0.3-0.2-0.6-0.5-1-0.7c-15.4-11.8-30.8-23.6-46.3-35.5c-2.9-2.2-2.9-2.3-0.9-5.2c1.2-1.8,1.3-3.6,0.5-5.5c-1-2.3-2.9-2.9-5.1-1.8
		c-1.3,0.7-2.1,1.7-2.9,2.8c-1.3,1.6-1.9,1.7-3.6,0.5c-2.6-1.9-5.1-3.9-7.6-5.8c-14.5-11.1-29.1-22.3-43.6-33.4
		c-2.3-1.8-2.3-2.2-0.6-4.4c1.7-2.3,3.5-4.6,5.2-6.9C1048.5,492.1,1049.7,488.7,1049.7,484.5z"/>
	<path fill="#EBBE62" d="M986.1,432.6c-3.9,0.1-8.5,2.2-11.9,6.5c-3.3,4.1-6.4,8.4-9.7,12.5c-7,9.1-14.1,18.2-21,27.4
		c-6.2,8.2-4.7,18.8,3.4,25.1c11.4,8.8,22.8,17.5,34.3,26.3c1.5,1.1,1.4,1.5,2.7-0.3c16.5-21.6,33.1-43.2,49.6-64.8
		c1.1-1.5,1.1-1.5-0.4-2.7c-4.6-3.5-9.1-7-13.7-10.5c-6.8-5.2-13.6-10.4-20.4-15.6C995.7,434,992,432.5,986.1,432.6z"/>
	<path fill="#EBBE62" d="M985.3,545.4c1.8-0.2,3-1.2,4.1-2.6c19.2-25.1,38.4-50.2,57.6-75.2c0.4-0.6,0.9-1.1,1.2-1.8
		c0.9-1.9,0.4-4.1-1.3-5.4c-1.6-1.2-3.7-1.2-5.3,0.1c-0.7,0.6-1.2,1.3-1.7,2c-19,24.8-38,49.6-57.1,74.5c-0.5,0.6-1,1.3-1.4,1.9
		C979.8,541.8,982,545.4,985.3,545.4z"/>
	<path fill="#151D38" d="M867.9,327c-7.3-0.1-14.5-2.4-21.1-6.9c-0.3-0.2-0.7-0.5-1-0.7c-0.7-0.6-1.2-0.6-1.6,0.3
		c-1.1,2.3-2.2,4.6-3.3,6.9c-0.5,0.9-0.5,1.5,0.5,2.1c1.6,1,2.7,2.5,3.4,4.2c1.5,3.7,0.3,7.4-3.3,9.2c-1.4,0.7-1.5,1.3-1.2,2.7
		c0.8,4.8-2.1,8.1-6.9,8.2c-1.1,0-2.3,0.1-3.3-0.4c-1.2-0.5-1.7,0-2.2,1c-3,6.3-6,12.5-9.1,18.8c-8.8,18.2-17.6,36.4-26.3,54.7
		c-0.7,1.5-1.6,2.2-3.2,2.5c-5.6,1.2-11.1,2.4-16.6,3.6c-2.2,0.5-2.3,0.4-3.3-1.6c-2.6-5.1-5.1-10.3-7.7-15.5
		c-0.6-1.2-0.8-2.3-0.1-3.6c1.1-2.1,2.1-4.3,3.2-6.5c0.7-1.4,1.2-1.6,2.7-1c1.2,0.5,2.4,1,3.5,1.7c1,0.6,1.6,0.3,2-0.7
		c0.2-0.4,0.4-0.9,0.6-1.3c0.4-0.8,0.3-1.3-0.6-1.7c-1.2-0.6-2.5-1.1-3.7-1.8c-1.4-0.8-1.6-1.3-1-2.7c0.9-2,1.8-3.9,2.8-5.8
		c0.7-1.4,1.2-1.6,2.7-0.9c1.2,0.5,2.3,1.1,3.5,1.7c0.9,0.4,1.5,0.5,1.9-0.6c0-0.1,0.1-0.1,0.1-0.2c1.3-2.3,1.3-2.3-1.1-3.5
		c-0.9-0.4-1.9-0.9-2.8-1.4c-1-0.5-1.3-1.4-0.8-2.4c1-2.1,2-4.2,3-6.3c0.5-1.1,1.4-1.2,2.4-0.7c1.3,0.6,2.6,1.2,3.9,1.9
		c0.7,0.4,1.2,0.3,1.5-0.5c0-0.1,0.1-0.1,0.1-0.2c1.5-2.5,1.5-2.5-1.2-3.8c-0.7-0.3-1.3-0.6-1.9-1c-1.9-1-2.1-1.5-1.2-3.4
		c2.3-4.8,4.6-9.5,6.9-14.3c2.9-6,5.8-12.1,8.8-18.1c0.5-1.1,0.7-1.8-0.6-2.7c-4.4-3.4-3.6-9.7,1.4-12.3c1.1-0.6,1.5-1,1.2-2.3
		c-1.2-5.6,3.3-10.2,8.9-9.2c1.3,0.3,1.8,0,2.3-1.1c1-2.3,2.1-4.5,3.2-6.7c0.3-0.6,0.2-1.1-0.5-1.3c-0.4-0.1-0.8-0.2-1.2-0.3
		c-15-5.1-24.2-15.5-26.5-31.1c-3.1-20.9,11.6-39.7,31.7-42.7c6-0.9,11.9-0.4,17.7,1.5c2.1,0.7,1.7,0.8,2.6-1.1
		c4-8.8,10.7-14.2,20-16.3c16.3-3.7,32.4,8.3,33.9,24.8c0.5,5.7-0.5,11-3.1,16c-0.8,1.6-0.8,1.6,0.6,2.5c9.3,6.1,15,14.7,17.1,25.6
		c3.7,19.6-9.2,39.2-28.7,43.5C874.3,326.7,871.5,327,867.9,327z"/>
	<path fill="#EBBE62" d="M824.3,232.1c-0.6,0-1.3,0-1.9,0c-9.4,0.4-17.6,3.7-24.3,10.5c-12.6,12.7-13.5,33.1-2,46.7
		c5.1,6.1,11.6,9.9,19.3,11.7c2.5,0.6,2.8,1.1,1.7,3.5c-0.7,1.5-1.4,2.9-2.1,4.3c-1,2-1.9,4-2.9,6c-1.1,2.3-1.4,2.4-3.7,1.5
		c-0.1-0.1-0.3-0.2-0.4-0.2c-2.2-0.9-4.4-0.2-5.6,1.8c-1.1,1.9-0.8,4.1,1,5.6c0.4,0.3,0.8,0.5,1.2,0.8c0.5,0.5,0.7,1.1,0.4,1.7
		c-0.3,0.6-0.8,1-1.6,0.9c-0.5-0.1-0.9-0.3-1.4-0.4c-1.8-0.4-3.3,0.2-4.5,1.6c-1.7,2.3-1,4.8,1.8,6.3c2.5,1.4,2.5,1.5,1.3,4.1
		c-2.9,6-5.9,12.1-8.8,18.1c-2.3,4.8-4.5,9.5-6.9,14.3c-0.5,1.1-0.3,1.6,0.7,2c1.2,0.5,2.3,1,3.5,1.7c1.3,0.7,1.6,1.3,0.9,2.7
		c-0.8,1.9-1.7,3.8-2.7,5.6c-0.8,1.6-1.4,1.7-3.1,1c-1-0.5-2.1-0.9-3-1.5c-1.1-0.6-1.8-0.6-2.2,0.7c-0.1,0.4-0.3,0.8-0.5,1.1
		c-0.7,1-0.3,1.6,0.7,2c1.2,0.5,2.3,1,3.5,1.7c1.4,0.8,1.5,1.3,0.9,2.7c-0.9,1.9-1.7,3.8-2.7,5.6c-0.8,1.5-1.4,1.7-2.9,1
		c-1.1-0.5-2.2-1-3.2-1.6c-1.1-0.6-1.7-0.5-2.2,0.7c-0.2,0.5-0.4,1.1-0.7,1.5c-0.4,0.7-0.1,1,0.4,1.3c1.2,0.6,2.5,1.1,3.7,1.8
		c1.6,0.8,1.8,1.4,1.1,3.1c-0.8,1.7-1.6,3.3-2.4,5c-1,2.1-1.5,2.2-3.5,1.3c-1.4-0.6-2.9-2.2-4.3-1.6c-1.3,0.6-1.4,2.7-2.3,4.1
		c-0.5,0.9-0.4,1.6,0,2.5c2.2,4.4,4.4,8.7,6.5,13.1c0.6,1.3,1.3,1.5,2.6,1.2c4.6-1.1,9.2-2.1,13.8-3c1.1-0.2,1.8-0.8,2.3-1.8
		c3.3-6.9,6.6-13.7,9.9-20.5c8.7-18,17.3-36,26-54c1-2.1,1.4-2.3,3.7-1.3c1.2,0.5,2.4,0.9,3.7,0.8c1.7-0.2,3.1-0.7,3.7-2.5
		c0.6-1.8,0-3.3-1.3-4.5c-0.4-0.4-0.9-0.7-1.3-1c-0.5-0.5-0.5-1.1-0.2-1.8c0.3-0.6,0.8-0.8,1.4-0.7c0.4,0,0.8,0.2,1.2,0.2
		c2.1,0.5,3.8-0.1,4.8-1.7c1.1-1.6,0.6-3.2-0.3-4.7c-0.8-1.4-2.1-2.1-3.5-2.9c-1.5-0.8-1.7-1.3-1-2.9c0.5-1.1,1-2.2,1.5-3.2
		c1.3-2.7,2.6-5.5,4-8.2c1-1.9,1.7-2,3.3-0.8c0.3,0.2,0.5,0.4,0.7,0.6c8.4,6.6,17.8,9.2,28.3,7.3c14.3-2.6,25.5-13.9,27.9-27.8
		c2.5-14.6-4.1-29.1-16.7-36.4c-0.6-0.3-1.1-0.6-1.7-0.9c-1.1-0.6-1.1-1.5-0.6-2.5c0.2-0.4,0.4-0.7,0.7-1c3.4-5.5,4.6-11.5,3.5-17.9
		c-2.8-15.9-20.3-25.2-35-18.4c-6.6,3.1-11.2,8.1-13.6,15.1c-0.7,2.1-1.2,2.3-3.2,1.5C832.3,233.3,828.4,232.4,824.3,232.1z"/>
	<path fill="#151D38" d="M826.3,563.2c0,0.8-0.5,1.2-1.2,1.6c-1.8,1-3.4,2.1-4.8,3.5c-6,5.8-8.5,13-8.9,21.1c0,0.7,0,1.4-0.1,2.1
		c-0.1,0.8-0.7,1.3-1.5,1.3c-0.8,0-1.4-0.5-1.5-1.3c-0.1-1-0.1-2.1-0.2-3.1c-0.5-6.7-2.5-12.8-6.8-18c-1.8-2.2-3.9-3.9-6.4-5.4
		c-2.1-1.3-2.1-2.3,0-3.6c7.4-4.4,11.2-11.2,12.7-19.4c0.4-1.9,0.5-3.8,0.6-5.7c0-0.5,0-1,0.1-1.4c0.2-0.8,0.7-1.3,1.5-1.3
		c0.8,0,1.4,0.5,1.5,1.3c0.1,0.7,0.1,1.4,0.1,2.1c0.4,8.1,3,15.3,8.9,21.1c1.4,1.3,2.9,2.5,4.6,3.4
		C825.6,561.9,826.2,562.3,826.3,563.2z M821.2,562.8c-0.1-0.1-0.4-0.2-0.7-0.4c-4.8-3.7-8.2-8.5-10.2-14.2
		c-0.1-0.3-0.3-0.8-0.4-0.8c-0.4,0-0.5,0.5-0.6,0.8c-2,5.6-5.2,10.4-10,14c-0.9,0.7-0.8,1.2,0,1.8c3.8,2.8,6.6,6.5,8.7,10.7
		c0.7,1.4,1.2,2.8,1.8,4.1c1-1.2,1.3-2.8,2-4.2c2-4.1,4.7-7.6,8.3-10.4C820.5,564,821,563.8,821.2,562.8z"/>
	<path fill="#151D38" d="M1042.8,374.2c-0.1,0.8-0.5,1.1-1.1,1.5c-9.3,5.6-13.2,14.2-13.7,24.6c0,0.7,0,1.4-0.1,2.2
		c-0.1,0.8-0.7,1.3-1.5,1.3c-0.8,0-1.4-0.5-1.5-1.3c-0.1-0.7-0.1-1.4-0.1-2.1c-0.3-8-2.8-15.2-8.7-20.9c-1.4-1.4-3.1-2.6-4.8-3.6
		c-1.9-1.1-1.9-2.2,0-3.3c9-5.5,12.8-13.9,13.5-24c0-0.6,0-1.3,0-1.9c0.1-1.3,0.7-2,1.6-2c0.9,0,1.5,0.7,1.6,2
		c0.1,2.2,0.2,4.3,0.6,6.4c1.3,7,4.3,13,10,17.5c1,0.8,2.1,1.4,3.2,2.1C1042.3,372.9,1042.8,373.4,1042.8,374.2z M1026.3,358.3
		c-0.1,0.2-0.3,0.4-0.4,0.6c-2.1,5.8-5.4,10.8-10.5,14.5c-0.9,0.6-0.3,1,0.2,1.4c4.8,3.6,8.1,8.3,10.1,14c0.1,0.4,0.4,0.7,0.6,1
		c0.2-0.3,0.5-0.6,0.6-1c2-5.5,5.2-10.2,9.9-13.8c1.2-0.9,1.2-1-0.2-2c-4-3.1-6.9-7.1-8.9-11.7c-0.4-0.8-0.6-1.6-1-2.4
		C1026.7,358.7,1026.5,358.6,1026.3,358.3z"/>
	<path fill="#151D38" d="M592.3,260c0.7,0.1,1.3,0.5,1.4,1.3c0.1,0.7,0.2,1.4,0.2,2.1c0.6,6.7,4,11.5,9.7,14.7
		c0.5,0.3,1,0.5,1.5,0.8c1.3,0.8,1.3,2,0,2.8c-0.3,0.2-0.7,0.3-1.1,0.5c-6,3.2-9.5,8.1-10.2,14.9c-0.1,0.7-0.1,1.4-0.2,2.1
		c-0.1,0.8-0.6,1.3-1.5,1.3c-0.8,0-1.3-0.5-1.5-1.3c-0.1-0.4-0.1-0.8-0.1-1.2c-0.4-7.2-4-12.5-10.3-15.9c-0.4-0.2-0.9-0.4-1.3-0.7
		c-1-0.8-1-1.8,0-2.6c0.3-0.2,0.7-0.4,1.1-0.5c6.6-3.4,10.1-8.8,10.5-16.2C590.8,260.7,591.3,260,592.3,260z M583.7,280.2
		c0.2,0.2,0.2,0.4,0.4,0.5c0.1,0.1,0.2,0.2,0.4,0.3c3.1,2.2,5.6,4.9,7.3,8.4c0.3,0.5,0.6,1,1.1,0.1c1.7-3.5,4.2-6.3,7.5-8.5
		c0.7-0.5,0.5-0.8-0.1-1.2c-3.2-2.2-5.7-5-7.4-8.6c-0.3-0.7-0.7-0.6-0.9,0c-1.7,3.6-4.3,6.5-7.6,8.7
		C584,279.9,583.9,280.1,583.7,280.2z"/>
	<path fill="#151D38" d="M757.9,529.8c-1.1-0.2-1.4-0.9-1.5-1.9c-0.1-1.1-0.1-2.2-0.3-3.3c-1.1-5.9-4.4-10.2-9.6-13
		c-0.3-0.2-0.7-0.4-1.1-0.5c-0.7-0.3-1.2-0.7-1.2-1.6c0-0.8,0.5-1.3,1.2-1.6c1.5-0.6,2.8-1.5,4.1-2.5c4.2-3.4,6.5-7.8,6.9-13.2
		c0-0.6,0-1.3,0.1-1.9c0.2-0.8,0.8-1.2,1.6-1.1c0.7,0.1,1.2,0.5,1.4,1.1c0.1,0.5,0.1,1.1,0.1,1.7c0.5,7.1,4,12.1,10.1,15.5
		c0.4,0.2,0.7,0.3,1.1,0.5c1.4,0.8,1.4,2.1,0,3c-0.3,0.2-0.7,0.3-1.1,0.5c-6.2,3.3-9.6,8.5-10.1,15.5c0,0.6,0,1.1-0.1,1.7
		C759.3,529.5,758.7,529.8,757.9,529.8z M758,519.3c0.1-0.1,0.3-0.2,0.3-0.4c1.8-3.6,4.4-6.6,7.8-8.9c0.6-0.4,0.2-0.8-0.2-1.1
		c-3.2-2.2-5.7-5.1-7.4-8.6c-0.3-0.6-0.6-0.7-0.9,0c-1.7,3.5-4.2,6.4-7.5,8.6c-0.6,0.4-0.6,0.8,0,1.3c3.2,2.2,5.7,5.1,7.5,8.6
		C757.7,518.9,757.8,519.1,758,519.3z"/>
	<path fill="#151D38" d="M1004.9,319.5c0,1.1-0.8,1.4-1.6,1.8c-2.3,1.1-4.3,2.5-6,4.4c-2.8,3.1-4.3,6.7-4.7,10.8
		c0,0.4-0.1,0.8-0.1,1.2c-0.2,1.7-0.6,2.2-1.5,2.2c-1,0-1.4-0.6-1.5-2.3c-0.5-7.5-4.1-13-10.8-16.3c-0.7-0.4-1.5-0.7-1.5-1.6
		c0-1.1,0.8-1.4,1.6-1.8c6.8-3.3,10.3-8.8,10.7-16.3c0-0.3,0-0.6,0.1-1c0.1-0.8,0.7-1.3,1.5-1.3c0.8,0,1.3,0.5,1.5,1.3
		c0.1,0.9,0.1,1.9,0.3,2.9c0.9,6.5,4.4,11.2,10.1,14.2C1003.8,318.1,1004.8,318.3,1004.9,319.5z M991.2,329.2
		c0.1-0.2,0.3-0.3,0.4-0.5c1.7-3.5,4.3-6.3,7.5-8.5c0.7-0.5,0.4-0.9-0.1-1.2c-3.2-2.2-5.6-4.9-7.3-8.4c-0.4-0.7-0.7-0.8-1.1,0
		c-1.8,3.5-4.3,6.3-7.5,8.5c-0.6,0.4-0.5,0.7,0,1.1c0.1,0.1,0.3,0.2,0.4,0.3c3,2.1,5.3,4.8,7,8C990.6,328.8,990.6,329.2,991.2,329.2
		z"/>
	<path fill="#151D38" d="M474.2,749.3c-0.9-0.2-1.5-0.8-1.5-1.8c0-1.3-0.1-2.5-0.4-3.8c-1.1-4.7-3.9-8.1-8.1-10.5
		c-0.4-0.2-0.9-0.4-1.3-0.6c-1.4-0.9-1.4-2.2,0.1-2.9c1.8-0.9,3.5-1.9,4.9-3.4c2.9-2.9,4.5-6.3,4.8-10.4c0-0.2,0-0.5,0-0.7
		c0.1-1.5,0.6-2.2,1.7-2.2c1,0,1.4,0.6,1.5,2.3c0.4,6.5,3.4,11.2,9.2,14.1c0.8,0.4,1.6,0.7,1.6,1.8c0,1.1-0.9,1.4-1.7,1.8
		c-5.6,2.9-8.7,7.5-9.1,13.9C475.8,748.6,475.3,749.4,474.2,749.3z M474.2,722.9c-0.1,0.2-0.3,0.4-0.4,0.6c-1.5,2.9-3.6,5.2-6.2,7.1
		c-0.8,0.6-0.2,0.9,0.2,1.2c2.5,1.8,4.5,4,5.9,6.8c0.3,0.7,0.7,0.8,1.1,0c1.5-2.8,3.5-5.1,6.1-6.9c0.6-0.4,0.6-0.8,0-1.2
		c-2.6-1.8-4.6-4.1-6.1-6.9C474.8,723.4,474.6,723.2,474.2,722.9z"/>
	<path fill="#151D38" d="M624.5,458.5c-0.7-0.1-1.2-0.5-1.4-1.1c-0.2-0.6,0-1.2,0.4-1.5c0.5-0.4,1.1-0.7,1.7-0.9
		c17.8-8.3,35.6-16.5,53.5-24.8c0.5-0.2,1-0.5,1.5-0.6c0.8-0.2,1.4,0.2,1.7,1c0.2,0.7,0.1,1.3-0.5,1.7c-0.5,0.3-1,0.6-1.5,0.8
		c-17.8,8.3-35.6,16.5-53.5,24.8C625.8,458.1,625.2,458.5,624.5,458.5z"/>
	<path fill="#151D38" d="M318.3,573.6c-0.1,0.7-0.2,1.3-0.8,1.6c-0.6,0.3-1.1,0.6-1.7,0.9c-17.6,8.2-35.2,16.3-52.8,24.5
		c-0.6,0.3-1.2,0.5-1.8,0.7c-0.8,0.2-1.4,0-1.8-0.8c-0.3-0.8-0.2-1.4,0.5-1.9c0.5-0.4,1.1-0.6,1.7-0.9c17.7-8.2,35.5-16.5,53.2-24.7
		c0.6-0.3,1.1-0.6,1.8-0.6C317.7,572.3,318.1,572.9,318.3,573.6z"/>
	<path fill="#151D38" d="M636.6,523.2c12.3,1.6,24.5,3.2,36.8,4.8c6.9,0.9,13.8,1.7,20.7,2.6c0.8,0.1,1.6,0.2,2.4,0.4
		c0.9,0.2,1.4,0.9,1.2,1.8c-0.1,0.8-0.7,1.3-1.5,1.2c-2-0.2-4-0.4-5.9-0.6c-16.1-2.1-32.1-4.1-48.2-6.2c-2.1-0.3-4.1-0.6-6.2-0.8
		c-0.3,0-0.6,0-0.9-0.1c-0.9-0.2-1.4-0.7-1.3-1.7c0.1-1,0.8-1.3,1.7-1.4C635.6,523.1,636.1,523.2,636.6,523.2
		C636.6,523.3,636.6,523.3,636.6,523.2z"/>
	<path fill="#151D38" d="M631.6,492.1c-1.5,0.1-2.3,0-2.5-1.1c-0.2-0.9,0.3-1.6,1.7-1.9c3.6-0.6,7.3-1.2,10.9-1.7
		c12-1.9,24-3.7,36-5.6c3.3-0.5,6.6-1,9.9-1.6c0.1,0,0.2,0,0.2,0c1.7-0.2,2.5,0.2,2.7,1.3c0.1,1-0.6,1.6-2.3,1.9
		c-8.5,1.3-17.1,2.6-25.6,4c-10,1.6-20.1,3.1-30.1,4.7C632,492.1,631.5,492.1,631.6,492.1z"/>
	<path fill="#151D38" d="M254.1,550.5c-1,0-1.7-0.3-1.8-1.4c-0.1-1.1,0.6-1.5,1.6-1.7c2.9-0.5,5.8-0.9,8.7-1.4
		c14.2-2.2,28.4-4.4,42.6-6.6c2.1-0.3,4.1-0.6,6.2-0.9c1.4-0.2,2.3,0.3,2.3,1.4c0,1.2-0.8,1.6-1.9,1.8c-7.3,1.1-14.7,2.3-22,3.4
		c-10.9,1.7-21.8,3.4-32.6,5C256.2,550.1,255.1,550.3,254.1,550.5z"/>
	<path fill="#151D38" d="M1001.2,631.3c0,0.8-0.5,1.3-1.2,1.6c-1.3,0.6-2.5,1.4-3.5,2.5c-1.8,1.9-2.6,4.1-3,6.7
		c-0.1,0.5,0,1-0.1,1.4c-0.2,0.8-0.8,1.2-1.6,1.2c-0.7-0.1-1.2-0.5-1.3-1.2c-0.1-0.7-0.2-1.4-0.3-2.1c-0.5-3.6-2.4-6.2-5.5-8
		c-0.3-0.2-0.7-0.3-1.1-0.6c-1.2-0.8-1.2-2,0-2.9c0.4-0.3,0.9-0.4,1.3-0.7c3-1.8,4.8-4.4,5.3-7.8c0.1-0.7,0.2-1.4,0.3-2.1
		c0.1-0.7,0.6-1.2,1.3-1.2c0.8-0.1,1.4,0.4,1.6,1.1c0.1,0.4,0.1,0.8,0.1,1.2c0.4,4.1,2.3,7.2,6,9.2
		C1000.3,629.9,1001.2,630.2,1001.2,631.3z M996,631.4c-0.1-0.2-0.1-0.4-0.2-0.5c-1.4-1.1-2.5-2.5-3.5-3.9c-0.3-0.4-0.6-0.2-0.9,0.2
		c-0.9,1.3-1.9,2.5-3.1,3.6c-0.5,0.4-0.5,0.7,0,1.1c1.2,1,2.3,2.2,3.1,3.6c0.4,0.6,0.7,0.5,1,0c0.9-1.3,1.9-2.5,3.1-3.6
		C995.8,631.8,995.9,631.5,996,631.4z"/>
	<path fill="#151D38" d="M283.1,345.9c-4.2,0.1-7.5-3.1-7.6-7.3c-0.1-4.2,3.3-7.7,7.5-7.7c4.1,0,7.5,3.3,7.5,7.4
		C290.5,342.4,287.2,345.8,283.1,345.9z M287.3,338.4c0-2.4-2.1-4.4-4.5-4.3c-2.4,0-4.2,2-4.2,4.3c0,2.4,1.9,4.3,4.2,4.4
		C285.1,342.9,287.3,340.7,287.3,338.4z"/>
	<path fill="#151D38" d="M630.6,757.4c0,4.2-3.2,7.5-7.4,7.5c-4.3,0-7.6-3.2-7.6-7.5c0-4.1,3.4-7.4,7.5-7.4
		C627.3,749.9,630.6,753.3,630.6,757.4z M618.8,757.4c0,2.4,2,4.5,4.4,4.5c2.2,0,4.3-2,4.4-4.3c0.1-2.3-2.1-4.5-4.4-4.4
		C620.8,753.1,618.8,755,618.8,757.4z"/>
	<path fill="#151D38" d="M728.1,580c-4.2,0-7.4-3.2-7.4-7.4c0-4.2,3.2-7.5,7.4-7.5c4.3,0,7.6,3.3,7.6,7.5
		C735.5,576.9,732.3,580,728.1,580z M728,568.3c-2.4,0.1-4.3,2-4.3,4.3c0,2.4,2.1,4.4,4.5,4.3c2.5-0.1,4.3-2,4.2-4.6
		C732.3,570,730.4,568.2,728,568.3z"/>
	<path fill="#151D38" d="M644,326.4c0.1,4.2-3.2,7.5-7.3,7.6c-4.1,0.1-7.6-3.2-7.7-7.3c-0.1-4.3,3.2-7.7,7.4-7.8
		C640.6,319,643.9,322.2,644,326.4z M636.6,322.2c-2.4,0-4.5,2-4.5,4.3c0,2.2,2.1,4.3,4.3,4.4c2.4,0.1,4.4-2,4.4-4.4
		C640.9,324.1,638.9,322.2,636.6,322.2z"/>
	<path fill="#151D38" d="M647.8,267.5c0-4.2,3.2-7.5,7.4-7.6c4.2-0.1,7.6,3.4,7.6,7.6c0,4.1-3.4,7.5-7.5,7.4
		C651.1,275,647.8,271.7,647.8,267.5z M655.3,271.8c2.4,0,4.4-2.1,4.3-4.5c-0.1-2.3-2-4.2-4.4-4.2c-2.3,0-4.3,1.9-4.4,4.2
		C650.8,269.7,652.9,271.9,655.3,271.8z"/>
	<path fill="#151D38" d="M850.4,611.7c-4.2,0-7.4-3.3-7.4-7.4c0-4.1,3.3-7.4,7.4-7.5c4.2,0,7.5,3.2,7.6,7.4
		C858,608.4,854.7,611.7,850.4,611.7z M854.8,604.3c0-2.3-1.9-4.3-4.2-4.4c-2.4-0.1-4.5,2-4.5,4.4c0,2.3,1.9,4.3,4.3,4.3
		C852.8,608.7,854.8,606.7,854.8,604.3z"/>
	<path fill="#151D38" d="M603.1,733.2c0,2-1.7,3.7-3.6,3.6c-2,0-3.6-1.6-3.5-3.7c0-2,1.5-3.4,3.4-3.5
		C601.4,729.7,603.1,731.3,603.1,733.2z M599.7,733.3c-0.1,0-0.2-0.1-0.4-0.1c-0.1,0-0.1,0.1-0.2,0.1c0.1,0.1,0.2,0.2,0.3,0.2
		C599.6,733.4,599.7,733.4,599.7,733.3z"/>
	<path fill="#151D38" d="M692.5,634c0,2.1-1.6,3.6-3.7,3.6c-1.9-0.1-3.5-1.7-3.5-3.6c0-1.9,1.6-3.5,3.5-3.5
		C690.9,630.4,692.5,631.9,692.5,634z M689,633.9c-0.1,0-0.1-0.1-0.2-0.1c-0.1,0-0.2,0.1-0.2,0.1c0.1,0.2,0.2,0.2,0.3,0.1
		C689,634,689,634,689,633.9z"/>
	<path fill="#151D38" d="M636.5,223.1c0,2-1.7,3.7-3.7,3.6c-1.9-0.1-3.5-1.7-3.4-3.6c0-1.9,1.5-3.5,3.5-3.6
		C634.9,219.5,636.5,221.1,636.5,223.1z M633.2,223.1c-0.1,0-0.3-0.1-0.4-0.1c-0.2,0.1-0.2,0.2,0,0.3c0.1,0,0.2,0.1,0.2,0
		C633.1,223.2,633.2,223.1,633.2,223.1z"/>
	<path fill="#151D38" d="M259.4,369c0,2-1.8,3.7-3.8,3.6c-2-0.1-3.4-1.6-3.4-3.6c0-2.1,1.6-3.6,3.7-3.5
		C257.8,365.5,259.4,367.1,259.4,369z M256,369c0-0.2-0.2-0.2-0.3-0.1c-0.1,0-0.1,0.1-0.2,0.1c0.1,0.1,0.2,0.2,0.2,0.2
		C255.9,369.2,255.9,369,256,369z"/>
	<path fill="#151D38" d="M851.9,519.6c0,2-1.4,3.6-3.3,3.7c-2,0.1-3.8-1.6-3.8-3.5c0-2,1.6-3.6,3.7-3.6
		C850.4,516.1,851.9,517.5,851.9,519.6z M848.2,519.9c0.1,0,0.3-0.1,0.4-0.1c-0.1-0.1-0.1-0.3-0.2-0.4c-0.1-0.1-0.3-0.1-0.4,0.1
		C848,519.7,848,519.8,848.2,519.9z"/>
	<path fill="#151D38" d="M999.4,723.6c0,2.1-1.6,3.7-3.6,3.6c-1.9-0.1-3.4-1.6-3.4-3.6c0-2.1,1.5-3.6,3.6-3.6
		C998,720.2,999.4,721.6,999.4,723.6z M995.6,723.7c0.2,0.1,0.3,0.1,0.4,0.2c0,0,0.1-0.1,0.1-0.2c-0.1-0.1-0.2-0.2-0.2-0.2
		C995.8,723.5,995.7,723.6,995.6,723.7z"/>
	<path fill="#151D38" d="M534.1,686.5c2.1,0,3.6,1.4,3.6,3.6c0,1.9-1.6,3.5-3.5,3.5c-1.9,0-3.5-1.5-3.5-3.5
		C530.6,688,532,686.5,534.1,686.5z M534.4,690.2c0-0.1-0.1-0.3-0.1-0.4c-0.1,0.1-0.3,0.1-0.4,0.2c-0.2,0.1-0.1,0.3,0.1,0.3
		C534.2,690.3,534.3,690.2,534.4,690.2z"/>
	<path fill="#151D38" d="M825.8,690.3c-0.6-0.1-1.1-0.3-1.3-0.9c-0.2-0.6-0.3-1.3,0.3-1.8c0.5-0.4,1.1-0.7,1.6-1
		c21.9-11.6,43.7-23.2,65.6-34.8c0.6-0.3,1.3-0.7,2-0.8c0.6-0.2,1.3,0,1.6,0.7c0.4,0.7,0.2,1.4-0.4,1.9c-0.4,0.4-0.9,0.6-1.4,0.9
		c-21.8,11.6-43.6,23.1-65.4,34.7C827.6,689.6,826.8,690.1,825.8,690.3z"/>
	<path fill="#151D38" d="M736.7,751.4c-5.2,0-9.3-4.1-9.2-9.3c0.1-5.1,4.1-9.1,9.2-9.1c5.2,0,9.3,4.1,9.3,9.2
		C746,747.4,741.9,751.4,736.7,751.4z"/>
	<path fill="#FFFFFF" d="M736.7,748.3c3.3,0,6.1-2.8,6.1-6.1c0-3.2-2.8-6.1-6.1-6.2c-3.3-0.1-6.3,3-6.3,6.2
		C730.6,745.5,733.5,748.3,736.7,748.3z"/>
	<path fill="#151D38" d="M342.2,289.6c3.2,0,5.5,2.5,5.3,5.8c-0.1,1.5-0.5,3-0.8,4.5c-1.9,10.3-2.1,20.6-0.5,31
		c1.9,12.2,3.7,24.5,5.5,36.7c1.8,12.1,3.7,24.2,5.5,36.3c0.2,1.2,0.4,2.4,0.5,3.6c0.3,2.8-1.6,5.3-4.3,5.8c-2.7,0.6-5.5-1-6.1-3.7
		c-0.6-2.6-0.9-5.2-1.3-7.8c-2.4-15.7-4.8-31.4-7.1-47.2c-1.3-8.6-2.7-17.2-3.8-25.9c-1.4-11.6-0.8-23.1,1.8-34.6
		C337.5,291.2,339.5,289.6,342.2,289.6z"/>
	<path fill="#FFFFFF" d="M337.5,316.8c0,3.1,0.1,6.4,0.5,9.8c1.1,9.8,2.8,19.6,4.3,29.4c2.3,15.6,4.7,31.3,7.1,46.9
		c0.3,1.8,0.5,3.6,0.9,5.4c0.3,1.3,1.2,1.9,2.4,1.8c1.2-0.1,1.9-1,1.9-2.4c0-0.6-0.1-1.1-0.2-1.7c-1.7-11.1-3.4-22.1-5-33.2
		c-1.9-12.4-3.6-24.8-5.7-37.2c-2.2-13.1-2.4-26.2,0.4-39.3c0.5-2.2,0-3.4-1.5-3.6c-1.5-0.3-2.4,0.6-2.9,2.8
		C338.3,302.5,337.5,309.5,337.5,316.8z"/>
	<path fill="#151D38" d="M542.8,301.7c0,3.1-1.9,5.4-4.5,5.7c-3.1,0.3-5.5-1.4-6.1-4.5c-0.6-3.6-1.3-7.2-2.3-10.8
		c-6.6-23.3-20.1-41.5-40.4-54.6c-0.9-0.6-1.9-1.1-2.8-1.8c-2.3-1.7-2.9-4.6-1.5-7.1c1.3-2.3,4.3-3.3,6.9-2.1
		c0.7,0.3,1.3,0.7,1.9,1.1c16.1,9.9,28.6,23.2,37.6,39.8c5.5,10.2,9.1,21.1,11.1,32.5C542.7,300.6,542.8,301.3,542.8,301.7z"/>
	<path fill="#FFFFFF" d="M539.7,301.8c-0.3-1.4-0.5-2.8-0.8-4.2c-6-29.1-21.6-51.5-46.8-67.3c-0.5-0.3-0.9-0.6-1.5-0.8
		c-1.2-0.5-2.2-0.1-2.9,1c-0.6,1-0.4,1.9,0.6,2.7c0.4,0.4,0.9,0.6,1.4,0.9c24.2,15.3,39.1,36.9,44.8,65c0.3,1.3,0.4,2.5,0.8,3.8
		c0.3,1.1,1.3,1.7,2.4,1.5C539,304,539.8,303,539.7,301.8z"/>
	<path fill="#151D38" d="M373.1,247.9c-2.2,0-3.9-0.9-4.8-2.9c-0.9-2-0.8-4.1,0.7-5.8c0.9-1.1,2.1-2,3.2-2.9
		c14.7-12.2,31.6-19.7,50.4-22.9c1.2-0.2,2.4-0.3,3.5,0.1c2.3,0.8,3.7,3,3.5,5.4c-0.2,2.4-1.8,4.4-4.2,4.8c-4,0.7-8,1.5-11.9,2.6
		c-13.5,3.9-25.5,10.4-36.1,19.6C375.5,247.6,374.8,247.9,373.1,247.9z"/>
	<path fill="#FFFFFF" d="M426.5,218.5c-0.1-1.3-1.1-2.2-2.7-2c-2.1,0.2-4.1,0.6-6.1,1.1c-16.9,3.6-31.8,11.1-44.9,22.4
		c-0.5,0.5-1.1,0.9-1.5,1.5c-0.6,0.9-0.5,1.9,0.3,2.6c0.7,0.8,1.6,1.1,2.6,0.4c0.6-0.4,1.1-0.9,1.7-1.3
		c11.5-9.9,24.6-16.7,39.4-20.4c2.9-0.7,5.9-1.4,8.9-1.8C425.7,220.7,426.6,219.7,426.5,218.5z"/>
	<path fill="#151D38" d="M982.1,468.3c5.1,0.1,9.3,4.3,9.1,9.4c-0.1,5.1-4.3,9.1-9.3,9.1c-5.1,0-9.3-4.2-9.2-9.4
		C972.8,472.3,977,468.2,982.1,468.3z"/>
	<path fill="#FFFFFF" d="M982.1,483.6c3.3,0,6.1-2.8,6.1-6.1c0-3.4-2.9-6.1-6.4-6c-3.3,0.1-6.1,3-5.9,6.2
		C976,481,978.7,483.7,982.1,483.6z"/>
	<path fill="#151D38" d="M868.8,274.7c7.9,0,14.2,6.5,14.2,14.5c0,7.9-6.5,14.3-14.4,14.3c-8,0-14.4-6.6-14.3-14.6
		C854.3,280.9,860.8,274.7,868.8,274.7z"/>
	<path fill="#FFFFFF" d="M879.8,289.1c0-6.3-4.9-11.2-11.3-11.2c-6.2,0-11.1,5-11.1,11.2c0,6.1,5,11.2,11.1,11.2
		C874.8,300.3,879.8,295.4,879.8,289.1z"/>
	<path fill="#151D38" d="M808.6,267.1c0-8,6.3-14.4,14.2-14.4c7.9,0,14.4,6.4,14.5,14.3c0.1,7.9-6.5,14.5-14.5,14.5
		C814.9,281.4,808.7,275.1,808.6,267.1z"/>
	<path fill="#FFFFFF" d="M834.2,267.2c0-6.2-5-11.3-11.2-11.3c-6.1,0-11.1,5-11.2,11.1c-0.1,6.2,5,11.4,11.2,11.4
		C829,278.3,834.1,273.2,834.2,267.2z"/>
	<path fill="#151D38" d="M863.4,252.2c-6.3,0-11.3-4.9-11.3-11.2c-0.1-6.4,5-11.4,11.4-11.4c6.2,0,11.3,5.1,11.3,11.3
		C874.8,247.1,869.7,252.2,863.4,252.2z"/>
	<path fill="#FFFFFF" d="M863.5,232.8c-4.5,0-8.3,3.7-8.3,8.2c0,4.4,3.7,8.1,8.1,8.1c4.5,0,8.2-3.5,8.3-8
		C871.7,236.6,868.1,232.8,863.5,232.8z"/>
</g>
</svg>
