<svg width="83" height="109" viewBox="0 0 83 109" fill="none" xmlns="http://www.w3.org/2000/svg">
<path d="M81.9134 20.5767C51.7334 17.4333 41.6726 0.275832 41.6726 0.275832C41.6726 0.275832 31.6126 17.4333 1.43175 20.5767C1.43175 20.5767 -8.94308 69.3667 41.6726 108.791C92.2893 69.3667 81.9134 20.5767 81.9134 20.5767Z" fill="#5CB966"/>
<path d="M54.0633 97.8H52.5099C51.3416 97.8 50.2866 97.32 49.5274 96.5483C49.5108 96.5325 49.4933 96.515 49.4774 96.4983C49.4591 96.48 49.4408 96.4625 49.4224 96.4433C49.4074 96.4283 49.3924 96.4142 49.3791 96.3992C49.3608 96.3825 49.3433 96.3642 49.3258 96.3467C49.3083 96.33 49.2916 96.3133 49.2749 96.2958C49.2583 96.2792 49.2416 96.2625 49.2241 96.2458C49.2083 96.2292 49.1908 96.2117 49.1741 96.195C49.1574 96.1783 49.1408 96.1633 49.1249 96.1458C49.1066 96.1292 49.0899 96.1108 49.0724 96.0933C49.0558 96.0775 49.0391 96.0608 49.0224 96.0442C49.0058 96.0275 48.9899 96.0108 48.9733 95.9942C48.9558 95.9775 48.9391 95.9608 48.9224 95.9433C48.9058 95.9267 48.8883 95.9092 48.8716 95.8925C48.8549 95.8758 48.8383 95.8592 48.8216 95.8417C48.8049 95.8267 48.7891 95.81 48.7724 95.7933C48.7558 95.7767 48.7374 95.7592 48.7208 95.7417C48.7033 95.725 48.6866 95.7075 48.6691 95.69C48.6533 95.675 48.6358 95.6575 48.6199 95.6417C48.6033 95.625 48.5866 95.6083 48.5708 95.5917C48.5524 95.5742 48.5349 95.5558 48.5166 95.5375C48.5016 95.5225 48.4849 95.5067 48.4699 95.4917C48.4533 95.4742 48.4366 95.4583 48.4199 95.4408C48.4024 95.4242 48.3841 95.4058 48.3666 95.3875C48.3508 95.3725 48.3349 95.3558 48.3199 95.34C48.3033 95.3233 48.2858 95.3075 48.2691 95.29L48.2674 95.2892V95.2883C48.2499 95.2708 48.2324 95.2533 48.2149 95.2358C48.1991 95.2208 48.1833 95.205 48.1683 95.1892C48.1508 95.1717 48.1333 95.155 48.1166 95.1375C48.0999 95.1208 48.0824 95.1042 48.0666 95.0875C48.0499 95.0708 48.0316 95.0542 48.0158 95.0367C47.9991 95.02 47.9833 95.0042 47.9658 94.9875C47.9491 94.9717 47.9324 94.9542 47.9166 94.9375L47.9149 94.9358L47.9124 94.9342C47.8974 94.9183 47.8816 94.9033 47.8658 94.8883C47.8483 94.8692 47.8291 94.8508 47.8108 94.8325C47.7949 94.8167 47.7791 94.8 47.7641 94.785C47.7558 94.7767 47.7474 94.7683 47.7391 94.7592C47.7316 94.7517 47.7233 94.7442 47.7158 94.7367C47.6983 94.72 47.6808 94.7025 47.6641 94.685C47.6558 94.6758 47.6466 94.6683 47.6383 94.66C47.6291 94.6492 47.6191 94.6417 47.6108 94.6317C47.5941 94.6158 47.5774 94.5992 47.5616 94.5833C47.5441 94.5667 47.5283 94.55 47.5116 94.5325C47.5024 94.525 47.4949 94.5158 47.4866 94.5075C47.4783 94.4975 47.4683 94.49 47.4599 94.4808C47.4441 94.4658 47.4283 94.4492 47.4133 94.4342C47.3966 94.4183 47.3799 94.4017 47.3633 94.385C47.3458 94.3667 47.3283 94.3483 47.3099 94.3308C47.3016 94.3233 47.2933 94.315 47.2858 94.3067C47.2766 94.2975 47.2674 94.2892 47.2583 94.2792L47.2366 94.2575C47.2283 94.2492 47.2199 94.2417 47.2124 94.2333L47.2108 94.2325V94.2317C47.1924 94.2142 47.1758 94.1967 47.1583 94.18V94.1792L47.1566 94.1783C47.1408 94.1617 47.1258 94.1467 47.1099 94.1308C47.1016 94.1233 47.0933 94.1142 47.0849 94.1058C47.0774 94.0975 47.0674 94.0892 47.0599 94.0817C47.0516 94.0717 47.0416 94.0633 47.0333 94.0542C47.0249 94.0458 47.0158 94.0367 47.0066 94.0283C46.9908 94.0125 46.9749 93.9958 46.9591 93.98L46.9558 93.9767C46.9399 93.9608 46.9249 93.9458 46.9091 93.9308L46.9083 93.93C46.8916 93.9133 46.8758 93.8967 46.8591 93.8808L46.8583 93.8792L46.8558 93.8775C46.8408 93.8625 46.8249 93.8475 46.8099 93.8308C46.7916 93.8125 46.7724 93.7942 46.7549 93.7758C46.7383 93.7592 46.7233 93.7442 46.7074 93.7283C46.6991 93.72 46.6908 93.7125 46.6824 93.7033C46.6749 93.6958 46.6666 93.6883 46.6583 93.68C46.6416 93.6633 46.6249 93.6467 46.6074 93.6283C46.5991 93.62 46.5908 93.6117 46.5816 93.6025C46.5724 93.5933 46.5633 93.5842 46.5533 93.575L46.5508 93.5717C46.5358 93.5567 46.5208 93.5417 46.5049 93.5258C46.4883 93.51 46.4716 93.4925 46.4541 93.4758C46.4466 93.4675 46.4383 93.4592 46.4299 93.4508C46.4208 93.4425 46.4124 93.4333 46.4033 93.4242C46.3874 93.4092 46.3716 93.3925 46.3566 93.3775C46.3408 93.3617 46.3233 93.345 46.3058 93.3275C46.2891 93.31 46.2708 93.2917 46.2533 93.2742C46.2449 93.2667 46.2366 93.2583 46.2283 93.2492C46.2199 93.2408 46.2108 93.2317 46.2016 93.2225C46.1941 93.2158 46.1874 93.2083 46.1799 93.2C46.1716 93.1925 46.1633 93.185 46.1558 93.1775L46.1549 93.1758L46.1533 93.175C46.1366 93.1575 46.1191 93.14 46.1024 93.1233L46.1016 93.1225L46.0999 93.1208C46.0841 93.1058 46.0691 93.09 46.0524 93.0742C46.0449 93.0667 46.0366 93.0567 46.0283 93.0483C46.0199 93.0408 46.0116 93.0333 46.0033 93.025C45.9941 93.0158 45.9858 93.0067 45.9766 92.9975C45.9683 92.9892 45.9591 92.98 45.9508 92.9717C45.9349 92.9558 45.9183 92.9392 45.9016 92.9233L45.8983 92.9192C45.8833 92.905 45.8683 92.89 45.8524 92.875L45.8516 92.8733C45.8358 92.8575 45.8183 92.84 45.8033 92.825L45.8008 92.8225L45.7991 92.8208C45.7841 92.8058 45.7691 92.79 45.7533 92.7742C45.7358 92.7567 45.7158 92.7383 45.6974 92.7183C45.6824 92.7033 45.6666 92.6875 45.6508 92.6717C45.6416 92.6633 45.6341 92.655 45.6258 92.6467C45.6174 92.6392 45.6099 92.6317 45.6024 92.6242C45.5849 92.6067 45.5674 92.5892 45.5508 92.5717C45.5416 92.5633 45.5341 92.555 45.5249 92.5458C45.5158 92.5367 45.5058 92.5283 45.4966 92.5192L45.4941 92.515C45.4791 92.5 45.4633 92.485 45.4483 92.4692C45.4316 92.4525 45.4149 92.4358 45.3983 92.4192C45.3899 92.4108 45.3816 92.4025 45.3733 92.3933C45.3641 92.385 45.3549 92.3767 45.3466 92.3675C45.3308 92.3517 45.3149 92.3367 45.2999 92.3217C45.2833 92.305 45.2666 92.2875 45.2499 92.2717C45.2324 92.2533 45.2141 92.235 45.1966 92.2183C45.1883 92.21 45.1799 92.2008 45.1724 92.1933C45.1633 92.1833 45.1541 92.1758 45.1449 92.1658C45.1366 92.1592 45.1299 92.1517 45.1233 92.1442C45.1149 92.1367 45.1074 92.1292 45.0991 92.1208L45.0983 92.1192L45.0966 92.1183C45.0799 92.1008 45.0616 92.0833 45.0458 92.0667L45.0449 92.0658L45.0433 92.0642C45.0274 92.0492 45.0124 92.0333 44.9966 92.0183C44.9883 92.0092 44.9799 92 44.9716 91.9925C44.9633 91.9842 44.9549 91.9758 44.9466 91.9675C44.9374 91.9592 44.9291 91.9508 44.9199 91.9408C44.9108 91.9317 44.9024 91.9242 44.8941 91.915C44.8774 91.8992 44.8616 91.8833 44.8458 91.8675L44.8416 91.8633C44.8266 91.8483 44.8116 91.8325 44.7966 91.8175L44.7949 91.8167C44.7783 91.8 44.7624 91.7842 44.7466 91.7675L44.7449 91.7658L44.7433 91.7642C44.7274 91.7483 44.7124 91.7333 44.6966 91.7175C44.6783 91.7 44.6599 91.6808 44.6416 91.6625C44.6258 91.6467 44.6099 91.6308 44.5941 91.615C44.5858 91.6067 44.5766 91.5983 44.5691 91.59C44.5616 91.5817 44.5533 91.5742 44.5458 91.5667C44.5283 91.55 44.5108 91.5325 44.4933 91.5158C44.4858 91.5067 44.4766 91.4975 44.4683 91.4892C44.4599 91.48 44.4491 91.4708 44.4408 91.4617L44.4374 91.4592C44.4216 91.4442 44.4066 91.4283 44.3916 91.4133C44.3749 91.3958 44.3583 91.38 44.3416 91.3625C44.3333 91.3542 44.3249 91.3458 44.3166 91.3375C44.3083 91.3292 44.2983 91.3192 44.2891 91.3108C44.2741 91.2958 44.2591 91.28 44.2433 91.265C44.2266 91.2483 44.2099 91.2325 44.1933 91.215C44.1758 91.1975 44.1574 91.1792 44.1399 91.1608C44.1316 91.1525 44.1233 91.1442 44.1149 91.1367C44.1066 91.1267 44.0966 91.1192 44.0883 91.11L44.0749 91.0958C44.0641 91.085 44.0541 91.075 44.0433 91.0642L44.0424 91.0633L44.0416 91.0625L44.0399 91.0617C44.0233 91.045 44.0049 91.0275 43.9883 91.0092H43.9874L43.9866 91.0083C43.9708 90.9925 43.9558 90.9775 43.9399 90.9608C43.9316 90.9525 43.9233 90.9442 43.9149 90.9358C43.9074 90.9275 43.8983 90.9192 43.8899 90.9108C43.8808 90.9025 43.8724 90.8933 43.8633 90.8842C43.8541 90.8767 43.8458 90.8675 43.8366 90.8583C43.8208 90.8425 43.8049 90.8275 43.7899 90.8108L43.7891 90.81L43.7858 90.8067C43.7699 90.7917 43.7558 90.7767 43.7408 90.7617L43.7399 90.7608L43.7383 90.7592C43.7216 90.7433 43.7066 90.7275 43.6899 90.7117L43.6891 90.7108L43.6874 90.71L43.6858 90.7075C43.6708 90.6925 43.6558 90.6767 43.6399 90.6608C43.6216 90.6425 43.6033 90.625 43.5849 90.6058C43.5691 90.59 43.5533 90.5742 43.5366 90.5583L43.5208 90.5425C43.5099 90.5317 43.4999 90.5208 43.4899 90.5108L43.4891 90.51C43.4716 90.4933 43.4549 90.4767 43.4374 90.4592C43.4291 90.45 43.4199 90.4417 43.4108 90.4333C43.4024 90.4233 43.3924 90.4142 43.3841 90.405L43.3808 90.4025C43.3666 90.3875 43.3508 90.3717 43.3349 90.3558C43.3183 90.3392 43.3016 90.3233 43.2841 90.3058L43.2691 90.29C43.2566 90.2783 43.245 90.2667 43.2333 90.255V90.2542C43.2183 90.2392 43.2025 90.2242 43.1875 90.2083L43.1866 90.2075C43.1699 90.1908 43.1541 90.1758 43.1375 90.1592L43.1366 90.1575C43.1191 90.1408 43.1008 90.1233 43.0841 90.105L43.0833 90.1042C43.075 90.0967 43.0674 90.0883 43.0591 90.08C43.0499 90.07 43.0399 90.0625 43.0316 90.0533L43.0183 90.0392C43.0074 90.0283 42.9966 90.0183 42.9866 90.0075H42.9858V90.0058H42.9849H42.9841V90.005C42.9666 89.9875 42.9499 89.9708 42.9324 89.9533L42.9316 89.9525L42.9308 89.9517H42.9299C42.9149 89.9358 42.8991 89.92 42.8833 89.9042L42.8674 89.8883C42.8558 89.8775 42.8449 89.8658 42.8341 89.855L42.8333 89.8542H42.8324C42.8208 89.8425 42.8099 89.8308 42.7991 89.82L42.7799 89.8017C42.7641 89.7867 42.7491 89.77 42.7333 89.7542L42.7324 89.7533L42.7291 89.75C42.7133 89.735 42.6991 89.72 42.6841 89.705L42.6833 89.7042L42.6816 89.7025C42.6658 89.6875 42.65 89.6708 42.6333 89.655V89.6542L42.6316 89.6533V89.6525L42.6308 89.6517L42.6291 89.65C42.6141 89.635 42.5991 89.6208 42.5841 89.605H42.5833C42.565 89.5858 42.5466 89.5683 42.5291 89.55H42.5283C42.5124 89.5333 42.4966 89.5175 42.4808 89.5025H42.4799C42.4724 89.4942 42.4641 89.485 42.4566 89.4767C42.4483 89.4692 42.4408 89.4617 42.4333 89.4542L42.4324 89.4533C42.4158 89.4367 42.3975 89.42 42.3816 89.4025L42.3808 89.4017C42.3724 89.3933 42.3641 89.385 42.3558 89.3775L42.3549 89.3758C42.3458 89.3658 42.3366 89.3583 42.3283 89.3492L42.3275 89.3483L42.325 89.3458C42.3091 89.33 42.2941 89.315 42.2791 89.3C42.2608 89.2825 42.2458 89.2667 42.2291 89.2492H42.2283L42.2233 89.2442C42.2141 89.235 42.205 89.2267 42.1958 89.2175L42.1775 89.1983L42.1766 89.1975C42.1608 89.1825 42.1458 89.1675 42.1308 89.1517L42.1299 89.1508C42.1133 89.135 42.0974 89.1192 42.0808 89.1017L42.0799 89.1008C42.0624 89.0833 42.045 89.0658 42.0275 89.0483H42.0266C42.0183 89.04 42.0108 89.0325 42.0033 89.0242L42.0025 89.0233C41.9933 89.0142 41.9849 89.0067 41.9758 88.9967H41.975C41.9675 88.9892 41.96 88.9817 41.9541 88.975C41.9458 88.9667 41.9374 88.9592 41.9299 88.9508L41.9291 88.95L41.9283 88.9492H41.9275V88.9483C41.91 88.9308 41.8933 88.9142 41.8758 88.8967H41.875L41.8741 88.8958L41.8733 88.8942C41.8583 88.88 41.8441 88.8658 41.8291 88.8508L41.8266 88.8483V88.8475C41.8108 88.8325 41.795 88.8167 41.78 88.8017L41.7766 88.7983C41.7608 88.7825 41.7458 88.7667 41.7308 88.7517L41.7266 88.7475L41.7241 88.7458H41.7233C41.7083 88.7292 41.6924 88.7133 41.6766 88.6975L41.6758 88.6967L41.6724 88.6942V88.6933C41.6566 88.6775 41.6424 88.6633 41.6266 88.6475H41.6258L41.625 88.6467C41.6091 88.6308 41.5933 88.6142 41.5766 88.5983L41.5758 88.5975V88.5967L41.575 88.5958L41.5733 88.595L41.5724 88.5942C41.5583 88.5792 41.545 88.5658 41.5291 88.5508L41.5266 88.5483L41.5258 88.5475C41.5108 88.5325 41.4933 88.5158 41.4775 88.4992L41.4716 88.4933V88.4925C41.455 88.4767 41.44 88.4617 41.425 88.4458L41.4241 88.445C41.4158 88.4367 41.4075 88.4283 41.4 88.42C41.3925 88.4125 41.3833 88.4042 41.3758 88.3975H41.375C41.3591 88.38 41.3416 88.3633 41.325 88.3458L41.3241 88.345C41.3158 88.3367 41.3074 88.3292 41.2991 88.32L41.2983 88.3192C41.29 88.31 41.2816 88.3025 41.2733 88.295L41.2708 88.2925V88.2917L41.2683 88.2892H41.2675C41.2541 88.2758 41.2408 88.2617 41.2275 88.2483L41.2224 88.2433H41.2216C41.2075 88.2283 41.1916 88.2142 41.1775 88.1983L41.1716 88.1925H41.1708C41.1558 88.1775 41.14 88.1608 41.1233 88.145L41.1216 88.1425L41.1199 88.1417V88.1408C41.1041 88.125 41.0891 88.11 41.0741 88.095L41.0733 88.0942C41.0575 88.0792 41.0416 88.0633 41.0266 88.0475L41.025 88.0458L41.0241 88.045H41.0233C41.0066 88.0275 40.9891 88.0108 40.9724 87.9933L40.97 87.9925V87.9917C40.9625 87.9833 40.9541 87.975 40.9458 87.9667H40.945C40.9366 87.9583 40.9283 87.95 40.9191 87.94L40.9183 87.9392L40.9058 87.9267C40.8941 87.9167 40.8841 87.9058 40.8741 87.8942H40.8733H40.8724L40.8716 87.8933V87.8925L40.8708 87.8917L40.87 87.8908C40.8533 87.875 40.8366 87.8575 40.8183 87.8408V87.84V87.8392L40.8175 87.8383L40.8166 87.8375C40.8016 87.8225 40.7875 87.8092 40.7733 87.7942L40.77 87.7917H40.7691C40.7541 87.7767 40.7391 87.76 40.7233 87.7442L40.72 87.7417V87.7408C40.7041 87.7258 40.6891 87.71 40.6741 87.695L40.6716 87.6925L40.67 87.6908L40.6675 87.6892V87.6883C40.6525 87.675 40.6383 87.6592 40.6233 87.645L40.6191 87.64L40.6158 87.6367H40.615C40.6 87.6217 40.585 87.6067 40.57 87.5917H40.5691L40.5683 87.5908V87.5892C40.5533 87.5742 40.5366 87.5575 40.5208 87.5417H40.52V87.5408L40.5191 87.54L40.5183 87.5392L40.5166 87.5383L40.5158 87.5375C40.5016 87.5233 40.4883 87.5092 40.4733 87.4942L40.4708 87.4917H40.47C40.4541 87.475 40.4366 87.4583 40.4216 87.4425L40.415 87.4367V87.4358L40.395 87.4167C40.3866 87.4067 40.3766 87.3983 40.3683 87.3892L40.3675 87.3883C40.3516 87.3725 40.335 87.3567 40.3191 87.3408V87.34C40.3016 87.3233 40.285 87.3067 40.2691 87.29L40.2683 87.2892L40.2675 87.2883C40.2591 87.28 40.2516 87.2725 40.2425 87.2633H40.2416C40.2333 87.2542 40.225 87.2467 40.2175 87.2383L40.2141 87.2358H40.2133L40.2116 87.2325L40.2108 87.2317C40.1975 87.2192 40.1841 87.205 40.1708 87.1917L40.1658 87.1875L40.165 87.1858C40.1508 87.1717 40.135 87.1567 40.1208 87.1417L40.115 87.1367C40.0991 87.12 40.0825 87.1042 40.0675 87.0883L40.0633 87.0842H40.0625L40.0433 87.0642C40.0341 87.055 40.025 87.0475 40.0166 87.0383L40.0158 87.0375C40 87.0217 39.985 87.0075 39.97 86.9908L39.9683 86.99L39.9675 86.9892V86.9883C39.95 86.9708 39.9333 86.9542 39.9158 86.9367H39.915L39.9141 86.9358L39.9133 86.9342C39.905 86.9267 39.8975 86.9183 39.8891 86.9108L39.8883 86.9092L39.8675 86.8883L39.8625 86.8833H39.8616C39.8533 86.8758 39.8475 86.8683 39.8416 86.8617C39.8333 86.8533 39.8241 86.8458 39.8175 86.8383H39.8166L39.8158 86.8375V86.8367L39.815 86.8358L39.8141 86.835H39.8133C39.7966 86.8192 39.7808 86.8017 39.7641 86.785L39.7625 86.7842L39.7616 86.7833V86.7825L39.7608 86.7817H39.76C39.7458 86.7667 39.7308 86.7517 39.7166 86.7375L39.7133 86.7358V86.7342C39.6975 86.7183 39.6816 86.7033 39.6666 86.6883L39.6658 86.6867L39.6641 86.685H39.6633C39.6475 86.6692 39.6325 86.6533 39.6166 86.6383L39.6158 86.6367L39.6133 86.635L39.6116 86.6325L39.6108 86.6317C39.5958 86.6175 39.5816 86.6033 39.5666 86.5883L39.5625 86.5842L39.5591 86.5808H39.5583C39.5433 86.5658 39.5283 86.5508 39.5133 86.535H39.5125V86.5333H39.5116C39.4958 86.5175 39.48 86.5008 39.4641 86.4858V86.485L39.4633 86.4842L39.4625 86.4833L39.4616 86.4825L39.46 86.4817V86.4808C39.4441 86.4667 39.4316 86.4525 39.4158 86.4375L39.4141 86.435L39.4133 86.4342C39.3975 86.4183 39.3808 86.4025 39.365 86.3858L39.3583 86.3792L39.3391 86.36C39.33 86.35 39.32 86.3425 39.3116 86.3325L39.3108 86.3317L39.3083 86.33C39.2933 86.3142 39.2791 86.3 39.2633 86.2842L39.2625 86.2833C39.245 86.2667 39.2291 86.2508 39.2116 86.2333L39.2108 86.2325C39.2033 86.2233 39.1941 86.2158 39.1858 86.2067L39.185 86.2058C39.1766 86.1975 39.1683 86.19 39.1608 86.1817L39.1575 86.1792L39.1566 86.1783L39.155 86.1758L39.1541 86.175C39.1408 86.1617 39.1275 86.1492 39.1133 86.135L39.1091 86.13H39.1083C39.0941 86.115 39.0783 86.1 39.0633 86.085L39.0591 86.08L39.0583 86.0792C39.0425 86.0633 39.0266 86.0467 39.01 86.0325L39.0066 86.0283C38.9991 86.02 38.9925 86.0133 38.9858 86.0075C38.9775 85.9983 38.9683 85.99 38.96 85.9817L38.9591 85.98C38.9441 85.965 38.9283 85.95 38.9125 85.9342L38.9116 85.9333L38.9108 85.9317H38.91C38.8925 85.9142 38.8766 85.8975 38.8591 85.8808L38.8583 85.88L38.8575 85.8783L38.8566 85.8775C38.8483 85.87 38.8408 85.8625 38.8325 85.8542L38.8316 85.8533C38.825 85.8458 38.8175 85.8392 38.81 85.8308L38.805 85.8275V85.8267C38.7983 85.8192 38.7891 85.81 38.7816 85.8025C38.775 85.7958 38.7666 85.7875 38.7591 85.7817L38.7583 85.78L38.7575 85.7783H38.7566C38.7408 85.7617 38.7241 85.745 38.7075 85.7292L38.7058 85.7275L38.705 85.7267V85.7258L38.7041 85.725H38.7033C38.6891 85.71 38.6741 85.695 38.6591 85.68L38.6575 85.6783L38.6566 85.6775H38.6558C38.6408 85.6617 38.6258 85.6467 38.61 85.6317L38.6083 85.63L38.6075 85.6283H38.6066V85.6275C38.5908 85.6125 38.5758 85.5967 38.5591 85.5808L38.5583 85.58L38.5566 85.5775L38.5541 85.5758V85.575C38.54 85.5608 38.525 85.5467 38.51 85.5325L38.5066 85.5275L38.5025 85.5242V85.5233C38.4875 85.5083 38.4716 85.4942 38.4575 85.4783L38.4558 85.4767H38.455C38.4466 85.4675 38.4391 85.46 38.4291 85.4508L38.4075 85.4292V85.4283L38.405 85.4258L38.4033 85.425V85.4242C38.3883 85.4092 38.3741 85.3958 38.3591 85.3808L38.3566 85.3783V85.3775C38.3408 85.3617 38.3241 85.3458 38.3075 85.3292L38.3025 85.3233L38.3016 85.3225L38.2825 85.3033C38.2733 85.2933 38.2633 85.285 38.2541 85.2758L38.2533 85.2742L38.2516 85.2725C38.2366 85.2575 38.2216 85.2425 38.2066 85.2275L38.2058 85.2267C38.1883 85.21 38.1725 85.1933 38.155 85.1758H38.1541C38.1466 85.1667 38.1383 85.1592 38.1283 85.15C38.12 85.1417 38.1116 85.1325 38.1041 85.125L38.1016 85.1225L38.1008 85.1217L38.0983 85.1192H38.0975C38.0841 85.105 38.0708 85.0917 38.0575 85.0783L38.0525 85.0742V85.0733C38.0366 85.0592 38.0216 85.0442 38.0066 85.0283L38.0025 85.0233L38.0016 85.0225C37.9858 85.0067 37.9691 84.9917 37.9541 84.975L37.95 84.9717L37.9291 84.95C37.9208 84.9417 37.9116 84.9342 37.9041 84.9258L37.9025 84.9233C37.8866 84.9083 37.8716 84.8933 37.8558 84.8767L37.8541 84.8758C37.8366 84.8583 37.8191 84.8408 37.8025 84.8242V84.8233L37.8008 84.8217C37.7925 84.8133 37.7841 84.805 37.7758 84.7975C37.7683 84.79 37.7608 84.7825 37.7533 84.7758L37.7491 84.77L37.7483 84.7692C37.7383 84.76 37.7283 84.7492 37.7183 84.7392L37.7041 84.7242L37.7016 84.7233L37.7008 84.7217C37.685 84.7058 37.6675 84.6883 37.6508 84.6725L37.6491 84.67H37.6483L37.6475 84.6683C37.6316 84.6542 37.6175 84.6392 37.6025 84.6242L37.6008 84.6217H37.6L37.5991 84.6208C37.5841 84.605 37.5683 84.5892 37.5533 84.5742C37.5358 84.5575 37.5191 84.5408 37.5033 84.525L37.5016 84.5233L37.5 84.5217L37.4983 84.52L37.4975 84.5183H37.4966C37.4833 84.5042 37.4683 84.49 37.4541 84.475L37.45 84.4708L37.4458 84.4675V84.4667C37.4308 84.4525 37.415 84.4367 37.4008 84.4217L37.3991 84.4208L37.3983 84.4192C37.3825 84.4042 37.3666 84.3883 37.3516 84.3717H37.3508L37.3483 84.37L37.3475 84.3683C37.3325 84.3533 37.3183 84.34 37.3033 84.3242L37.3008 84.3217C37.2841 84.305 37.2675 84.2892 37.2516 84.2725L37.2458 84.2667L37.2258 84.2467C37.2166 84.2375 37.2066 84.2283 37.1975 84.2183L37.195 84.2158C37.1816 84.2025 37.1675 84.1883 37.1541 84.1758L37.15 84.1708L37.1491 84.17C37.1325 84.1533 37.1158 84.1367 37.0983 84.12V84.1192C37.09 84.11 37.0808 84.1017 37.0716 84.0942C37.0641 84.0842 37.055 84.0758 37.0466 84.0683L37.045 84.0658L37.0416 84.0633L37.0408 84.0617C37.0275 84.0483 37.0141 84.035 37 84.0225L36.9966 84.0175L36.9958 84.0167C36.9808 84.0017 36.965 83.9875 36.9508 83.9725L36.9458 83.9667C36.9291 83.9508 36.9125 83.9342 36.8975 83.9183L36.8941 83.915L36.8725 83.8933C36.8641 83.8858 36.8558 83.8775 36.8475 83.8683L36.8458 83.8675C36.8308 83.8517 36.8158 83.8367 36.8 83.8217H36.7991V83.82L36.7975 83.8183C36.7808 83.8017 36.7625 83.7842 36.7458 83.7675L36.745 83.7667L36.7441 83.765C36.7358 83.7575 36.7275 83.7492 36.72 83.7408C36.7116 83.7333 36.705 83.7258 36.6975 83.7183L36.6925 83.7133C36.6858 83.7067 36.6783 83.7 36.6708 83.6925C36.6633 83.685 36.655 83.6758 36.6475 83.6683L36.6466 83.6675L36.645 83.6667V83.6658C36.6275 83.6492 36.6108 83.6325 36.5941 83.6158L36.5925 83.6133H36.5916L36.5908 83.6125C36.5766 83.5975 36.5616 83.5833 36.5466 83.5675H36.5458L36.5441 83.565L36.5425 83.5642C36.5266 83.5483 36.5125 83.5333 36.4975 83.5183H36.4966L36.4958 83.5167C36.4791 83.5017 36.4633 83.485 36.4475 83.4692V83.4683L36.445 83.4658L36.4433 83.465L36.4408 83.4625C36.4266 83.4475 36.4125 83.4342 36.3975 83.4183L36.3933 83.4142L36.39 83.4108C36.3741 83.3958 36.3591 83.3808 36.3433 83.365L36.3425 83.3633H36.3416C36.3266 83.3475 36.31 83.3308 36.2941 83.315H36.2933L36.2925 83.3133L36.29 83.3117C36.2766 83.2975 36.2616 83.2833 36.2475 83.2683L36.2466 83.2675L36.2433 83.265C36.2275 83.2492 36.2116 83.2333 36.195 83.2158H36.1941L36.1891 83.21L36.1683 83.19C36.16 83.1808 36.15 83.1717 36.1408 83.1625L36.1383 83.1592C36.1225 83.1442 36.1083 83.1292 36.0925 83.1142H36.0916C36.0758 83.0967 36.0591 83.08 36.0416 83.0633V83.0625C36.0333 83.0533 36.0241 83.0458 36.0158 83.0375C36.0083 83.0283 35.9991 83.02 35.9908 83.0117L35.99 83.0108L35.9875 83.0092L35.985 83.0058C35.9708 82.9925 35.9583 82.9792 35.9441 82.9667V82.965L35.9391 82.9608C35.925 82.9458 35.9091 82.9317 35.895 82.9158H35.8941L35.8883 82.91C35.8725 82.8942 35.8566 82.8783 35.8416 82.8625L35.8408 82.8617L35.8375 82.8583C35.83 82.8517 35.8233 82.845 35.815 82.8375C35.8083 82.8283 35.7991 82.8208 35.7908 82.8117L35.7883 82.81C35.7741 82.7958 35.7583 82.7808 35.7433 82.765V82.7642H35.7425V82.7625H35.7416L35.74 82.7617C35.7241 82.745 35.7066 82.7275 35.69 82.7108L35.6891 82.71L35.6883 82.7092L35.6866 82.7083C35.6791 82.7008 35.6716 82.6925 35.6625 82.6833C35.655 82.6758 35.6483 82.6692 35.64 82.6617L35.6358 82.6567L35.6183 82.6392C35.6091 82.63 35.6 82.6217 35.5916 82.6125L35.5908 82.6117L35.59 82.6108L35.5883 82.61L35.5875 82.6092C35.5716 82.5925 35.5541 82.5758 35.5375 82.5583L35.5358 82.5575V82.5567L35.5341 82.5558C35.52 82.5408 35.505 82.5258 35.4891 82.5117V82.5108L35.4875 82.5083L35.4858 82.5075C35.4708 82.4925 35.4558 82.4775 35.4408 82.4625V82.4617L35.4391 82.46C35.4225 82.4442 35.4066 82.4283 35.3908 82.4117L35.3891 82.4108L35.3875 82.4092L35.3866 82.4083L35.3841 82.4058C35.37 82.3908 35.3566 82.3775 35.3416 82.3625L35.3408 82.3617L35.3366 82.3575L35.3325 82.3533C35.3175 82.3392 35.3025 82.3242 35.2866 82.3075H35.2858V82.3067C35.27 82.2908 35.2541 82.2758 35.2383 82.2592H35.2375V82.2583L35.2358 82.2567L35.2333 82.2542C35.22 82.2408 35.205 82.2258 35.1908 82.2117L35.19 82.2108L35.1866 82.2083C35.1708 82.1925 35.155 82.1767 35.1383 82.16L35.1316 82.1525L35.1125 82.1342H35.1116C35.1033 82.1242 35.0941 82.1158 35.085 82.1067V82.1058L35.0816 82.1025C35.0658 82.0875 35.0508 82.0733 35.0358 82.0583V82.0567C35.0191 82.04 35.0025 82.0233 34.9858 82.0075L34.985 82.0058C34.9758 81.9967 34.9675 81.9892 34.9591 81.98C34.9508 81.9717 34.9425 81.9633 34.9341 81.9558V81.955L34.9316 81.9525L34.9283 81.9492C34.915 81.9367 34.9008 81.9225 34.8883 81.9092L34.8875 81.9083L34.8825 81.9033C34.8683 81.8892 34.8525 81.875 34.8383 81.8592L34.8375 81.8583L34.8316 81.8533C34.8158 81.8375 34.8 81.8217 34.785 81.8058L34.7841 81.805L34.7808 81.8017C34.7733 81.7942 34.7675 81.7883 34.76 81.7817V81.7808C34.7516 81.7725 34.7425 81.7642 34.7341 81.755L34.7333 81.7542H34.7325C34.7175 81.7392 34.7025 81.7233 34.6875 81.7083L34.6866 81.7075H34.6858V81.7067L34.685 81.7058H34.6841C34.6666 81.6883 34.65 81.6708 34.6333 81.6542H34.6325L34.6316 81.6525H34.6308C34.6225 81.6442 34.6141 81.635 34.6066 81.6275C34.5991 81.62 34.5916 81.6133 34.585 81.605H34.5841L34.5791 81.6L34.5591 81.5792C34.5508 81.5717 34.5416 81.5633 34.535 81.5558H34.5341V81.555H34.5333L34.5325 81.5533L34.5308 81.5517C34.5141 81.535 34.4983 81.52 34.4816 81.5025H34.4808L34.48 81.5008L34.4791 81.5L34.4775 81.4983C34.4625 81.4842 34.4483 81.4692 34.4341 81.455L34.4333 81.4542L34.4308 81.4525V81.4517L34.43 81.4508C34.4141 81.435 34.4 81.4208 34.3841 81.4058V81.405L34.3833 81.4042L34.3825 81.4033C34.3658 81.3883 34.3508 81.3717 34.3341 81.3558L34.3333 81.355L34.3325 81.3533H34.3316L34.3308 81.3525L34.33 81.3508L34.3283 81.3492C34.3125 81.3342 34.3 81.3208 34.2841 81.305H34.2833L34.28 81.3008L34.2766 81.2975C34.2608 81.2817 34.245 81.2675 34.23 81.2517L34.2291 81.25C34.2125 81.2333 34.1975 81.2183 34.1816 81.2025H34.1808V81.2017L34.1791 81.2L34.1766 81.1983C34.1625 81.1833 34.1483 81.1692 34.1333 81.1542H34.1325L34.1308 81.1517C34.1141 81.135 34.0983 81.12 34.0825 81.1033L34.0816 81.1025L34.075 81.0967L34.0558 81.0775V81.0767C34.0466 81.0667 34.0366 81.0583 34.0283 81.05V81.0492L34.025 81.0467C34.01 81.0308 33.995 81.0158 33.98 81.0017L33.9791 81.0008C33.9616 80.9825 33.9458 80.9675 33.9291 80.95H33.9283L33.9275 80.9492C33.9191 80.94 33.9108 80.9325 33.9025 80.9233C33.895 80.915 33.885 80.9067 33.8775 80.8992V80.8983L33.8741 80.8958L33.8716 80.8933C33.8583 80.88 33.845 80.8658 33.8308 80.8525V80.8517L33.8258 80.8467C33.8108 80.8325 33.7958 80.8175 33.7808 80.8025V80.8017L33.7758 80.7967C33.76 80.7808 33.7441 80.765 33.7275 80.7492L33.7266 80.7483L33.7233 80.745L33.7033 80.7242L33.7025 80.7233C33.695 80.7158 33.6858 80.7067 33.6766 80.6992V80.6975L33.6758 80.6967C33.6608 80.6825 33.6458 80.6667 33.6308 80.6517L33.63 80.6508L33.6291 80.65H33.6283L33.6275 80.6492C33.6108 80.6317 33.5941 80.615 33.5758 80.5975V80.5967H33.575V80.5958L33.5741 80.595C33.5658 80.5867 33.5575 80.5783 33.5491 80.57C33.5425 80.5633 33.5358 80.5567 33.5275 80.5483H33.5266L33.5225 80.5442C33.515 80.5367 33.5066 80.5283 33.4991 80.52C33.4916 80.5133 33.485 80.5058 33.4775 80.4983H33.4766L33.4741 80.495C33.4575 80.4792 33.4416 80.4625 33.425 80.4458H33.4241L33.4225 80.4442L33.4216 80.4433L33.4208 80.4417C33.4058 80.4267 33.3916 80.4125 33.3766 80.3983L33.3758 80.3975L33.3741 80.395L33.3733 80.3942L33.3725 80.3933C33.3575 80.3783 33.3433 80.3642 33.3275 80.3483H33.3266L33.3258 80.3475H33.325C33.31 80.3308 33.2933 80.315 33.2775 80.2983L33.2766 80.2975L33.2758 80.2967L33.2741 80.295L33.2733 80.2942L33.2716 80.2925C33.2566 80.2775 33.2425 80.2642 33.2275 80.2483H33.2266L33.2191 80.2408C33.2041 80.2258 33.1883 80.2108 33.1725 80.1933L33.1716 80.1925C33.1633 80.185 33.155 80.1758 33.1466 80.1675C33.14 80.1608 33.1325 80.1542 33.125 80.1467V80.1458L33.1208 80.1417C33.1066 80.1275 33.0916 80.1125 33.0766 80.0975L33.075 80.0967L33.0741 80.095C33.0575 80.0783 33.0416 80.0633 33.0258 80.0467L33.0241 80.0458L33.0183 80.04L32.9991 80.0208V80.02C32.99 80.01 32.9808 80.0025 32.9716 79.9925H32.9708L32.9691 79.99L32.9683 79.9892C32.9533 79.9742 32.9383 79.96 32.9233 79.9442H32.9225C32.905 79.9267 32.89 79.9108 32.8725 79.8933H32.8716L32.8558 79.8767C32.8441 79.8658 32.8341 79.855 32.8241 79.845L32.8208 79.8425L32.82 79.8408L32.8175 79.84L32.815 79.8358C32.8016 79.8225 32.7875 79.8092 32.7741 79.7958V79.795L32.7691 79.7908C32.7541 79.775 32.7391 79.7608 32.725 79.7458H32.7241L32.7191 79.74C32.7033 79.7242 32.6866 79.7083 32.6708 79.6933L32.67 79.6925C32.6625 79.6833 32.655 79.6758 32.6466 79.6675H32.6458C32.6366 79.6583 32.6291 79.6508 32.62 79.6408L32.6183 79.64L32.5983 79.6183C32.5891 79.6108 32.5816 79.6033 32.5741 79.595L32.5733 79.5942H32.5725L32.5716 79.5933L32.5708 79.5917C32.5533 79.575 32.5366 79.5583 32.5191 79.5417L32.5183 79.5408V79.54L32.5175 79.5383C32.5016 79.5225 32.4866 79.5075 32.4708 79.4925V79.4917L32.47 79.49L32.4658 79.4875C32.4558 79.4775 32.4466 79.4675 32.4366 79.4575L32.4208 79.4425H32.42V79.4417L32.4025 79.4233C32.3925 79.4133 32.3825 79.4033 32.3725 79.3933L32.3683 79.39L32.3675 79.3892L32.3633 79.3858C32.3491 79.3708 32.3341 79.3558 32.32 79.3408L32.3175 79.3383L32.3166 79.3375H32.3158C32.3008 79.3217 32.2858 79.3075 32.2708 79.2925L32.27 79.2917H32.2691V79.29C32.2525 79.2742 32.2366 79.2575 32.2208 79.2417H32.22V79.2408L32.2191 79.24L32.2175 79.2383H32.2166L32.215 79.2358C32.2 79.2208 32.1858 79.2083 32.1708 79.1925V79.1917L32.1633 79.185C32.1475 79.1692 32.1316 79.1533 32.1158 79.1375L32.115 79.1367C32.0991 79.1208 32.0841 79.105 32.0691 79.09L32.0683 79.0892C32.06 79.0808 32.0508 79.0725 32.0441 79.0642C32.0358 79.0567 32.0275 79.0492 32.02 79.0408H32.0191C32.0025 79.0233 31.985 79.0075 31.9683 78.99V78.9892C31.96 78.9808 31.9508 78.9725 31.9433 78.9642L31.9425 78.9633C31.9333 78.9542 31.9241 78.9458 31.915 78.9367V78.935L31.9125 78.9333L31.9116 78.9325C31.8966 78.9175 31.8816 78.9033 31.8666 78.8875L31.8658 78.8867C31.8491 78.87 31.8333 78.855 31.8158 78.8367H31.815L31.7983 78.8183C31.7883 78.81 31.7783 78.8 31.77 78.7908L31.7641 78.785L31.7583 78.78C31.745 78.7658 31.7316 78.7533 31.7175 78.7392V78.7383L31.7133 78.7342C31.6975 78.7192 31.6825 78.7042 31.6675 78.6892H31.6666C31.65 78.6708 31.6325 78.6533 31.6141 78.6358V78.635C31.6058 78.6275 31.5983 78.6192 31.59 78.6108L31.5891 78.61C31.58 78.6017 31.5716 78.5933 31.5633 78.5842H31.5625C31.555 78.5758 31.5458 78.5683 31.5383 78.56C31.5316 78.5533 31.5241 78.5458 31.5166 78.5383L31.5158 78.5375L31.515 78.5358L31.5141 78.535C31.4975 78.5183 31.48 78.5008 31.4625 78.4842V78.4833L31.4616 78.4825L31.4608 78.4817C31.4441 78.4658 31.43 78.4517 31.4141 78.4358V78.435C31.4058 78.4267 31.3975 78.4183 31.39 78.41C31.3816 78.4017 31.3725 78.3942 31.365 78.3858H31.3641V78.385C31.355 78.3758 31.3458 78.3683 31.3383 78.3592C31.33 78.3508 31.32 78.3408 31.3116 78.3333V78.3325C31.295 78.3158 31.2791 78.3 31.2633 78.2842L31.26 78.2808H31.2591C31.2441 78.2658 31.2291 78.2508 31.2141 78.235L31.2133 78.2342L31.2125 78.2333C31.2033 78.2258 31.195 78.2167 31.1866 78.2083L31.1641 78.185L31.1625 78.1833L31.1608 78.1825V78.1817C31.145 78.1658 31.13 78.1517 31.1141 78.1358V78.135C31.0958 78.1167 31.0775 78.0992 31.0591 78.08H31.0583C31.0433 78.0642 31.0283 78.0492 31.0116 78.0325H31.0108C31.0033 78.0242 30.9941 78.0158 30.9858 78.0067C30.9783 78 30.9708 77.9925 30.9633 77.985C30.9466 77.9675 30.9291 77.9508 30.9116 77.9325C30.9033 77.9242 30.895 77.9167 30.8858 77.9067C30.8775 77.8983 30.8675 77.8892 30.8583 77.8792H30.8575L30.8558 77.8767L30.855 77.8758C30.8391 77.8608 30.825 77.8458 30.81 77.8308H30.8091C30.7925 77.8142 30.7766 77.7975 30.7591 77.7808V77.78C30.7483 77.7692 30.7366 77.7583 30.7258 77.7467L30.7075 77.7283C30.6925 77.7133 30.6766 77.6975 30.6608 77.6825C30.645 77.6658 30.6275 77.6492 30.6116 77.6325C30.5941 77.615 30.5758 77.5967 30.5575 77.5792C30.55 77.5708 30.5416 77.5625 30.5333 77.5542C30.525 77.545 30.515 77.5375 30.5058 77.5275H30.505C30.4958 77.5167 30.4858 77.5058 30.475 77.4967L30.46 77.4825L30.4591 77.4808L30.4583 77.4792C30.4416 77.4625 30.4233 77.4442 30.4066 77.4275L30.4058 77.4267L30.405 77.4258L30.4041 77.425C30.3875 77.41 30.3733 77.395 30.3583 77.3792L30.3575 77.3783C30.3458 77.3675 30.335 77.3558 30.3241 77.345L30.3075 77.3292L30.29 77.31C30.2783 77.2992 30.2675 77.2883 30.2558 77.2767H30.255L30.2541 77.275C30.2383 77.26 30.2225 77.2433 30.2066 77.2283L30.2033 77.225L30.2025 77.2242C30.1883 77.2092 30.1725 77.1942 30.1575 77.1792L30.1566 77.1775H30.1558C30.1391 77.1608 30.1233 77.145 30.1083 77.1292L30.1058 77.1267L30.1041 77.125C30.0891 77.11 30.0741 77.095 30.0575 77.0792C30.04 77.0608 30.0208 77.0425 30.0025 77.0242C29.9875 77.0083 29.9708 76.9925 29.955 76.9758L29.9375 76.9592C29.9291 76.95 29.92 76.9417 29.9116 76.9333L29.9075 76.9283C29.89 76.9108 29.8725 76.8942 29.855 76.8758C29.8466 76.8675 29.8383 76.8592 29.8291 76.8508C29.82 76.8408 29.8108 76.8325 29.8016 76.8233L29.7983 76.82C29.7833 76.805 29.7683 76.79 29.7533 76.775L29.7525 76.7742C29.7358 76.7567 29.7191 76.7408 29.7033 76.7242C29.6941 76.7158 29.6858 76.7075 29.6783 76.6983C29.6691 76.69 29.66 76.6808 29.6508 76.6725C29.6358 76.6567 29.62 76.6408 29.605 76.6258C29.5883 76.6092 29.5708 76.5925 29.555 76.5758C29.5366 76.5583 29.5183 76.5392 29.5016 76.5225C29.4933 76.5142 29.485 76.5058 29.4766 76.4983C29.4675 76.4883 29.4583 76.48 29.4491 76.4708C29.4425 76.4642 29.4341 76.4567 29.4275 76.4492C29.4191 76.4417 29.4116 76.4333 29.4041 76.425L29.4025 76.4242L29.4016 76.4225C29.3841 76.4058 29.3666 76.3883 29.35 76.3708H29.3491L29.3483 76.3692C29.3325 76.3533 29.3166 76.3383 29.3016 76.3225C29.2933 76.3133 29.2841 76.305 29.2766 76.2975C29.2683 76.2892 29.2591 76.2808 29.2516 76.2725C29.2416 76.2633 29.2333 76.255 29.225 76.245C29.2158 76.2367 29.2075 76.2283 29.1983 76.2192C29.1825 76.2033 29.1658 76.1875 29.1508 76.1717L29.1475 76.1683C29.1316 76.1525 29.1166 76.1375 29.1008 76.1217L29.1 76.1208C29.0825 76.105 29.0675 76.0883 29.0508 76.0725L29.0491 76.07L29.0475 76.0692C29.0325 76.0533 29.0175 76.0383 29.0008 76.0225C28.9825 76.0042 28.9641 75.9858 28.9466 75.9675C28.93 75.9517 28.9141 75.935 28.8983 75.9192C28.89 75.9117 28.8816 75.9033 28.8741 75.8942C28.8666 75.8867 28.8583 75.8792 28.85 75.8717C28.8333 75.855 28.8158 75.8375 28.7991 75.82C28.7908 75.8117 28.7816 75.8025 28.7725 75.7942C28.7641 75.785 28.7541 75.7758 28.7458 75.7667L28.7425 75.7642C28.7266 75.7483 28.7116 75.7333 28.6958 75.7175C28.6791 75.7008 28.6625 75.685 28.6458 75.6675C28.6375 75.6583 28.6291 75.65 28.6208 75.6417C28.6133 75.6333 28.6033 75.6242 28.595 75.6158C28.5791 75.6008 28.5633 75.5842 28.5483 75.5692C28.5316 75.5525 28.515 75.5367 28.4983 75.5192C28.4808 75.5025 28.4625 75.4842 28.4441 75.4658C28.4358 75.4575 28.4283 75.45 28.42 75.4417C28.4116 75.4317 28.4016 75.4233 28.3933 75.4142C28.3858 75.4075 28.3783 75.3992 28.3708 75.3917C28.3633 75.3842 28.355 75.3767 28.3475 75.3683L28.3458 75.3675L28.3441 75.3658C28.3275 75.3483 28.3108 75.3317 28.2933 75.3142L28.2925 75.3133L28.2916 75.3125C28.2758 75.2967 28.2608 75.2817 28.2441 75.2658C28.2358 75.2575 28.2275 75.2492 28.2191 75.2408C28.2116 75.2325 28.2033 75.2242 28.1941 75.2158C28.1858 75.2075 28.1766 75.1983 28.1675 75.1883C28.1591 75.1808 28.1508 75.1725 28.1416 75.1625C28.1258 75.1467 28.11 75.1308 28.0933 75.115L28.09 75.1117C28.075 75.0967 28.06 75.0808 28.0441 75.0658L28.0433 75.0642C28.0266 75.0492 28.01 75.0317 27.9941 75.015L27.9925 75.0142L27.9908 75.0125C27.9758 74.9967 27.96 74.9817 27.9441 74.965C27.9266 74.9475 27.9075 74.9292 27.8891 74.9108C27.8733 74.8942 27.8575 74.8783 27.8416 74.8633C27.8333 74.855 27.8258 74.8467 27.8166 74.8375C27.8091 74.83 27.8016 74.8225 27.7933 74.815C27.7766 74.7983 27.7591 74.7808 27.7425 74.7625C27.7333 74.7542 27.725 74.7458 27.7166 74.7375C27.7075 74.7275 27.6975 74.7192 27.6891 74.71L27.6858 74.7067C27.6708 74.6917 27.655 74.6767 27.64 74.6608C27.6225 74.6442 27.6066 74.6275 27.5891 74.61C27.5808 74.6017 27.5725 74.5942 27.565 74.585C27.5558 74.5767 27.5466 74.5683 27.5375 74.5592C27.5225 74.5442 27.5066 74.5275 27.4916 74.5125C27.475 74.4958 27.4583 74.48 27.4408 74.4625C27.4241 74.445 27.4058 74.4267 27.3875 74.4092C27.3791 74.4008 27.3716 74.3933 27.3633 74.3842C27.3541 74.375 27.3458 74.3667 27.3366 74.3567C27.3283 74.35 27.3216 74.3425 27.315 74.335C27.3066 74.3275 27.2983 74.32 27.2908 74.3117L27.2891 74.3108L27.2883 74.31C27.2708 74.2925 27.2533 74.275 27.2366 74.2575H27.2358L27.235 74.2558C27.2191 74.24 27.2033 74.225 27.1883 74.2092C27.1791 74.2008 27.1708 74.1925 27.1633 74.1833C27.155 74.175 27.1458 74.1675 27.1375 74.16C27.1292 74.15 27.12 74.1417 27.1108 74.1325C27.1025 74.1242 27.0941 74.115 27.085 74.1067C27.0691 74.0908 27.0525 74.0742 27.0375 74.0583L27.0333 74.0542C27.0183 74.0392 27.0025 74.0233 26.9875 74.0083H26.9866C26.97 73.9917 26.9533 73.975 26.9375 73.9592L26.9358 73.9575L26.9341 73.955C26.9191 73.94 26.9033 73.9242 26.8875 73.9092C26.8692 73.8908 26.8508 73.8725 26.8325 73.8533C26.8166 73.8375 26.8008 73.8225 26.7858 73.8067C26.7766 73.7975 26.7683 73.79 26.7608 73.7808C26.7525 73.7725 26.7441 73.765 26.7366 73.7583C26.72 73.7408 26.7025 73.7242 26.6858 73.7067C26.6766 73.6975 26.6675 73.69 26.66 73.6808C26.6508 73.6708 26.6408 73.6625 26.6325 73.6533L26.6292 73.65C26.6133 73.635 26.5983 73.6192 26.5833 73.6042C26.5658 73.5875 26.55 73.5708 26.5325 73.5533C26.5241 73.5458 26.5167 73.5375 26.5083 73.5283C26.4992 73.52 26.49 73.5108 26.4817 73.5025C26.4658 73.4867 26.45 73.4708 26.4341 73.4558C26.4175 73.4392 26.4016 73.4225 26.3841 73.4067C26.3666 73.3883 26.3491 73.3708 26.3308 73.3525C26.3233 73.345 26.315 73.3358 26.3067 73.3275C26.2983 73.3192 26.2883 73.31 26.28 73.3008C26.2716 73.2925 26.2633 73.2842 26.2558 73.2775C26.2475 73.2692 26.24 73.2608 26.2317 73.2525C26.2142 73.2358 26.1966 73.2183 26.18 73.2017V73.2008L26.1783 73.1992C26.1616 73.1833 26.1475 73.1683 26.1308 73.1517C26.1225 73.1442 26.115 73.135 26.1067 73.1267C26.0983 73.1192 26.0891 73.11 26.0808 73.1025C26.0725 73.0942 26.0633 73.0842 26.0542 73.0758C26.0467 73.0675 26.0366 73.0583 26.0283 73.05C26.0108 73.0325 25.9941 73.015 25.9766 72.9975C25.96 72.9825 25.9458 72.9658 25.9292 72.9517C25.9217 72.9425 25.9125 72.9325 25.9033 72.9258C25.8958 72.9167 25.8867 72.9075 25.8775 72.8992C25.8617 72.8833 25.8467 72.8683 25.8317 72.8525C25.8125 72.835 25.7941 72.8158 25.7758 72.7967C25.76 72.7817 25.745 72.7658 25.7283 72.7492C25.72 72.7408 25.7108 72.7317 25.7016 72.7225C25.6933 72.7133 25.6833 72.705 25.675 72.6958C25.6592 72.6808 25.6442 72.6658 25.6292 72.65C25.6108 72.6325 25.5933 72.615 25.575 72.5958L25.5725 72.5933C25.5575 72.5783 25.5416 72.5625 25.5266 72.5475C25.51 72.5308 25.4933 72.5142 25.4758 72.4975C25.46 72.4808 25.4425 72.4633 25.4266 72.4467C25.4091 72.43 25.3925 72.4133 25.3758 72.3958C25.3583 72.3808 25.3417 72.3625 25.325 72.3458C25.3092 72.33 25.2925 72.3133 25.2758 72.2975C25.2583 72.28 25.2408 72.2625 25.2225 72.2442C25.2066 72.2292 25.19 72.2117 25.1741 72.1942C25.1566 72.1783 25.1392 72.1608 25.1208 72.1425C25.1058 72.1267 25.09 72.1108 25.075 72.0958C25.0575 72.0792 25.04 72.0617 25.0233 72.0433C25.0058 72.0275 24.9883 72.01 24.9725 71.9933C24.955 71.9758 24.9375 71.9583 24.92 71.9417C24.9042 71.9258 24.8892 71.9092 24.8733 71.8942C24.855 71.8767 24.8383 71.86 24.8217 71.8425C24.805 71.8258 24.7875 71.8092 24.7708 71.7917C24.7542 71.775 24.7375 71.7583 24.72 71.7408C24.7042 71.7258 24.6867 71.7083 24.6717 71.6917C24.6533 71.675 24.6358 71.6575 24.6183 71.6392C24.6016 71.6233 24.5858 71.6075 24.5717 71.5917C24.5525 71.5742 24.5333 71.5558 24.5158 71.5367C24.5 71.5217 24.485 71.5058 24.47 71.4908C23.6967 70.7317 23.2158 69.6758 23.2158 68.5067V50.0575C23.2158 47.7467 25.0892 45.8725 27.4008 45.8725H28.3691V36.895C28.3691 33.3792 31.2291 30.5183 34.7466 30.5183H48.5999C50.3708 30.5183 51.9749 31.245 53.1316 32.415C53.1499 32.4325 53.1658 32.4492 53.1833 32.4675C53.1999 32.4825 53.2141 32.4983 53.2308 32.5142C53.2483 32.5317 53.2658 32.5492 53.2833 32.5667C53.2991 32.5825 53.3141 32.5975 53.3291 32.6117C53.3491 32.6317 53.3674 32.6508 53.3866 32.67C53.4033 32.6858 53.4183 32.7017 53.4333 32.7167C53.4508 32.7342 53.4674 32.7508 53.4841 32.7675C53.5016 32.785 53.5191 32.8025 53.5358 32.82C53.5516 32.835 53.5674 32.8508 53.5841 32.8667C53.5999 32.8842 53.6183 32.9017 53.6349 32.9183C53.6524 32.9358 53.6691 32.9525 53.6858 32.9692C53.7024 32.9858 53.7199 33.0025 53.7358 33.0192C53.7533 33.0367 53.7699 33.0533 53.7866 33.07C53.8033 33.0867 53.8191 33.1025 53.8358 33.1183C53.8533 33.1367 53.8724 33.155 53.8891 33.1725C53.9058 33.1892 53.9216 33.205 53.9383 33.2217C53.9549 33.2383 53.9716 33.255 53.9883 33.2717C54.0049 33.2883 54.0216 33.3058 54.0391 33.3225C54.0558 33.3392 54.0724 33.355 54.0891 33.3725C54.1066 33.39 54.1233 33.4067 54.1408 33.425C54.1558 33.44 54.1724 33.4558 54.1883 33.4717C54.2049 33.4892 54.2233 33.5058 54.2399 33.5225L54.2408 33.5233C54.2558 33.5392 54.2724 33.555 54.2874 33.5708L54.2899 33.5733C54.3074 33.5908 54.3233 33.6058 54.3399 33.6233C54.3558 33.6392 54.3708 33.6542 54.3866 33.6692C54.4058 33.6883 54.4241 33.7067 54.4441 33.7275C54.4591 33.7425 54.4749 33.7575 54.4908 33.7733L54.4924 33.7758C54.5083 33.7925 54.5241 33.8075 54.5416 33.8242L54.5441 33.8283C54.5608 33.8442 54.5758 33.86 54.5924 33.8758C54.6083 33.8917 54.6241 33.9075 54.6408 33.9233L54.6441 33.9275C54.6599 33.9433 54.6758 33.9592 54.6924 33.9758L54.6933 33.9767C54.7099 33.9933 54.7266 34.0092 54.7424 34.0258C54.7591 34.0425 54.7766 34.0592 54.7924 34.0758L54.7949 34.0783C54.8108 34.0942 54.8274 34.1108 54.8433 34.1267C54.8599 34.1433 54.8766 34.1592 54.8924 34.1758C54.9099 34.1933 54.9283 34.2117 54.9466 34.23C54.9624 34.2467 54.9791 34.2617 54.9949 34.2783L54.9958 34.28C55.0116 34.295 55.0282 34.3108 55.0441 34.3267C55.0616 34.345 55.0799 34.3633 55.0974 34.3817C55.1133 34.3967 55.1299 34.4125 55.1458 34.4283L55.1491 34.4325C55.1658 34.4483 55.1816 34.465 55.1966 34.4808C55.2133 34.4958 55.2291 34.5125 55.2449 34.5275L55.2474 34.5317C55.2641 34.5475 55.2799 34.5633 55.2966 34.58L55.2982 34.5817C55.3141 34.5975 55.3291 34.6125 55.3441 34.6275L55.3466 34.6308C55.3641 34.6467 55.3808 34.6633 55.3966 34.6792V34.68C55.4124 34.6958 55.4274 34.7117 55.4433 34.7258C55.4616 34.745 55.4808 34.7633 55.4999 34.7833C55.5158 34.7992 55.5316 34.8142 55.5474 34.8308L55.5482 34.8325L55.5499 34.8333C55.5658 34.8492 55.5824 34.865 55.5974 34.8817L55.6008 34.8842V34.885C55.6166 34.9008 55.6333 34.9167 55.6491 34.9325L55.6508 34.935C55.6674 34.9508 55.6833 34.9658 55.6991 34.9817C55.7166 35 55.7349 35.0175 55.7524 35.0367C55.7682 35.0517 55.7832 35.0675 55.7982 35.0825L55.8033 35.0867C55.8191 35.1025 55.8349 35.1175 55.8491 35.1325L55.8516 35.1358H55.8524C55.8682 35.1517 55.8841 35.1675 55.8999 35.1833C55.9158 35.1992 55.9333 35.215 55.9491 35.2317C55.9674 35.25 55.9849 35.2675 56.0033 35.2858V35.2867C56.0199 35.3025 56.0358 35.3192 56.0516 35.335L56.0524 35.3358C56.0682 35.3517 56.0849 35.3675 56.1008 35.3833C56.1183 35.4017 56.1366 35.4183 56.1541 35.4375C56.1708 35.4533 56.1857 35.4692 56.2024 35.4858L56.2058 35.4892C56.2224 35.505 56.2374 35.5217 56.2541 35.5367C56.2691 35.5533 56.2858 35.5692 56.3016 35.585L56.3041 35.5875C56.3216 35.605 56.3366 35.62 56.3533 35.6367L56.3541 35.6375L56.3549 35.6383C56.3699 35.6542 56.3849 35.6692 56.4008 35.6842L56.4041 35.6875C56.4199 35.7033 56.4374 35.72 56.4533 35.7367V35.7375C56.4683 35.7525 56.4841 35.7675 56.4991 35.7825C56.5183 35.8008 56.5374 35.8208 56.5566 35.84C56.5724 35.8558 56.5883 35.8717 56.6041 35.8875L56.6049 35.8883L56.6066 35.89C56.6224 35.9058 56.6383 35.9225 56.6541 35.9375L56.6574 35.9408V35.9417C56.6733 35.9567 56.6899 35.9733 56.7066 35.9892L56.7083 35.9917C56.7241 36.0075 56.7399 36.0225 56.7557 36.0392C56.7732 36.0567 56.7916 36.0742 56.8091 36.0925C56.8241 36.1083 56.8399 36.1233 56.8557 36.1392L56.8607 36.1433C56.8757 36.1592 56.8916 36.1742 56.9057 36.19L56.9074 36.1917L56.9091 36.1925C56.9249 36.2083 56.9407 36.2242 56.9566 36.24C56.9724 36.2558 56.9899 36.2725 57.0057 36.2892C57.0232 36.3075 57.0416 36.3242 57.0591 36.3425L57.0607 36.3442C57.0757 36.3592 57.0924 36.3758 57.1074 36.3917L57.1091 36.3925C57.1249 36.4092 57.1416 36.4242 57.1566 36.4408C57.1749 36.4583 57.1932 36.4758 57.2107 36.4942C57.2266 36.5092 57.2433 36.5258 57.2591 36.5425L57.2633 36.5458C57.2783 36.5617 57.2949 36.5775 57.3107 36.5933C57.3266 36.61 57.3424 36.6258 57.3574 36.6425L57.3616 36.6442C57.3774 36.6608 57.3941 36.6767 57.4099 36.6933L57.4107 36.6942L57.4116 36.695C57.4266 36.71 57.4424 36.725 57.4566 36.74L57.4599 36.7433C57.4766 36.76 57.4941 36.7767 57.5091 36.7933H57.5099C57.5249 36.8083 57.5407 36.8242 57.5557 36.8383C57.5749 36.8575 57.5941 36.8767 57.6133 36.8967C57.6291 36.9125 57.6457 36.9283 57.6607 36.9442L57.6624 36.9458L57.6633 36.9475C57.6791 36.9625 57.6957 36.9783 57.7107 36.9942L57.7133 36.9975H57.7141C57.7299 37.0133 57.7466 37.03 57.7633 37.0467L57.7649 37.0483C57.7807 37.0642 57.7974 37.08 57.8116 37.0958C57.8299 37.1133 57.8483 37.1308 57.8658 37.1492C57.8808 37.1642 57.8966 37.18 57.9124 37.195L57.9174 37.2008C57.9324 37.2158 57.9483 37.2308 57.9624 37.2467L57.9641 37.2475L57.9658 37.2483C57.9816 37.265 57.9983 37.2808 58.0124 37.2958C58.0299 37.3133 58.0458 37.3292 58.0624 37.345C58.0808 37.3633 58.0983 37.3817 58.1158 37.3992L58.1174 37.4C58.1332 37.4158 58.1491 37.4325 58.1641 37.4475L58.1658 37.4492C58.1816 37.465 58.1974 37.4808 58.2132 37.4967C58.2316 37.515 58.2499 37.5325 58.2674 37.5508C58.2841 37.5667 58.2999 37.5825 58.3149 37.5992L58.3191 37.6025C58.3357 37.6183 58.3516 37.6342 58.3674 37.6508C58.3832 37.6667 58.3982 37.6817 58.4141 37.6975H58.4149L58.4174 37.7008C58.4341 37.7175 58.4508 37.7333 58.4666 37.75V37.7508H58.4682C58.4832 37.7667 58.4982 37.7808 58.5132 37.7967L58.5141 37.7975L58.5166 37.8C58.5333 37.8167 58.5499 37.8333 58.5658 37.8492C58.5816 37.865 58.5966 37.88 58.6124 37.8942V37.895C58.6316 37.915 58.6508 37.9342 58.6699 37.9533C58.6866 37.9692 58.7016 37.9842 58.7166 38L58.7191 38.0017L58.7199 38.0033C58.7358 38.0192 58.7516 38.0342 58.7666 38.05L58.7674 38.0508L58.7699 38.0542H58.7708C58.7866 38.0708 58.8041 38.0875 58.8191 38.1025L58.8216 38.105C58.8382 38.1208 58.8524 38.1358 58.8691 38.1517C58.8866 38.1708 58.9049 38.1875 58.9224 38.2058C58.9374 38.2217 58.9532 38.2367 58.9682 38.2517L58.9691 38.2525L58.9741 38.2575C58.9891 38.2725 59.0041 38.2875 59.0191 38.3025H59.0199L59.0216 38.305L59.0224 38.3058C59.0382 38.3217 59.0532 38.3367 59.0691 38.3525C59.0857 38.3692 59.1024 38.385 59.1182 38.4008V38.4017H59.1191C59.1366 38.4208 59.1549 38.4375 59.1724 38.4558L59.1741 38.4575C59.1891 38.4725 59.2041 38.4883 59.2208 38.5042H59.2216L59.2224 38.5058C59.2382 38.5217 59.2541 38.5367 59.2708 38.5533C59.2874 38.5725 59.3066 38.5892 59.3241 38.6075C59.3408 38.6233 59.3557 38.6383 59.3716 38.655H59.3724L59.3757 38.6592C59.3916 38.675 59.4083 38.6917 59.4241 38.7075C59.4391 38.7233 59.4549 38.7383 59.4708 38.7542V38.755L59.4741 38.7575C59.4908 38.7742 59.5066 38.79 59.5232 38.8058V38.8067L59.5249 38.8083C59.5399 38.8233 59.5549 38.8383 59.5699 38.8533L59.5707 38.8542L59.5732 38.8567H59.5741C59.5899 38.8742 59.6066 38.8892 59.6224 38.9058C59.6382 38.9217 59.6532 38.9367 59.6682 38.9508L59.6691 38.9525C59.6882 38.9708 59.7074 38.99 59.7274 39.0108C59.7424 39.0267 59.7574 39.0408 59.7724 39.0567L59.7732 39.0575L59.7749 39.0583L59.7757 39.0592L59.7766 39.06C59.7924 39.0758 59.8082 39.0908 59.8232 39.1075H59.8241L59.8274 39.1108C59.8432 39.1275 59.8599 39.1433 59.8749 39.1583L59.8757 39.1592L59.8791 39.1617C59.8932 39.1767 59.9099 39.1925 59.9257 39.2083C59.9432 39.2258 59.9616 39.2442 59.9791 39.2625C59.9941 39.2775 60.0099 39.2933 60.0249 39.3083L60.0257 39.3092L60.0299 39.3133C60.0449 39.3283 60.0607 39.3433 60.0749 39.3583L60.0757 39.3592L60.0774 39.36L60.0783 39.3617L60.0791 39.3625C60.0941 39.3775 60.1099 39.3933 60.1257 39.4092C60.1424 39.4258 60.1582 39.4417 60.1749 39.4583H60.1757C60.1932 39.4767 60.2116 39.495 60.2291 39.5133L60.2299 39.5142C60.2457 39.5292 60.2616 39.545 60.2774 39.5608V39.5617L60.2783 39.5625C60.2949 39.5775 60.3107 39.5933 60.3266 39.61H60.3274C60.3449 39.6283 60.3624 39.6458 60.3807 39.6642C60.3966 39.6792 60.4116 39.6942 60.4266 39.71L60.4283 39.7117V39.7125L60.4316 39.715H60.4324C60.4458 39.7292 60.4599 39.7433 60.4732 39.7567L60.4799 39.7633V39.7642C60.4957 39.7783 60.5107 39.7942 60.5257 39.8092C60.5416 39.825 60.5566 39.84 60.5716 39.8542C60.5916 39.8742 60.6099 39.8925 60.6299 39.9125V39.9133C60.6466 39.9292 60.6616 39.9442 60.6766 39.96L60.6791 39.9617V39.9633C60.6949 39.9783 60.7099 39.9933 60.7257 40.0083C60.7449 40.0283 60.7632 40.0475 60.7832 40.0667C60.7982 40.0817 60.8124 40.095 60.8266 40.11L60.8299 40.1125V40.1133L60.8316 40.115L60.8324 40.1158H60.8332C60.8482 40.1317 60.8624 40.1467 60.8774 40.1617L60.8799 40.1633L60.8807 40.1642L60.8832 40.1667H60.8841L60.8849 40.1683C60.8991 40.1825 60.9133 40.1967 60.9283 40.2117L60.9316 40.215L60.9324 40.2158L60.9341 40.2175C60.9499 40.2333 60.9657 40.2492 60.9816 40.2642V40.265H60.9824C60.9983 40.2825 61.0158 40.2983 61.0324 40.3158C61.0483 40.3317 61.0633 40.3467 61.0783 40.3617C61.0966 40.38 61.1141 40.3975 61.1316 40.415L61.1324 40.4158L61.1341 40.4175H61.1349V40.4183C61.1507 40.4342 61.1649 40.45 61.1807 40.4642L61.1824 40.4658C61.1999 40.4825 61.2149 40.4983 61.2324 40.5142V40.5158C61.2499 40.5333 61.2674 40.5508 61.2857 40.5692V40.57H61.2866C61.3024 40.5858 61.3166 40.6 61.3324 40.615L61.3341 40.6175L61.3349 40.6183H61.3357C61.3507 40.6342 61.3674 40.65 61.3832 40.6658V40.6675H61.3841C61.4016 40.685 61.4191 40.7025 61.4374 40.7208C61.4532 40.7358 61.4674 40.75 61.4832 40.7658V40.7667L61.4849 40.7683L61.4857 40.7692L61.4882 40.7717L61.4891 40.7725C61.5032 40.7858 61.5166 40.8 61.5299 40.8133L61.5332 40.8158L61.5366 40.8192L61.5374 40.82C61.5524 40.8358 61.5674 40.8508 61.5832 40.8658C61.5982 40.8817 61.6132 40.8967 61.6291 40.9108C61.6482 40.9308 61.6666 40.95 61.6866 40.97H61.6874C61.7032 40.9867 61.7174 41.0008 61.7332 41.0167L61.7349 41.0183L61.7357 41.0192L61.7366 41.02C61.7516 41.035 61.7666 41.0508 61.7824 41.065V41.0658C61.8016 41.0842 61.8207 41.1033 61.8399 41.1233C61.8549 41.1383 61.8691 41.1517 61.8832 41.1667L61.8866 41.17L61.8874 41.1708L61.8882 41.1717H61.8891V41.1725L61.8899 41.1733C61.9049 41.1892 61.9199 41.2033 61.9349 41.2175L61.9366 41.22L61.9374 41.2208L61.9399 41.2233L61.9407 41.2242L61.9416 41.225C61.9557 41.2392 61.9707 41.2533 61.9849 41.2683L61.9882 41.2717L61.9891 41.2725L61.9907 41.2742C62.0066 41.29 62.0224 41.305 62.0391 41.3217H62.0399C62.0549 41.3383 62.0724 41.3558 62.0882 41.3725C62.1049 41.3875 62.1199 41.4025 62.1349 41.4175C62.1532 41.4367 62.1716 41.4542 62.1891 41.4717L62.1899 41.4733L62.1907 41.4742V41.475H62.1916L62.1924 41.4758C62.2074 41.4908 62.2224 41.5058 62.2374 41.52L62.2382 41.5225C62.2549 41.5375 62.2707 41.5542 62.2866 41.5692L62.2882 41.5708L62.2891 41.5717L62.2899 41.5725C62.3066 41.59 62.3249 41.6075 62.3424 41.6267H62.3432C62.3591 41.6417 62.3732 41.6558 62.3882 41.6717L62.3907 41.6742L62.3916 41.675C62.4074 41.6908 62.4241 41.7067 62.4399 41.7225V41.7242H62.4407C62.4582 41.7417 62.4766 41.7592 62.4941 41.7775C62.5099 41.7925 62.5241 41.8067 62.5391 41.8217V41.8233L62.5407 41.8242L62.5416 41.825L62.5424 41.8258L62.5449 41.8283L62.5457 41.8292C62.5599 41.8417 62.5732 41.8567 62.5866 41.87L62.5891 41.8725L62.5924 41.8767L62.5941 41.8775C62.6091 41.8925 62.6241 41.9067 62.6391 41.9225L62.6399 41.9233C62.6549 41.9383 62.6707 41.9533 62.6849 41.9683C62.7049 41.9875 62.7241 42.0067 62.7432 42.0267L62.7441 42.0275C62.7591 42.0425 62.7749 42.0575 62.7899 42.0725L62.7916 42.075L62.7924 42.0758C62.8074 42.0917 62.8232 42.1075 62.8382 42.1217H62.8391C62.8574 42.14 62.8766 42.16 62.8949 42.1792C62.9107 42.1942 62.9266 42.2092 62.9416 42.2242C62.9591 42.2433 62.9782 42.2608 62.9949 42.2783L62.9966 42.28V42.2808H62.9974C63.0124 42.2958 63.0274 42.3108 63.0416 42.3258L63.0449 42.3292L63.0457 42.33L63.0474 42.3308C63.0632 42.3467 63.0791 42.3625 63.0949 42.3775V42.3792C63.1124 42.395 63.1291 42.4125 63.1449 42.4283C63.1616 42.4442 63.1766 42.46 63.1916 42.4742C63.2099 42.4925 63.2282 42.5108 63.2457 42.5292L63.2466 42.53V42.5308H63.2474L63.2482 42.5317V42.5325C63.2641 42.5475 63.2791 42.5625 63.2941 42.5775L63.2957 42.5783C63.3107 42.595 63.3274 42.61 63.3432 42.6258L63.3449 42.6275L63.3457 42.6283C63.3641 42.6467 63.3816 42.6642 63.3991 42.6825V42.6833L63.3999 42.6842C63.4157 42.6983 63.4299 42.7133 63.4449 42.7283L63.4474 42.7308L63.4482 42.7317C63.4641 42.7475 63.4816 42.7633 63.4966 42.78C63.5149 42.7983 63.5332 42.8158 63.5499 42.8342C63.5666 42.8492 63.5807 42.8633 63.5957 42.8792H63.5966L63.5974 42.8808L63.5982 42.8817V42.8825L63.6016 42.885L63.6024 42.8858C63.6166 42.8992 63.6299 42.9133 63.6441 42.9267L63.6466 42.93L63.6499 42.9333H63.6507C63.6657 42.9492 63.6807 42.9633 63.6957 42.9792L63.6966 42.98C63.7116 42.995 63.7266 43.0108 63.7424 43.025C63.7616 43.0442 63.7799 43.0625 63.7991 43.0825L63.7999 43.0833C63.8166 43.0992 63.8316 43.1133 63.8466 43.13L63.8482 43.1317V43.1325H63.8491C63.8649 43.1483 63.8799 43.1633 63.8949 43.1775C63.9141 43.1967 63.9324 43.2158 63.9516 43.235C63.9674 43.2508 63.9824 43.265 63.9982 43.2817C64.0157 43.2992 64.0341 43.3175 64.0524 43.3358V43.3367H64.0532L64.0541 43.3375C64.0691 43.3525 64.0832 43.3667 64.0991 43.3817L64.1024 43.385L64.1032 43.3858L64.1041 43.3875C64.1199 43.4033 64.1357 43.4183 64.1516 43.435H64.1524C64.1691 43.4525 64.1857 43.4683 64.2024 43.4858C64.2182 43.5008 64.2332 43.5158 64.2491 43.5317C64.2657 43.5492 64.2841 43.5675 64.3024 43.5858H64.3032L64.3041 43.5867V43.5875L64.3049 43.5883L64.3057 43.5892C64.3207 43.605 64.3366 43.6183 64.3507 43.6342L64.3516 43.6358C64.3674 43.6508 64.3841 43.6667 64.4007 43.6825V43.6842H64.4016C64.4199 43.7033 64.4374 43.72 64.4549 43.7383L64.4566 43.74L64.4574 43.7408C64.4724 43.755 64.4866 43.77 64.5016 43.785L64.5041 43.7875L64.5049 43.7883C64.5207 43.805 64.5374 43.8208 64.5532 43.8358V43.8367H64.5541C64.5716 43.855 64.5899 43.8733 64.6074 43.8908C64.6232 43.9067 64.6374 43.92 64.6524 43.9358L64.6532 43.9367L64.6549 43.9383L64.6582 43.9417C64.6732 43.9558 64.6866 43.97 64.6999 43.9842L64.7032 43.9867L64.7066 43.99L64.7074 43.9908C64.7224 44.0058 64.7382 44.0208 64.7524 44.0358L64.7532 44.0367C64.7682 44.0517 64.7841 44.0675 64.7982 44.0817C64.8174 44.1008 64.8366 44.12 64.8557 44.1392C64.8716 44.1558 64.8882 44.1708 64.9032 44.1867L64.9049 44.1883L64.9057 44.1892H64.9066C64.9216 44.2042 64.9366 44.22 64.9516 44.235C64.9707 44.2533 64.9899 44.2717 65.0082 44.2917C65.0241 44.3075 65.0399 44.3217 65.0557 44.3383C65.0724 44.3558 65.0907 44.3733 65.1091 44.3925H65.1099V44.3942C65.1249 44.4083 65.1399 44.4233 65.1549 44.4383L65.1582 44.4417L65.1599 44.4433L65.1616 44.4442C65.1766 44.4608 65.1924 44.4758 65.2082 44.4908V44.4917H65.2091C65.2257 44.5092 65.2424 44.525 65.2591 44.5425C65.2749 44.5575 65.2899 44.5733 65.3049 44.5883C65.3232 44.6058 65.3407 44.6233 65.3591 44.6425L65.3599 44.6433V44.6442L65.3616 44.6458H65.3624C65.3774 44.6608 65.3924 44.6758 65.4074 44.6908L65.4082 44.6917C65.4241 44.7075 65.4407 44.7242 65.4566 44.74H65.4574L65.4582 44.7408C65.4757 44.76 65.4949 44.7775 65.5116 44.7958L65.5132 44.7967L65.5141 44.7975C65.5282 44.8117 65.5432 44.8267 65.5582 44.8417L65.5607 44.8442L65.5616 44.8458C65.5782 44.8608 65.5932 44.8767 65.6099 44.8925C65.6274 44.9117 65.6466 44.9283 65.6632 44.9475C65.6791 44.9617 65.6941 44.9767 65.7091 44.9925L65.7099 44.9933L65.7107 44.9942H65.7116L65.7141 44.9983C65.7291 45.0117 65.7424 45.0258 65.7566 45.0392V45.04L65.7599 45.0433L65.7632 45.0467C65.7791 45.0617 65.7941 45.0775 65.8091 45.0925C65.8249 45.1083 65.8391 45.1225 65.8541 45.1375H65.8549C65.8749 45.1575 65.8941 45.1758 65.9124 45.1967C65.9282 45.2117 65.9449 45.2275 65.9599 45.2425V45.2433L65.9616 45.245L65.9624 45.2467C65.9782 45.2617 65.9932 45.2775 66.0091 45.2908C66.0274 45.31 66.0466 45.3292 66.0649 45.3483C66.0816 45.3642 66.0957 45.3792 66.1124 45.395C66.1291 45.4133 66.1482 45.43 66.1649 45.4483L66.1666 45.45V45.4508C66.1816 45.465 66.1957 45.48 66.2107 45.4942L66.2116 45.495L66.2149 45.4983L66.2166 45.4992L66.2174 45.5008C66.2332 45.5167 66.2491 45.5317 66.2649 45.5475C66.2816 45.565 66.2982 45.5808 66.3149 45.5983C66.3307 45.6133 66.3466 45.6292 66.3616 45.6442V45.645C66.3791 45.6633 66.3974 45.6808 66.4149 45.6983L66.4166 45.7L66.4174 45.7008L66.4182 45.7017C66.4332 45.7175 66.4482 45.7317 66.4641 45.7467V45.7475L66.4649 45.7483C66.4807 45.765 66.4982 45.7808 66.5124 45.7967L66.5149 45.7975C66.5332 45.8158 66.5507 45.8342 66.5691 45.8517V45.8533C66.5849 45.8675 66.5999 45.8833 66.6149 45.8975L66.6157 45.8983L66.6174 45.9008L66.6182 45.9017C66.6332 45.9175 66.6507 45.9342 66.6666 45.9492C66.6841 45.9675 66.7024 45.9858 66.7199 46.0033C66.7349 46.0183 66.7516 46.0333 66.7649 46.0483L66.7657 46.0492L66.7666 46.05L66.7674 46.0508L66.7682 46.0517L66.7716 46.055C66.7849 46.0692 66.7991 46.0825 66.8132 46.0958V46.0967L66.8157 46.0992L66.8199 46.1033C66.8349 46.1183 66.8499 46.1333 66.8657 46.1483C66.8807 46.1642 66.8957 46.1792 66.9116 46.1942C66.9307 46.2142 66.9499 46.2325 66.9699 46.2533C66.9849 46.2683 67.0007 46.2842 67.0166 46.2992L67.0174 46.3008L67.0182 46.3017L67.0191 46.3025V46.3033C67.0357 46.3183 67.0499 46.3333 67.0649 46.3483C67.0841 46.3667 67.1032 46.385 67.1216 46.405C67.1382 46.4217 67.1532 46.4358 67.1682 46.4508C67.1857 46.47 67.2041 46.4875 67.2216 46.505L67.2232 46.5067L67.2241 46.5075C67.2382 46.5217 67.2532 46.5367 67.2674 46.5508L67.2682 46.5517L67.2724 46.555L67.2732 46.5567L67.2741 46.5575C67.2899 46.5733 67.3057 46.5883 67.3216 46.605C67.3374 46.6225 67.3557 46.6375 67.3724 46.655C67.3874 46.6708 67.4024 46.6858 67.4174 46.7017H67.4182C67.4366 46.72 67.4549 46.7375 67.4724 46.755L67.4732 46.7567L67.4741 46.7575L67.4749 46.7583C67.4899 46.7733 67.5049 46.7883 67.5199 46.8033L67.5207 46.8042V46.805C67.5374 46.8208 67.5541 46.8367 67.5691 46.8525H67.5699L67.5707 46.8542H67.5716C67.5899 46.8725 67.6074 46.89 67.6257 46.91H67.6266C67.6407 46.9233 67.6557 46.94 67.6716 46.955L67.6741 46.9575V46.9583C67.6907 46.9742 67.7074 46.99 67.7232 47.0058C67.7416 47.0242 67.7591 47.0417 67.7774 47.06C67.7924 47.075 67.8074 47.09 67.8216 47.1058H67.8232V47.1075H67.8241L67.8249 47.1083L67.8282 47.1117C67.8424 47.125 67.8566 47.1392 67.8691 47.1525L67.8699 47.1533L67.8716 47.1558H67.8724L67.8766 47.1592C67.8916 47.175 67.9057 47.1892 67.9216 47.205V47.2058C67.9374 47.2208 67.9524 47.2367 67.9682 47.2508V47.2517C67.9882 47.2708 68.0074 47.29 68.0266 47.3092C68.0416 47.325 68.0574 47.34 68.0724 47.355V47.3567L68.0741 47.3575L68.0749 47.3583L68.0757 47.3592V47.36C68.0907 47.375 68.1057 47.39 68.1216 47.405C68.1407 47.4233 68.1591 47.4425 68.1791 47.4625C68.1941 47.4767 68.2091 47.4917 68.2241 47.5067V47.5083H68.2249C68.2424 47.5267 68.2616 47.5442 68.2782 47.5617L68.2799 47.5633L68.2807 47.5642C68.2949 47.5792 68.3099 47.5933 68.3241 47.6075L68.3257 47.6092L68.3282 47.6125H68.3291L68.3307 47.6133V47.6142C68.3466 47.63 68.3632 47.6458 68.3782 47.6608C68.3949 47.6783 68.4124 47.695 68.4282 47.7117C68.4432 47.7267 68.4591 47.7417 68.4741 47.7575H68.4749C68.4924 47.7758 68.5107 47.7942 68.5291 47.8125L68.5299 47.8133L68.5307 47.8142H68.5316C68.5466 47.83 68.5616 47.8442 68.5766 47.86L68.5774 47.8608L68.5782 47.8617C68.5932 47.8775 68.6099 47.8933 68.6257 47.9092H68.6266L68.6282 47.9108V47.9117C68.6466 47.9292 68.6641 47.9475 68.6816 47.9658H68.6832C68.6974 47.9808 68.7124 47.9958 68.7274 48.0108L68.7282 48.0117L68.7307 48.0142L68.7316 48.015C68.7474 48.0308 68.7641 48.0467 68.7799 48.0633C68.7974 48.0808 68.8157 48.0983 68.8332 48.1175C68.8482 48.1317 68.8641 48.1475 68.8782 48.1617L68.8791 48.1625L68.8799 48.1633L68.8807 48.1642L68.8816 48.165L68.8849 48.1683C68.8991 48.1817 68.9116 48.1967 68.9266 48.2092V48.21L68.9291 48.2125L68.9299 48.2133L68.9332 48.2167C68.9482 48.2317 68.9624 48.2467 68.9782 48.2617L68.9791 48.2625C68.9941 48.2775 69.0091 48.2925 69.0249 48.3075L69.0257 48.3083C69.0449 48.3275 69.0632 48.3467 69.0832 48.3667C69.0982 48.3808 69.1132 48.3967 69.1291 48.4125L69.1299 48.4133L69.1307 48.4142L69.1324 48.415V48.4158L69.1332 48.4167C69.1491 48.4325 69.1641 48.4475 69.1799 48.4633L69.1807 48.4642L69.1824 48.4658V48.4667L69.1841 48.4675L69.1849 48.4683C69.1999 48.4842 69.2157 48.4992 69.2316 48.5142V48.515L69.2324 48.5158L69.2341 48.5175C69.2499 48.5325 69.2649 48.5483 69.2816 48.5642C69.2999 48.5825 69.3174 48.6008 69.3357 48.6183V48.62H69.3366C69.3516 48.6358 69.3666 48.65 69.3816 48.6642L69.3824 48.665L69.3849 48.6683L69.3866 48.6692L69.3874 48.6708C69.4041 48.6867 69.4191 48.7017 69.4349 48.7183C69.4507 48.735 69.4682 48.7508 69.4849 48.7683C69.4999 48.7833 69.5157 48.7983 69.5316 48.8142C69.5491 48.8333 69.5674 48.8508 69.5857 48.8692H69.5866V48.87L69.5882 48.8717C69.6032 48.8867 69.6191 48.9017 69.6332 48.9167L69.6341 48.9175L69.6349 48.9183C69.6507 48.9342 69.6666 48.9492 69.6832 48.9658C69.7007 48.9842 69.7191 49.0025 69.7374 49.02V49.0217L69.7399 49.0233C69.7549 49.0383 69.7699 49.0525 69.7841 49.0675L69.7849 49.0683L69.7882 49.0708V49.0717C69.8041 49.0875 69.8207 49.1033 69.8366 49.12C69.8541 49.1375 69.8724 49.155 69.8899 49.1733C69.9049 49.1883 69.9207 49.2033 69.9349 49.2183L69.9357 49.2192L69.9366 49.22H69.9374V49.2208L69.9424 49.225C69.9557 49.2392 69.9691 49.2525 69.9824 49.2658L69.9832 49.2675L69.9857 49.2692L69.9866 49.27L69.9891 49.2733C70.0057 49.2883 70.0207 49.3033 70.0349 49.3183V49.3192C70.0516 49.3342 70.0666 49.35 70.0816 49.3642L70.0824 49.365C70.1007 49.3842 70.1199 49.4033 70.1391 49.4225C70.1549 49.4383 70.1707 49.4533 70.1857 49.4692H70.1866L70.1882 49.4708V49.4725H70.1891C70.2049 49.4883 70.2207 49.5042 70.2366 49.52L70.2399 49.5225V49.5233L70.2407 49.5242L70.2416 49.525C70.2574 49.5408 70.2724 49.5558 70.2874 49.5717L70.2882 49.5725L70.2907 49.5733C70.3057 49.5892 70.3224 49.605 70.3374 49.6208H70.3382C70.3566 49.64 70.3741 49.6567 70.3924 49.6758L70.3932 49.6767C70.4074 49.6917 70.4232 49.7058 70.4382 49.7217L70.4424 49.7258L70.4432 49.7267L70.4441 49.7275C70.4599 49.7442 70.4757 49.7592 70.4907 49.775C70.5082 49.7917 70.5249 49.8083 70.5416 49.8242C70.5566 49.84 70.5724 49.8558 70.5891 49.8708V49.8717C70.6057 49.8892 70.6232 49.9067 70.6424 49.9258V49.9267L70.6457 49.9283C70.6607 49.9433 70.6757 49.9583 70.6907 49.9733L70.6916 49.9742C70.7066 49.99 70.7232 50.0067 70.7391 50.0217V50.0233H70.7399C70.7574 50.0408 70.7749 50.0583 70.7941 50.0775L70.7957 50.08C70.8116 50.0942 70.8257 50.1092 70.8407 50.125H70.8416L70.8449 50.1275V50.1283L70.8457 50.1308C70.8632 50.145 70.8766 50.1608 70.8924 50.1758L70.8941 50.1767C70.909 50.1925 70.9249 50.2075 70.9407 50.2242L70.9432 50.2267V50.2275C70.9591 50.2433 70.9757 50.2583 70.9916 50.275L70.9924 50.2758L70.9932 50.2775C71.0091 50.2933 71.0241 50.3083 71.0391 50.3233L71.0424 50.3258L71.0432 50.3267C71.0591 50.3425 71.0766 50.3583 71.0924 50.3758C71.1082 50.3908 71.1232 50.4067 71.1366 50.4208C71.1566 50.4408 71.1757 50.46 71.1949 50.4783C71.2116 50.495 71.2266 50.51 71.2424 50.5258L71.244 50.5283H71.2449H71.2457V50.5292C71.2616 50.545 71.2774 50.56 71.2932 50.5767L71.2957 50.5792L71.2966 50.58V50.5808C71.3124 50.5958 71.3282 50.6125 71.344 50.6283H71.3449L71.3466 50.63C71.3632 50.6458 71.3782 50.6617 71.3949 50.6775V50.6783C71.4132 50.6967 71.4307 50.7142 71.4482 50.7325C71.464 50.7467 71.479 50.7625 71.494 50.7775L71.4991 50.7825H71.4999C71.5149 50.7983 71.5299 50.8133 71.5449 50.8283L71.5466 50.83L71.5474 50.8308L71.5491 50.8317C71.5649 50.8475 71.5807 50.8633 71.5957 50.8792C71.6116 50.895 71.6282 50.9108 71.644 50.9275C71.6624 50.9458 71.6807 50.9633 71.6982 50.9817L71.6991 50.9825L71.6999 50.9833C71.7149 50.9983 71.7316 51.0142 71.7474 51.03V51.0308C71.7641 51.0475 71.7799 51.0625 71.7957 51.0792V51.08C71.8141 51.0975 71.8332 51.115 71.8499 51.1333C71.8666 51.1492 71.8816 51.165 71.8974 51.1808L71.9016 51.1842V51.1858C71.9174 51.2017 71.9332 51.2167 71.9482 51.2325L71.9499 51.2333C71.9657 51.2492 71.9816 51.2642 71.9974 51.2808L71.9991 51.2833L72.0007 51.2842C72.0166 51.3 72.0324 51.315 72.0482 51.3317L72.0491 51.3325L72.0499 51.3342C72.0666 51.3492 72.0799 51.3642 72.0949 51.3792L72.0991 51.3825C72.1149 51.3992 72.1332 51.415 72.1491 51.4317C72.1641 51.4475 72.1791 51.4625 72.1949 51.4775C72.2141 51.4967 72.2324 51.5158 72.2516 51.5358C72.2674 51.5517 72.2849 51.5667 72.2999 51.5825L72.3007 51.5842L72.3024 51.5858V51.5867C72.3182 51.6025 72.3341 51.6175 72.3491 51.6325L72.3532 51.6367C72.3682 51.6525 72.3849 51.6683 72.4016 51.685L72.4032 51.6867C72.4191 51.7025 72.4366 51.7183 72.4507 51.7342V51.735C72.4691 51.7525 72.4882 51.77 72.5049 51.7883C72.5199 51.8033 72.5357 51.8192 72.5507 51.8342L72.5557 51.8392L72.5565 51.84C72.5715 51.855 72.5874 51.8692 72.6015 51.885L72.6024 51.8867L72.6049 51.8883C72.6207 51.9042 72.6365 51.9192 72.6515 51.9358C72.6682 51.9517 72.684 51.9675 72.7015 51.9842C72.719 52.0025 72.7374 52.02 72.7541 52.0383L72.7549 52.0392L72.7565 52.04C72.7724 52.055 72.7882 52.0708 72.8032 52.0875H72.8041C72.8199 52.1033 72.8366 52.12 72.8532 52.1358C72.8707 52.1533 72.889 52.1708 72.9057 52.1892C72.9224 52.205 72.9382 52.2208 72.9549 52.2375L72.9574 52.2417C72.9741 52.2567 72.989 52.2733 73.0065 52.29C73.0215 52.305 73.0382 52.3217 73.0532 52.3367L73.0574 52.34C73.0724 52.3558 73.0891 52.3717 73.1049 52.3892H73.1057L73.1074 52.39C73.1224 52.405 73.1374 52.4208 73.1532 52.4367L73.1549 52.4383C73.1716 52.455 73.1899 52.4725 73.2049 52.4883C73.2207 52.5042 73.2357 52.5192 73.2507 52.5342C73.2707 52.5533 73.2899 52.5725 73.3082 52.5925C73.3249 52.6083 73.3407 52.6233 73.3557 52.64L73.3574 52.6408L73.3582 52.6425C73.3757 52.6583 73.3915 52.6733 73.4065 52.6892L73.4091 52.6917V52.6933C73.4257 52.7092 73.4424 52.7258 73.4582 52.7417L73.4599 52.7442C73.4757 52.76 73.4916 52.775 73.5082 52.79C73.5257 52.8092 73.544 52.8267 73.5607 52.8442C73.5765 52.86 73.5924 52.8758 73.6074 52.8908L73.6124 52.8958C73.6274 52.9117 73.6424 52.9267 73.6582 52.9417L73.6591 52.9433L73.6616 52.945C73.6774 52.96 73.6924 52.9767 73.7082 52.9925C73.7249 53.0083 73.7424 53.0242 73.7574 53.04C73.7766 53.0592 73.794 53.0767 73.8107 53.095L73.8132 53.0967C73.8291 53.1108 73.844 53.1283 73.8599 53.1433L73.8607 53.145C73.8765 53.1608 73.8941 53.1767 73.9091 53.1917C73.9274 53.2108 73.9457 53.2275 73.9624 53.2467C73.9799 53.2617 73.9957 53.2783 74.0107 53.2942L74.014 53.2975C74.0307 53.3133 74.0474 53.3308 74.0624 53.3458C74.0791 53.3625 74.094 53.3775 74.1099 53.3933L74.1132 53.3958C74.129 53.4125 74.1457 53.4292 74.1616 53.445L74.1632 53.4467C74.179 53.4625 74.194 53.4767 74.209 53.4925L74.2116 53.4958C74.2291 53.5117 74.2457 53.5292 74.2616 53.545L74.2624 53.5458C74.2774 53.5608 74.2924 53.5767 74.3074 53.5908C74.3274 53.61 74.3466 53.6283 74.3657 53.6492C74.3816 53.665 74.3974 53.6808 74.4124 53.6958L74.414 53.6975L74.4166 53.6992C74.4316 53.7142 74.4482 53.73 74.4632 53.7467L74.4657 53.7492V53.75C74.4824 53.7658 74.4982 53.7825 74.514 53.7975L74.5166 53.8C74.5332 53.8167 74.549 53.8308 74.5649 53.8475C74.5815 53.8658 74.6007 53.8825 74.6174 53.9017C74.6324 53.9167 74.6499 53.9325 74.664 53.9475L74.669 53.9525C74.6832 53.9683 74.6999 53.9825 74.714 53.9983L74.7166 54L74.7182 54.0008C74.7332 54.0175 74.749 54.0325 74.7649 54.0483C74.7824 54.065 74.7982 54.0817 74.8149 54.0975C74.8315 54.115 74.8507 54.1333 74.8682 54.1517L74.8699 54.1525C74.8849 54.1683 74.9007 54.1842 74.9166 54.2L74.9174 54.2017C74.9349 54.2175 74.9499 54.2325 74.9666 54.2492C74.9832 54.2658 75.0024 54.285 75.019 54.3025C75.0365 54.3183 75.0515 54.335 75.0674 54.3508L75.0699 54.3542C75.0874 54.37 75.1032 54.3867 75.119 54.4025C75.1349 54.4175 75.1507 54.4342 75.1666 54.45L75.1699 54.4533C75.1857 54.47 75.2032 54.4858 75.2174 54.5017H75.219L75.2207 54.5033C75.2357 54.5192 75.2507 54.5342 75.2657 54.5492L75.269 54.5525C75.2857 54.5692 75.3024 54.585 75.3182 54.6017V54.6025C75.334 54.6175 75.3491 54.6325 75.3657 54.6475C75.3841 54.6675 75.4032 54.6858 75.4224 54.7058C75.4382 54.7208 75.454 54.7367 75.469 54.7525L75.4707 54.755H75.4724C75.4882 54.7717 75.5049 54.7875 75.5199 54.8033L75.5224 54.8058V54.8067C75.539 54.8225 75.5549 54.8383 75.5707 54.855L75.5741 54.8575C75.5899 54.8725 75.6057 54.8883 75.6215 54.9042C75.6382 54.9217 75.6566 54.94 75.6741 54.9583C75.6907 54.9733 75.7057 54.9892 75.7215 55.005L75.7249 55.0092C75.7415 55.0242 75.7565 55.0392 75.7715 55.0542L75.7732 55.0567L75.7741 55.0575C75.7899 55.0733 75.8057 55.0892 75.8215 55.105C75.839 55.1217 75.8549 55.1375 75.8707 55.1533C75.889 55.1717 75.9065 55.19 75.9249 55.2075L75.9257 55.2092C75.9415 55.2242 75.9574 55.2408 75.9732 55.2567L75.9749 55.2583C75.9907 55.2733 76.0065 55.29 76.0224 55.305C76.0399 55.3233 76.0582 55.3417 76.0765 55.3592C76.0924 55.3758 76.1082 55.3908 76.1241 55.4075L76.1282 55.4117C76.1441 55.4267 76.1599 55.4433 76.1757 55.4592C76.1915 55.475 76.2074 55.4908 76.2241 55.5075L76.2257 55.5092C76.2424 55.5267 76.259 55.5425 76.2749 55.5583L76.2765 55.56C76.2932 55.5767 76.3099 55.5925 76.3257 55.6092C76.3415 55.625 76.3582 55.6417 76.3757 55.6583V55.66C76.3932 55.6767 76.409 55.6933 76.4265 55.7092L76.4282 55.7108C76.4441 55.7275 76.4599 55.7433 76.4749 55.7583L76.4782 55.7617C76.4949 55.7783 76.5115 55.795 76.5265 55.8108L76.529 55.8117C76.5457 55.8292 76.5624 55.8458 76.5799 55.8625V55.8633C76.5957 55.8792 76.6116 55.895 76.6282 55.9117L76.6299 55.9133C76.6465 55.9292 76.6616 55.945 76.6782 55.9608C76.6949 55.9792 76.7132 55.9958 76.7315 56.015C76.7482 56.0317 76.7649 56.0492 76.7824 56.065C76.7982 56.0817 76.8149 56.0975 76.8299 56.1142H76.8307C76.8482 56.1317 76.8649 56.1475 76.8815 56.165C76.8974 56.1808 76.9141 56.1967 76.9282 56.2117L76.9324 56.2158C76.9474 56.2317 76.9649 56.2475 76.9807 56.2642L76.9824 56.2658C76.9982 56.2817 77.0157 56.2983 77.0307 56.3142C77.0474 56.3308 77.0632 56.3458 77.079 56.3625C77.0974 56.38 77.1149 56.3975 77.1332 56.4167C77.1499 56.4333 77.1665 56.45 77.184 56.4675C77.2007 56.4842 77.2165 56.4992 77.2324 56.5158C77.2499 56.5333 77.2665 56.5492 77.2832 56.5667C77.2999 56.5833 77.3174 56.6 77.3332 56.6175C77.3524 56.635 77.3682 56.6525 77.3865 56.67C77.4015 56.6858 77.4165 56.7008 77.4324 56.715C77.449 56.7325 77.4665 56.75 77.4849 56.7683C77.5007 56.785 77.519 56.8008 77.5349 56.8183C77.5515 56.8358 77.569 56.8517 77.5857 56.8692C77.6015 56.885 77.6199 56.9017 77.6365 56.9192C77.6524 56.9367 77.6707 56.9533 77.6874 56.97C77.7024 56.9858 77.719 57.0008 77.734 57.0175C77.7524 57.035 77.7699 57.0525 77.7874 57.0717C77.8049 57.0883 77.8215 57.105 77.839 57.1225C77.8557 57.1392 77.8715 57.1542 77.8874 57.1708C77.9049 57.1883 77.9215 57.2042 77.9374 57.2217C77.9549 57.2383 77.9724 57.255 77.9882 57.2717C78.0057 57.2883 78.0224 57.3058 78.039 57.3225C78.0565 57.3392 78.0724 57.3558 78.089 57.3733C78.1065 57.3892 78.1232 57.4067 78.1399 57.4233C78.1574 57.44 78.174 57.4567 78.1899 57.4733C78.3424 57.6242 78.4874 57.7833 78.6232 57.9483C74.729 70.2475 67.4224 84.2483 54.0633 97.8" fill="#478B4E"/>
<path d="M50.375 45.8725H32.9708V36.895C32.9708 35.9175 33.7675 35.1217 34.7467 35.1217H48.6C49.5783 35.1217 50.375 35.9175 50.375 36.895V45.8725ZM43.4708 60.2658V68.06H39.8758V60.2658C38.4 59.585 37.375 58.0925 37.375 56.3608C37.375 53.9875 39.2992 52.0633 41.6742 52.0633C44.0475 52.0633 45.9717 53.9875 45.9717 56.3608C45.9717 58.0925 44.9475 59.585 43.4708 60.2658ZM55.9458 45.8725H54.9775V36.895C54.9775 33.3792 52.1167 30.5183 48.6 30.5183H34.7467C31.2292 30.5183 28.3692 33.3792 28.3692 36.895V45.8725H27.4008C25.0892 45.8725 23.2158 47.7467 23.2158 50.0575V68.5067C23.2158 70.8175 25.0892 72.6908 27.4008 72.6908H55.9458C58.2567 72.6908 60.13 70.8175 60.13 68.5067V50.0575C60.13 47.7467 58.2567 45.8725 55.9458 45.8725Z" fill="white"/>
<path d="M75.4367 49.2742C73.3501 58.5667 69.6901 67.5267 64.5584 75.9033C58.7759 85.3425 51.0892 94.0817 41.6726 101.927C32.2567 94.0817 24.5676 85.3425 18.7867 75.9033C13.6551 67.5267 9.9959 58.5667 7.90923 49.2742C5.52923 38.6733 5.75673 30.0025 6.1809 25.3575C25.0884 22.47 36.1134 14.2992 41.6726 8.6675C47.2309 14.2992 58.2559 22.4708 77.1642 25.3575C77.5884 29.9958 77.8176 38.67 75.4367 49.2742V49.2742ZM81.9134 20.5767C51.7334 17.4333 41.6726 0.275832 41.6726 0.275832C41.6726 0.275832 31.6126 17.4333 1.43173 20.5767C1.43173 20.5767 -8.94302 69.3667 41.6726 108.791C92.2892 69.3667 81.9134 20.5767 81.9134 20.5767Z" fill="url(#paint0_linear)"/>
<path d="M41.6553 108.791C74.1994 83.4433 81.5302 54.2242 82.616 36.5908C80.3885 41.5317 77.9085 46.025 75.221 50.1083C73.1069 59.1033 69.5186 67.7792 64.5403 75.9033C58.7594 85.3425 51.0711 94.0817 41.6553 101.927C35.6037 96.885 30.2703 91.4717 25.6945 85.7442C23.7837 86.2817 21.8879 86.7567 20.0195 87.1725C25.567 94.4567 32.6445 101.772 41.6553 108.791" fill="url(#paint1_linear)"/>
<defs>
<linearGradient id="paint0_linear" x1="15.7351" y1="-12.9708" x2="125.141" y2="199.867" gradientUnits="userSpaceOnUse">
<stop stop-color="white"/>
<stop offset="1" stop-color="#211C1C"/>
</linearGradient>
<linearGradient id="paint1_linear" x1="-0.515155" y1="-38.955" x2="194.529" y2="340.485" gradientUnits="userSpaceOnUse">
<stop stop-color="white"/>
<stop offset="1" stop-color="#211C1C"/>
</linearGradient>
</defs>
</svg>
