<svg width="56" height="56" viewBox="0 0 56 56" fill="none" xmlns="http://www.w3.org/2000/svg">
<g clip-path="url(#clip0)">
<path d="M36.985 0H7.963C7.155 0 6.5 0.655 6.5 1.926V55C6.5 55.345 7.155 56 7.963 56H48.037C48.845 56 49.5 55.345 49.5 55V12.978C49.5 12.282 49.407 12.058 49.243 11.893L37.607 0.257C37.442 0.093 37.218 0 36.985 0Z" fill="#E9E9E0"/>
<path d="M48.037 56H7.963C7.155 56 6.5 55.345 6.5 54.537V39H49.5V54.537C49.5 55.345 48.845 56 48.037 56Z" fill="#42A66C"/>
<path d="M28.5 35C20.229 35 13.5 28.271 13.5 20C13.5 11.729 20.229 5 28.5 5C36.771 5 43.5 11.729 43.5 20C43.5 28.271 36.771 35 28.5 35ZM28.5 7C21.332 7 15.5 12.832 15.5 20C15.5 27.168 21.332 33 28.5 33C35.668 33 41.5 27.168 41.5 20C41.5 12.832 35.668 7 28.5 7Z" fill="#C8BDB8"/>
<path d="M37.5 0.151001V12H49.349L37.5 0.151001Z" fill="#D9D7CA"/>
<path d="M29.3887 13H22.3889C22.2857 13 22.1868 13.0503 22.1139 13.1398C22.041 13.2293 22 13.3507 22 13.4773V16.3408C22 16.4674 22.041 16.5888 22.1139 16.6783C22.1868 16.7678 22.2857 16.8181 22.3889 16.8181H23.1666C23.2698 16.8181 23.3687 16.7678 23.4416 16.6783C23.5145 16.5888 23.5555 16.4674 23.5555 16.3408V15.3863H24.9166V24.4543H23.9444C23.8413 24.4543 23.7423 24.5045 23.6694 24.594C23.5965 24.6835 23.5555 24.8049 23.5555 24.9315V25.886C23.5555 26.0126 23.5965 26.134 23.6694 26.2235C23.7423 26.313 23.8413 26.3633 23.9444 26.3633H27.8332C27.9363 26.3633 28.0352 26.313 28.1082 26.2235C28.1811 26.134 28.2221 26.0126 28.2221 25.886V24.9315C28.2221 24.8049 28.1811 24.6835 28.1082 24.594C28.0352 24.5045 27.9363 24.4543 27.8332 24.4543H26.861V15.3863H28.2221V16.3408C28.2221 16.4674 28.263 16.5888 28.336 16.6783C28.4089 16.7678 28.5078 16.8181 28.6109 16.8181H29.3887C29.4918 16.8181 29.5908 16.7678 29.6637 16.6783C29.7366 16.5888 29.7776 16.4674 29.7776 16.3408V13.4773C29.7776 13.3507 29.7366 13.2293 29.6637 13.1398C29.5908 13.0503 29.4918 13 29.3887 13V13ZM35.6108 23.0225H34.4441V16.3408H35.6108C35.9586 16.3408 36.1292 15.8245 35.8857 15.5262L33.9413 13.1399C33.8683 13.0505 33.7695 13.0002 33.6664 13.0002C33.5633 13.0002 33.4644 13.0505 33.3915 13.1399L31.4471 15.5262C31.2203 15.8039 31.3418 16.3408 31.722 16.3408H32.8886V23.0225H31.722C31.3742 23.0225 31.2038 23.5388 31.4471 23.8371L33.3915 26.2234C33.4644 26.3128 33.5633 26.3631 33.6664 26.3631C33.7695 26.3631 33.8683 26.3128 33.9413 26.2234L35.8857 23.8371C36.1124 23.5594 35.9909 23.0225 35.6108 23.0225Z" fill="#C8BDB8"/>
<path d="M21.072 43.636V44.524H18.792V52H17.7V44.524H15.408V43.636H21.072ZM28.4162 48.46C28.4162 48.668 28.4042 48.888 28.3802 49.12H23.1242C23.1642 49.768 23.3842 50.276 23.7842 50.644C24.1922 51.004 24.6842 51.184 25.2602 51.184C25.7322 51.184 26.1242 51.076 26.4362 50.86C26.7562 50.636 26.9802 50.34 27.1082 49.972H28.2842C28.1082 50.604 27.7562 51.12 27.2282 51.52C26.7002 51.912 26.0442 52.108 25.2602 52.108C24.6362 52.108 24.0762 51.968 23.5802 51.688C23.0922 51.408 22.7082 51.012 22.4282 50.5C22.1482 49.98 22.0082 49.38 22.0082 48.7C22.0082 48.02 22.1442 47.424 22.4162 46.912C22.6882 46.4 23.0682 46.008 23.5562 45.736C24.0522 45.456 24.6202 45.316 25.2602 45.316C25.8842 45.316 26.4362 45.452 26.9162 45.724C27.3962 45.996 27.7642 46.372 28.0202 46.852C28.2842 47.324 28.4162 47.86 28.4162 48.46ZM27.2882 48.232C27.2882 47.816 27.1962 47.46 27.0122 47.164C26.8282 46.86 26.5762 46.632 26.2562 46.48C25.9442 46.32 25.5962 46.24 25.2122 46.24C24.6602 46.24 24.1882 46.416 23.7962 46.768C23.4122 47.12 23.1922 47.608 23.1362 48.232H27.2882ZM33.2896 52L31.7296 49.552L30.2296 52H29.0896L31.2136 48.736L29.0896 45.424H30.3256L31.8856 47.86L33.3736 45.424H34.5136L32.4016 48.676L34.5256 52H33.2896ZM36.9318 46.324V50.2C36.9318 50.52 36.9998 50.748 37.1358 50.884C37.2718 51.012 37.5078 51.076 37.8438 51.076H38.6478V52H37.6638C37.0558 52 36.5998 51.86 36.2958 51.58C35.9918 51.3 35.8398 50.84 35.8398 50.2V46.324H34.9878V45.424H35.8398V43.768H36.9318V45.424H38.6478V46.324H36.9318Z" fill="white"/>
</g>
<defs>
<clipPath id="clip0">
<rect width="56" height="56" fill="white"/>
</clipPath>
</defs>
</svg>
