<svg width="56" height="56" viewBox="0 0 56 56" fill="none" xmlns="http://www.w3.org/2000/svg">
<path d="M36.985 0H7.963C7.155 0 6.5 0.655 6.5 1.926V55C6.5 55.345 7.155 56 7.963 56H48.037C48.845 56 49.5 55.345 49.5 55V12.978C49.5 12.282 49.407 12.058 49.243 11.893L37.607 0.257C37.442 0.093 37.218 0 36.985 0Z" fill="#E9E9E0"/>
<path d="M48.037 56H7.963C7.155 56 6.5 55.345 6.5 54.537V39H49.5V54.537C49.5 55.345 48.845 56 48.037 56Z" fill="#42A66C"/>
<path d="M24.5 28C24.334 28 24.169 27.959 24.019 27.877C23.699 27.701 23.5 27.365 23.5 27V13C23.5 12.635 23.699 12.299 24.019 12.123C24.34 11.948 24.729 11.961 25.038 12.156L36.038 19.156C36.325 19.34 36.5 19.658 36.5 20C36.5 20.342 36.325 20.66 36.037 20.844L25.037 27.844C24.874 27.947 24.687 28 24.5 28ZM25.5 14.821V25.178L33.637 20L25.5 14.821Z" fill="#C8BDB8"/>
<path d="M28.5 35C20.229 35 13.5 28.271 13.5 20C13.5 11.729 20.229 5 28.5 5C36.771 5 43.5 11.729 43.5 20C43.5 28.271 36.771 35 28.5 35ZM28.5 7C21.332 7 15.5 12.832 15.5 20C15.5 27.168 21.332 33 28.5 33C35.668 33 41.5 27.168 41.5 20C41.5 12.832 35.668 7 28.5 7Z" fill="#C8BDB8"/>
<path d="M37.5 0.151001V12H49.349L37.5 0.151001Z" fill="#D9D7CA"/>
<path d="M15.372 49.992L17.412 44.424H18.576L15.996 51H14.724L12.144 44.424H13.32L15.372 49.992ZM20.2146 43.356C20.0066 43.356 19.8306 43.284 19.6866 43.14C19.5426 42.996 19.4706 42.82 19.4706 42.612C19.4706 42.404 19.5426 42.228 19.6866 42.084C19.8306 41.94 20.0066 41.868 20.2146 41.868C20.4146 41.868 20.5826 41.94 20.7186 42.084C20.8626 42.228 20.9346 42.404 20.9346 42.612C20.9346 42.82 20.8626 42.996 20.7186 43.14C20.5826 43.284 20.4146 43.356 20.2146 43.356ZM20.7426 44.424V51H19.6506V44.424H20.7426ZM22.1957 47.688C22.1957 47.016 22.3317 46.428 22.6037 45.924C22.8757 45.412 23.2477 45.016 23.7197 44.736C24.1997 44.456 24.7357 44.316 25.3277 44.316C25.8397 44.316 26.3157 44.436 26.7557 44.676C27.1957 44.908 27.5317 45.216 27.7637 45.6V42.12H28.8677V51H27.7637V49.764C27.5477 50.156 27.2277 50.48 26.8037 50.736C26.3797 50.984 25.8837 51.108 25.3157 51.108C24.7317 51.108 24.1997 50.964 23.7197 50.676C23.2477 50.388 22.8757 49.984 22.6037 49.464C22.3317 48.944 22.1957 48.352 22.1957 47.688ZM27.7637 47.7C27.7637 47.204 27.6637 46.772 27.4637 46.404C27.2637 46.036 26.9917 45.756 26.6477 45.564C26.3117 45.364 25.9397 45.264 25.5317 45.264C25.1237 45.264 24.7517 45.36 24.4157 45.552C24.0797 45.744 23.8117 46.024 23.6117 46.392C23.4117 46.76 23.3117 47.192 23.3117 47.688C23.3117 48.192 23.4117 48.632 23.6117 49.008C23.8117 49.376 24.0797 49.66 24.4157 49.86C24.7517 50.052 25.1237 50.148 25.5317 50.148C25.9397 50.148 26.3117 50.052 26.6477 49.86C26.9917 49.66 27.2637 49.376 27.4637 49.008C27.6637 48.632 27.7637 48.196 27.7637 47.7ZM36.7131 47.46C36.7131 47.668 36.7011 47.888 36.6771 48.12H31.4211C31.4611 48.768 31.6811 49.276 32.0811 49.644C32.4891 50.004 32.9811 50.184 33.5571 50.184C34.0291 50.184 34.4211 50.076 34.7331 49.86C35.0531 49.636 35.2771 49.34 35.4051 48.972H36.5811C36.4051 49.604 36.0531 50.12 35.5251 50.52C34.9971 50.912 34.3411 51.108 33.5571 51.108C32.9331 51.108 32.3731 50.968 31.8771 50.688C31.3891 50.408 31.0051 50.012 30.7251 49.5C30.4451 48.98 30.3051 48.38 30.3051 47.7C30.3051 47.02 30.4411 46.424 30.7131 45.912C30.9851 45.4 31.3651 45.008 31.8531 44.736C32.3491 44.456 32.9171 44.316 33.5571 44.316C34.1811 44.316 34.7331 44.452 35.2131 44.724C35.6931 44.996 36.0611 45.372 36.3171 45.852C36.5811 46.324 36.7131 46.86 36.7131 47.46ZM35.5851 47.232C35.5851 46.816 35.4931 46.46 35.3091 46.164C35.1251 45.86 34.8731 45.632 34.5531 45.48C34.2411 45.32 33.8931 45.24 33.5091 45.24C32.9571 45.24 32.4851 45.416 32.0931 45.768C31.7091 46.12 31.4891 46.608 31.4331 47.232H35.5851ZM41.0225 51.108C40.4065 51.108 39.8465 50.968 39.3425 50.688C38.8465 50.408 38.4545 50.012 38.1665 49.5C37.8865 48.98 37.7465 48.38 37.7465 47.7C37.7465 47.028 37.8905 46.436 38.1785 45.924C38.4745 45.404 38.8745 45.008 39.3785 44.736C39.8825 44.456 40.4465 44.316 41.0705 44.316C41.6945 44.316 42.2585 44.456 42.7625 44.736C43.2665 45.008 43.6625 45.4 43.9505 45.912C44.2465 46.424 44.3945 47.02 44.3945 47.7C44.3945 48.38 44.2425 48.98 43.9385 49.5C43.6425 50.012 43.2385 50.408 42.7265 50.688C42.2145 50.968 41.6465 51.108 41.0225 51.108ZM41.0225 50.148C41.4145 50.148 41.7825 50.056 42.1265 49.872C42.4705 49.688 42.7465 49.412 42.9545 49.044C43.1705 48.676 43.2785 48.228 43.2785 47.7C43.2785 47.172 43.1745 46.724 42.9665 46.356C42.7585 45.988 42.4865 45.716 42.1505 45.54C41.8145 45.356 41.4505 45.264 41.0585 45.264C40.6585 45.264 40.2905 45.356 39.9545 45.54C39.6265 45.716 39.3625 45.988 39.1625 46.356C38.9625 46.724 38.8625 47.172 38.8625 47.7C38.8625 48.236 38.9585 48.688 39.1505 49.056C39.3505 49.424 39.6145 49.7 39.9425 49.884C40.2705 50.06 40.6305 50.148 41.0225 50.148Z" fill="white"/>
</svg>
