<svg width="200" height="200" viewBox="0 0 200 200" fill="none" xmlns="http://www.w3.org/2000/svg">
<rect width="200" height="200" fill="black"/>
<path d="M84.4595 127.063V78.1166C84.4559 76.5267 84.7659 74.9517 85.3719 73.4818C85.9778 72.0119 86.8677 70.676 87.9906 69.5505C89.1136 68.425 90.4475 67.5321 91.916 66.9229C93.3845 66.3136 94.9588 66 96.5486 66H109.063C110.65 66 112.223 66.3127 113.689 66.9203C115.156 67.5278 116.489 68.4182 117.611 69.5408C118.734 70.6634 119.624 71.9961 120.232 73.4628C120.839 74.9296 121.152 76.5016 121.152 78.0891V127.035" stroke="black" stroke-width="22" stroke-linecap="round" stroke-linejoin="round"/>
<path d="M84.4595 96.5486H121.152" stroke="black" stroke-width="22" stroke-linecap="round" stroke-linejoin="round"/>
<g style="mix-blend-mode:multiply" opacity="0.15">
<g style="mix-blend-mode:multiply" opacity="0.15">
<path d="M82.6221 129.95V81.0034C82.6221 74.3246 88.5809 68.9143 95.9249 68.9143H109.687C117.031 68.9143 122.99 74.3246 122.99 81.0034V129.95" stroke="#000014" stroke-width="15.16" stroke-linecap="round" stroke-linejoin="round"/>
</g>
<g style="mix-blend-mode:multiply" opacity="0.15">
<path d="M91.4131 99.4353H114.357" stroke="#000014" stroke-width="15.16" stroke-linecap="round" stroke-linejoin="round"/>
</g>
</g>
<g opacity="0.2">
<path opacity="0.2" d="M84.4595 127.063V78.1166C84.4559 76.5267 84.7659 74.9517 85.3719 73.4818C85.9778 72.0119 86.8677 70.676 87.9906 69.5505C89.1136 68.425 90.4475 67.5321 91.916 66.9229C93.3845 66.3136 94.9588 66 96.5486 66H109.063C110.65 66 112.223 66.3127 113.689 66.9203C115.156 67.5278 116.489 68.4182 117.611 69.5408C118.734 70.6634 119.624 71.9961 120.232 73.4628C120.839 74.9296 121.152 76.5016 121.152 78.0891V127.035" stroke="black" stroke-width="13.55" stroke-linecap="round" stroke-linejoin="round"/>
<path opacity="0.2" d="M92.4482 96.5486H113.308" stroke="black" stroke-width="13.55" stroke-linecap="round" stroke-linejoin="round"/>
</g>
<g opacity="0.15">
<path opacity="0.15" d="M84.4595 127.063V78.1166C84.4559 76.5267 84.7659 74.9517 85.3719 73.4818C85.9778 72.0119 86.8677 70.676 87.9906 69.5505C89.1136 68.425 90.4475 67.5321 91.916 66.9229C93.3845 66.3136 94.9588 66 96.5486 66H109.063C110.65 66 112.223 66.3127 113.689 66.9203C115.156 67.5278 116.489 68.4182 117.611 69.5408C118.734 70.6634 119.624 71.9961 120.232 73.4628C120.839 74.9296 121.152 76.5016 121.152 78.0891V127.035" stroke="black" stroke-width="11.74" stroke-linecap="round" stroke-linejoin="round"/>
<path opacity="0.15" d="M92.4482 96.5486H113.308" stroke="black" stroke-width="11.74" stroke-linecap="round" stroke-linejoin="round"/>
</g>
<g opacity="0.3">
<path opacity="0.3" d="M84.4595 127.063V78.1166C84.4559 76.5267 84.7659 74.9517 85.3719 73.4818C85.9778 72.0119 86.8677 70.676 87.9906 69.5505C89.1136 68.425 90.4475 67.5321 91.916 66.9229C93.3845 66.3136 94.9588 66 96.5486 66H109.063C110.65 66 112.223 66.3127 113.689 66.9203C115.156 67.5278 116.489 68.4182 117.611 69.5408C118.734 70.6634 119.624 71.9961 120.232 73.4628C120.839 74.9296 121.152 76.5016 121.152 78.0891V127.035" stroke="black" stroke-width="9.03" stroke-linecap="round" stroke-linejoin="round"/>
<path opacity="0.3" d="M92.4482 96.5486H113.308" stroke="black" stroke-width="9.03" stroke-linecap="round" stroke-linejoin="round"/>
</g>
<path d="M84.4595 127.063V78.1166C84.4559 76.5267 84.7659 74.9517 85.3719 73.4818C85.9778 72.0119 86.8677 70.676 87.9906 69.5505C89.1136 68.425 90.4475 67.5321 91.916 66.9229C93.3845 66.3136 94.9588 66 96.5486 66H109.063C110.65 66 112.223 66.3127 113.689 66.9203C115.156 67.5278 116.489 68.4182 117.611 69.5408C118.734 70.6634 119.624 71.9961 120.232 73.4628C120.839 74.9296 121.152 76.5016 121.152 78.0891V127.035" stroke="white" stroke-width="6.77" stroke-linecap="round" stroke-linejoin="round"/>
<path d="M92.4482 96.5486H113.308" stroke="white" stroke-width="6.77" stroke-linecap="round" stroke-linejoin="round"/>
<path d="M84.4595 127.063V78.1166C84.4559 76.5267 84.7659 74.9517 85.3719 73.4818C85.9778 72.0119 86.8677 70.676 87.9906 69.5505C89.1136 68.425 90.4475 67.5321 91.916 66.9229C93.3845 66.3136 94.9588 66 96.5486 66H109.063C110.65 66 112.223 66.3127 113.689 66.9203C115.156 67.5278 116.489 68.4182 117.611 69.5408C118.734 70.6634 119.624 71.9961 120.232 73.4628C120.839 74.9296 121.152 76.5016 121.152 78.0891V127.035" stroke="white" stroke-width="4.52" stroke-linecap="round" stroke-linejoin="round"/>
<path d="M92.4482 96.5486H113.308" stroke="white" stroke-width="4.52" stroke-linecap="round" stroke-linejoin="round"/>
<path d="M84.4595 127.063V78.1166C84.4559 76.5267 84.7659 74.9517 85.3719 73.4818C85.9778 72.0119 86.8677 70.676 87.9906 69.5505C89.1136 68.425 90.4475 67.5321 91.916 66.9229C93.3845 66.3136 94.9588 66 96.5486 66H109.063C110.65 66 112.223 66.3127 113.689 66.9203C115.156 67.5278 116.489 68.4182 117.611 69.5408C118.734 70.6634 119.624 71.9961 120.232 73.4628C120.839 74.9296 121.152 76.5016 121.152 78.0891V127.035" stroke="white" stroke-width="2.26" stroke-linecap="round" stroke-linejoin="round"/>
<path d="M92.4482 96.5486H113.308" stroke="white" stroke-width="2.26" stroke-linecap="round" stroke-linejoin="round"/>
<path d="M84.4595 127.063V78.1166C84.4559 76.5267 84.7659 74.9517 85.3719 73.4818C85.9778 72.0119 86.8677 70.676 87.9906 69.5505C89.1136 68.425 90.4475 67.5321 91.916 66.9229C93.3845 66.3136 94.9588 66 96.5486 66H109.063C110.65 66 112.223 66.3127 113.689 66.9203C115.156 67.5278 116.489 68.4182 117.611 69.5408C118.734 70.6634 119.624 71.9961 120.232 73.4628C120.839 74.9296 121.152 76.5016 121.152 78.0891V127.035" stroke="black" stroke-width="1.45" stroke-linecap="round" stroke-linejoin="round"/>
<path d="M92.4482 96.5486H113.308" stroke="black" stroke-width="1.45" stroke-linecap="round" stroke-linejoin="round"/>
</svg>
