<svg width="200" height="200" viewBox="0 0 200 200" fill="none" xmlns="http://www.w3.org/2000/svg">
<rect width="200" height="200" fill="#FFBE83"/>
<path opacity="0.9" d="M105.614 96.5486C109.661 96.5486 113.542 98.1558 116.405 101.017C119.267 103.878 120.876 107.759 120.878 111.806C120.876 115.853 119.267 119.733 116.405 122.594C113.542 125.455 109.661 127.063 105.614 127.063H84.4595" stroke="#9921CC" stroke-width="22" stroke-linecap="round" stroke-linejoin="round"/>
<path opacity="0.9" d="M84.4595 66H105.614C109.661 66 113.542 67.6072 116.405 70.4683C119.267 73.3293 120.876 77.2101 120.878 81.2571V81.2571C120.881 83.2639 120.489 85.2517 119.724 87.1068C118.958 88.9619 117.834 90.6479 116.417 92.0682C114.999 93.4885 113.315 94.6152 111.461 95.384C109.608 96.1528 107.621 96.5486 105.614 96.5486H84.4595" stroke="#9921CC" stroke-width="22" stroke-linecap="round" stroke-linejoin="round"/>
<path opacity="0.9" d="M84.4595 127.063V66.0275" stroke="#9921CC" stroke-width="22" stroke-linecap="round" stroke-linejoin="round"/>
<g style="mix-blend-mode:multiply" opacity="0.9">
<g style="mix-blend-mode:multiply" opacity="0.15">
<path d="M117.785 103.879C119.328 105.229 120.568 106.889 121.425 108.751C122.282 110.614 122.735 112.636 122.757 114.686C122.757 123.113 115.214 129.943 105.977 129.943H82.6628" stroke="#000014" stroke-width="15.16" stroke-linecap="round" stroke-linejoin="round"/>
</g>
<g style="mix-blend-mode:multiply" opacity="0.15">
<path d="M82.6423 68.9143H105.957C115.221 68.9143 122.736 75.7714 122.736 84.1714C122.736 92.5989 115.193 99.4354 105.957 99.4354H91.4537" stroke="#000014" stroke-width="15.16" stroke-linecap="round" stroke-linejoin="round"/>
</g>
<g style="mix-blend-mode:multiply" opacity="0.15">
<path d="M82.6423 129.95V68.9143" stroke="#000014" stroke-width="15.16" stroke-linecap="round" stroke-linejoin="round"/>
</g>
</g>
<g opacity="0.9">
<path opacity="0.2" d="M116.414 100.971C117.839 102.389 118.969 104.074 119.74 105.929C120.511 107.785 120.907 109.775 120.905 111.785V111.785C120.907 113.793 120.513 115.782 119.745 117.637C118.977 119.492 117.85 121.178 116.43 122.597C115.009 124.016 113.323 125.141 111.467 125.907C109.611 126.674 107.622 127.066 105.614 127.063H84.4595" stroke="#FF00FF" stroke-width="13.55" stroke-linecap="round" stroke-linejoin="round"/>
<path opacity="0.2" d="M84.4595 66H105.614C109.661 66 113.542 67.6072 116.405 70.4683C119.267 73.3293 120.876 77.2101 120.878 81.2571V81.2571C120.881 83.2639 120.489 85.2517 119.724 87.1068C118.958 88.9619 117.834 90.6479 116.417 92.0682C114.999 93.4885 113.315 94.6152 111.461 95.384C109.608 96.1528 107.621 96.5486 105.614 96.5486H92.448" stroke="#FF00FF" stroke-width="13.55" stroke-linecap="round" stroke-linejoin="round"/>
<path opacity="0.2" d="M84.4595 127.063V66.0274" stroke="#FF00FF" stroke-width="13.55" stroke-linecap="round" stroke-linejoin="round"/>
</g>
<g opacity="0.9">
<path opacity="0.15" d="M116.414 100.971C117.839 102.389 118.969 104.074 119.74 105.929C120.511 107.785 120.907 109.775 120.905 111.785V111.785C120.907 113.793 120.513 115.782 119.745 117.637C118.977 119.492 117.85 121.178 116.43 122.597C115.009 124.016 113.323 125.141 111.467 125.907C109.611 126.674 107.622 127.066 105.614 127.063H84.4595" stroke="#FF42FC" stroke-width="11.74" stroke-linecap="round" stroke-linejoin="round"/>
<path opacity="0.15" d="M84.4595 66H105.614C109.661 66 113.542 67.6072 116.405 70.4683C119.267 73.3293 120.876 77.2101 120.878 81.2571V81.2571C120.881 83.2639 120.489 85.2517 119.724 87.1068C118.958 88.9619 117.834 90.6479 116.417 92.0682C114.999 93.4885 113.315 94.6152 111.461 95.384C109.608 96.1528 107.621 96.5486 105.614 96.5486H92.448" stroke="#FF42FC" stroke-width="11.74" stroke-linecap="round" stroke-linejoin="round"/>
<path opacity="0.15" d="M84.4595 127.063V66.0274" stroke="#FF42FC" stroke-width="11.74" stroke-linecap="round" stroke-linejoin="round"/>
</g>
<g opacity="0.9">
<path opacity="0.3" d="M116.414 100.971C117.839 102.389 118.969 104.074 119.74 105.929C120.511 107.785 120.907 109.775 120.905 111.785V111.785C120.907 113.793 120.513 115.782 119.745 117.637C118.977 119.492 117.85 121.178 116.43 122.597C115.009 124.016 113.323 125.141 111.467 125.907C109.611 126.674 107.622 127.066 105.614 127.063H84.4595" stroke="#FB7DFF" stroke-width="9.03" stroke-linecap="round" stroke-linejoin="round"/>
<path opacity="0.3" d="M84.4595 66H105.614C109.661 66 113.542 67.6072 116.405 70.4683C119.267 73.3293 120.876 77.2101 120.878 81.2571V81.2571C120.881 83.2639 120.489 85.2517 119.724 87.1068C118.958 88.9619 117.834 90.6479 116.417 92.0682C114.999 93.4885 113.315 94.6152 111.461 95.384C109.608 96.1528 107.621 96.5486 105.614 96.5486H92.448" stroke="#FB7DFF" stroke-width="9.03" stroke-linecap="round" stroke-linejoin="round"/>
<path opacity="0.3" d="M84.4595 127.063V66.0274" stroke="#FB7DFF" stroke-width="9.03" stroke-linecap="round" stroke-linejoin="round"/>
</g>
<path opacity="0.9" d="M116.414 100.971C117.839 102.388 118.969 104.074 119.74 105.929C120.511 107.785 120.907 109.775 120.905 111.785V111.785C120.907 113.793 120.513 115.782 119.745 117.637C118.977 119.492 117.85 121.178 116.43 122.597C115.009 124.016 113.323 125.141 111.467 125.907C109.611 126.674 107.622 127.066 105.614 127.063H84.4595" stroke="#FF82FF" stroke-width="6.77" stroke-linecap="round" stroke-linejoin="round"/>
<path opacity="0.9" d="M84.4595 66H105.614C109.661 66 113.542 67.6072 116.405 70.4683C119.267 73.3293 120.876 77.2101 120.878 81.2571V81.2571C120.881 83.2639 120.489 85.2517 119.724 87.1068C118.958 88.9619 117.834 90.6479 116.417 92.0682C114.999 93.4885 113.315 94.6152 111.461 95.384C109.608 96.1528 107.621 96.5486 105.614 96.5486H92.448" stroke="#FF82FF" stroke-width="6.77" stroke-linecap="round" stroke-linejoin="round"/>
<path opacity="0.9" d="M84.4595 127.063V66.0275" stroke="#FF82FF" stroke-width="6.77" stroke-linecap="round" stroke-linejoin="round"/>
<path opacity="0.9" d="M116.414 100.971C117.839 102.388 118.969 104.074 119.74 105.929C120.511 107.785 120.907 109.775 120.905 111.785V111.785C120.907 113.793 120.513 115.782 119.745 117.637C118.977 119.492 117.85 121.178 116.43 122.597C115.009 124.016 113.323 125.141 111.467 125.907C109.611 126.674 107.622 127.066 105.614 127.063H84.4595" stroke="#FFB8FF" stroke-width="4.52" stroke-linecap="round" stroke-linejoin="round"/>
<path opacity="0.9" d="M84.4595 66H105.614C109.661 66 113.542 67.6072 116.405 70.4683C119.267 73.3293 120.876 77.2101 120.878 81.2571V81.2571C120.881 83.2639 120.489 85.2517 119.724 87.1068C118.958 88.9619 117.834 90.6479 116.417 92.0682C114.999 93.4885 113.315 94.6152 111.461 95.384C109.608 96.1528 107.621 96.5486 105.614 96.5486H92.448" stroke="#FFB8FF" stroke-width="4.52" stroke-linecap="round" stroke-linejoin="round"/>
<path opacity="0.9" d="M84.4595 127.063V66.0275" stroke="#FFB8FF" stroke-width="4.52" stroke-linecap="round" stroke-linejoin="round"/>
<path opacity="0.9" d="M116.414 100.971C117.839 102.388 118.969 104.074 119.74 105.929C120.511 107.785 120.907 109.775 120.905 111.785V111.785C120.907 113.793 120.513 115.782 119.745 117.637C118.977 119.492 117.85 121.178 116.43 122.597C115.009 124.016 113.323 125.141 111.467 125.907C109.611 126.674 107.622 127.066 105.614 127.063H84.4595" stroke="#FFD7FF" stroke-width="2.26" stroke-linecap="round" stroke-linejoin="round"/>
<path opacity="0.9" d="M84.4595 66H105.614C109.661 66 113.542 67.6072 116.405 70.4683C119.267 73.3293 120.876 77.2101 120.878 81.2571V81.2571C120.881 83.2639 120.489 85.2517 119.724 87.1068C118.958 88.9619 117.834 90.6479 116.417 92.0682C114.999 93.4885 113.315 94.6152 111.461 95.384C109.608 96.1528 107.621 96.5486 105.614 96.5486H92.448" stroke="#FFD7FF" stroke-width="2.26" stroke-linecap="round" stroke-linejoin="round"/>
<path opacity="0.9" d="M84.4595 127.063V66.0275" stroke="#FFD7FF" stroke-width="2.26" stroke-linecap="round" stroke-linejoin="round"/>
<path opacity="0.9" d="M116.414 100.971C117.839 102.388 118.969 104.074 119.74 105.929C120.511 107.785 120.907 109.775 120.905 111.785V111.785C120.907 113.793 120.513 115.782 119.745 117.637C118.977 119.492 117.85 121.178 116.43 122.597C115.009 124.016 113.323 125.141 111.467 125.907C109.611 126.674 107.622 127.066 105.614 127.063H84.4595" stroke="#FFF2FF" stroke-width="1.45" stroke-linecap="round" stroke-linejoin="round"/>
<path opacity="0.9" d="M84.4595 66H105.614C109.661 66 113.542 67.6072 116.405 70.4683C119.267 73.3293 120.876 77.2101 120.878 81.2571V81.2571C120.881 83.2639 120.489 85.2517 119.724 87.1068C118.958 88.9619 117.834 90.6479 116.417 92.0682C114.999 93.4885 113.315 94.6152 111.461 95.384C109.608 96.1528 107.621 96.5486 105.614 96.5486H92.448" stroke="#FFF2FF" stroke-width="1.45" stroke-linecap="round" stroke-linejoin="round"/>
<path opacity="0.9" d="M84.4595 127.063V66.0275" stroke="#FFF2FF" stroke-width="1.45" stroke-linecap="round" stroke-linejoin="round"/>
</svg>
