<svg width="200" height="200" viewBox="0 0 200 200" fill="none" xmlns="http://www.w3.org/2000/svg">
<rect width="200" height="200" fill="black"/>
<path d="M108.185 66.0137H84.4663V127.042H108.185C111.626 127.042 114.926 125.675 117.359 123.242C119.792 120.809 121.159 117.509 121.159 114.069V78.9737C121.155 75.5352 119.787 72.2389 117.354 69.8088C114.921 67.3787 111.624 66.0137 108.185 66.0137V66.0137Z" stroke="black" stroke-width="22" stroke-linecap="round" stroke-linejoin="round"/>
<g style="mix-blend-mode:multiply" opacity="0.15">
<path d="M82.6284 68.9007V129.929H108.686C116.571 129.929 122.955 124.121 122.955 116.955V81.8606C122.955 74.6949 116.571 68.887 108.686 68.887H91.8581" stroke="#000014" stroke-width="15.16" stroke-linecap="round" stroke-linejoin="round"/>
</g>
<path opacity="0.2" d="M84.4663 66.0137V127.042H108.185C111.626 127.042 114.926 125.676 117.359 123.242C119.792 120.809 121.159 117.51 121.159 114.069V78.9738C121.159 75.5329 119.792 72.233 117.359 69.8C114.926 67.3669 111.626 66 108.185 66H92.8594" stroke="black" stroke-width="13.55" stroke-linecap="round" stroke-linejoin="round"/>
<path opacity="0.15" d="M84.4663 66.0137V127.042H108.185C111.626 127.042 114.926 125.676 117.359 123.242C119.792 120.809 121.159 117.51 121.159 114.069V78.9738C121.159 75.5329 119.792 72.233 117.359 69.8C114.926 67.3669 111.626 66 108.185 66H92.8594" stroke="black" stroke-width="11.74" stroke-linecap="round" stroke-linejoin="round"/>
<path opacity="0.3" d="M84.4663 66.0137V127.042H108.185C111.626 127.042 114.926 125.676 117.359 123.242C119.792 120.809 121.159 117.51 121.159 114.069V78.9738C121.159 75.5329 119.792 72.233 117.359 69.8C114.926 67.3669 111.626 66 108.185 66H92.8594" stroke="black" stroke-width="9.03" stroke-linecap="round" stroke-linejoin="round"/>
<path d="M84.4663 66.0137V127.042H108.185C111.626 127.042 114.926 125.676 117.359 123.242C119.792 120.809 121.159 117.51 121.159 114.069V78.9738C121.159 75.5329 119.792 72.233 117.359 69.8C114.926 67.3669 111.626 66 108.185 66H92.8594" stroke="white" stroke-width="6.77" stroke-linecap="round" stroke-linejoin="round"/>
<path d="M84.4663 66.0137V127.042H108.185C111.626 127.042 114.926 125.676 117.359 123.242C119.792 120.809 121.159 117.51 121.159 114.069V78.9738C121.159 75.5329 119.792 72.233 117.359 69.8C114.926 67.3669 111.626 66 108.185 66H92.8594" stroke="white" stroke-width="4.52" stroke-linecap="round" stroke-linejoin="round"/>
<path d="M84.4663 66.0137V127.042H108.185C111.626 127.042 114.926 125.676 117.359 123.242C119.792 120.809 121.159 117.51 121.159 114.069V78.9738C121.159 75.5329 119.792 72.233 117.359 69.8C114.926 67.3669 111.626 66 108.185 66H92.8594" stroke="white" stroke-width="2.26" stroke-linecap="round" stroke-linejoin="round"/>
<path d="M84.4663 66.0137V127.042H108.185C111.626 127.042 114.926 125.676 117.359 123.242C119.792 120.809 121.159 117.51 121.159 114.069V78.9738C121.159 75.5329 119.792 72.233 117.359 69.8C114.926 67.3669 111.626 66 108.185 66H92.8594" stroke="black" stroke-width="1.45" stroke-linecap="round" stroke-linejoin="round"/>
</svg>
