<svg width="200" height="200" viewBox="0 0 200 200" fill="none" xmlns="http://www.w3.org/2000/svg">
<rect width="200" height="200" fill="black"/>
<path d="M112.138 80.096C112.139 78.5079 111.827 76.9351 111.22 75.4676C110.613 74.0001 109.723 72.6666 108.6 71.5432C107.477 70.4199 106.144 69.5289 104.677 68.9209C103.21 68.313 101.637 68 100.049 68H87.535C85.9468 68 84.3742 68.313 82.9071 68.9209C81.4399 69.5289 80.1069 70.4199 78.9842 71.5432C77.8615 72.6666 76.9712 74.0001 76.3641 75.4676C75.7569 76.9351 75.4449 78.5079 75.4458 80.096V116.953C75.4458 118.541 75.7585 120.113 76.3661 121.579C76.9736 123.046 77.864 124.379 78.9866 125.501C80.1092 126.624 81.4419 127.514 82.9087 128.122C84.3754 128.73 85.9474 129.042 87.535 129.042H100.049C101.637 129.042 103.209 128.73 104.676 128.122C106.142 127.514 107.475 126.624 108.598 125.501C109.72 124.379 110.611 123.046 111.218 121.579C111.826 120.113 112.138 118.541 112.138 116.953" stroke="black" stroke-width="22" stroke-linecap="round" stroke-linejoin="round"/>
<path d="M93.8159 98.521H112.159V116.953" stroke="black" stroke-width="22" stroke-linecap="round" stroke-linejoin="round"/>
<g style="mix-blend-mode:multiply" opacity="0.15">
<g style="mix-blend-mode:multiply" opacity="0.15">
<path d="M113.996 82.9826C113.996 76.3038 108.038 70.8867 100.694 70.8867H86.9313C79.5804 70.8867 73.6284 76.3038 73.6284 82.9826V119.84C73.6284 126.512 79.5804 131.929 86.9313 131.929H100.694C108.038 131.929 113.996 126.512 113.996 119.84" stroke="#000014" stroke-width="15.16" stroke-linecap="round" stroke-linejoin="round"/>
</g>
<g style="mix-blend-mode:multiply" opacity="0.15">
<path d="M93.8159 101.408H113.996V119.84" stroke="#000014" stroke-width="15.16" stroke-linecap="round" stroke-linejoin="round"/>
</g>
</g>
<g opacity="0.2">
<path opacity="0.2" d="M112.138 80.096C112.139 78.5079 111.827 76.9351 111.22 75.4676C110.613 74.0001 109.723 72.6666 108.6 71.5432C107.477 70.4199 106.144 69.5289 104.677 68.9209C103.21 68.313 101.637 68 100.049 68H87.535C85.9468 68 84.3742 68.313 82.9071 68.9209C81.4399 69.5289 80.1069 70.4199 78.9842 71.5432C77.8615 72.6666 76.9712 74.0001 76.3641 75.4676C75.7569 76.9351 75.4449 78.5079 75.4458 80.096V116.953C75.4458 118.541 75.7585 120.113 76.3661 121.579C76.9736 123.046 77.864 124.379 78.9866 125.501C80.1092 126.624 81.4419 127.514 82.9087 128.122C84.3754 128.73 85.9474 129.042 87.535 129.042H100.049C101.637 129.042 103.209 128.73 104.676 128.122C106.142 127.514 107.475 126.624 108.598 125.501C109.72 124.379 110.611 123.046 111.218 121.579C111.826 120.113 112.138 118.541 112.138 116.953" stroke="black" stroke-width="13.55" stroke-linecap="round" stroke-linejoin="round"/>
<path opacity="0.2" d="M93.8164 98.521H112.159V116.953" stroke="black" stroke-width="13.55" stroke-linecap="round" stroke-linejoin="round"/>
</g>
<g opacity="0.15">
<path opacity="0.15" d="M112.138 80.096C112.139 78.5079 111.827 76.9351 111.22 75.4676C110.613 74.0001 109.723 72.6666 108.6 71.5432C107.477 70.4199 106.144 69.5289 104.677 68.9209C103.21 68.313 101.637 68 100.049 68H87.535C85.9468 68 84.3742 68.313 82.9071 68.9209C81.4399 69.5289 80.1069 70.4199 78.9842 71.5432C77.8615 72.6666 76.9712 74.0001 76.3641 75.4676C75.7569 76.9351 75.4449 78.5079 75.4458 80.096V116.953C75.4458 118.541 75.7585 120.113 76.3661 121.579C76.9736 123.046 77.864 124.379 78.9866 125.501C80.1092 126.624 81.4419 127.514 82.9087 128.122C84.3754 128.73 85.9474 129.042 87.535 129.042H100.049C101.637 129.042 103.209 128.73 104.676 128.122C106.142 127.514 107.475 126.624 108.598 125.501C109.72 124.379 110.611 123.046 111.218 121.579C111.826 120.113 112.138 118.541 112.138 116.953" stroke="black" stroke-width="11.74" stroke-linecap="round" stroke-linejoin="round"/>
<path opacity="0.15" d="M93.8164 98.521H112.159V116.953" stroke="black" stroke-width="11.74" stroke-linecap="round" stroke-linejoin="round"/>
</g>
<g opacity="0.3">
<path opacity="0.3" d="M112.138 80.096C112.139 78.5079 111.827 76.9351 111.22 75.4676C110.613 74.0001 109.723 72.6666 108.6 71.5432C107.477 70.4199 106.144 69.5289 104.677 68.9209C103.21 68.313 101.637 68 100.049 68H87.535C85.9468 68 84.3742 68.313 82.9071 68.9209C81.4399 69.5289 80.1069 70.4199 78.9842 71.5432C77.8615 72.6666 76.9712 74.0001 76.3641 75.4676C75.7569 76.9351 75.4449 78.5079 75.4458 80.096V116.953C75.4458 118.541 75.7585 120.113 76.3661 121.579C76.9736 123.046 77.864 124.379 78.9866 125.501C80.1092 126.624 81.4419 127.514 82.9087 128.122C84.3754 128.73 85.9474 129.042 87.535 129.042H100.049C101.637 129.042 103.209 128.73 104.676 128.122C106.142 127.514 107.475 126.624 108.598 125.501C109.72 124.379 110.611 123.046 111.218 121.579C111.826 120.113 112.138 118.541 112.138 116.953" stroke="black" stroke-width="9.03" stroke-linecap="round" stroke-linejoin="round"/>
<path opacity="0.3" d="M93.8164 98.521H112.159V116.953" stroke="black" stroke-width="9.03" stroke-linecap="round" stroke-linejoin="round"/>
</g>
<path d="M112.138 80.096C112.139 78.5079 111.827 76.9351 111.22 75.4676C110.613 74.0001 109.723 72.6666 108.6 71.5432C107.477 70.4199 106.144 69.5289 104.677 68.9209C103.21 68.313 101.637 68 100.049 68H87.535C85.9468 68 84.3742 68.313 82.9071 68.9209C81.4399 69.5289 80.1069 70.4199 78.9842 71.5432C77.8615 72.6666 76.9712 74.0001 76.3641 75.4676C75.7569 76.9351 75.4449 78.5079 75.4458 80.096V116.953C75.4458 118.541 75.7585 120.113 76.3661 121.579C76.9736 123.046 77.864 124.379 78.9866 125.501C80.1092 126.624 81.4419 127.514 82.9087 128.122C84.3754 128.73 85.9474 129.042 87.535 129.042H100.049C101.637 129.042 103.209 128.73 104.676 128.122C106.142 127.514 107.475 126.624 108.598 125.501C109.72 124.379 110.611 123.046 111.218 121.579C111.826 120.113 112.138 118.541 112.138 116.953" stroke="white" stroke-width="6.77" stroke-linecap="round" stroke-linejoin="round"/>
<path d="M93.8159 98.521H112.159V116.953" stroke="white" stroke-width="6.77" stroke-linecap="round" stroke-linejoin="round"/>
<path d="M112.138 80.096C112.139 78.5079 111.827 76.9351 111.22 75.4676C110.613 74.0001 109.723 72.6666 108.6 71.5432C107.477 70.4199 106.144 69.5289 104.677 68.9209C103.21 68.313 101.637 68 100.049 68H87.535C85.9468 68 84.3742 68.313 82.9071 68.9209C81.4399 69.5289 80.1069 70.4199 78.9842 71.5432C77.8615 72.6666 76.9712 74.0001 76.3641 75.4676C75.7569 76.9351 75.4449 78.5079 75.4458 80.096V116.953C75.4458 118.541 75.7585 120.113 76.3661 121.579C76.9736 123.046 77.864 124.379 78.9866 125.501C80.1092 126.624 81.4419 127.514 82.9087 128.122C84.3754 128.73 85.9474 129.042 87.535 129.042H100.049C101.637 129.042 103.209 128.73 104.676 128.122C106.142 127.514 107.475 126.624 108.598 125.501C109.72 124.379 110.611 123.046 111.218 121.579C111.826 120.113 112.138 118.541 112.138 116.953" stroke="white" stroke-width="4.52" stroke-linecap="round" stroke-linejoin="round"/>
<path d="M93.8159 98.521H112.159V116.953" stroke="white" stroke-width="4.52" stroke-linecap="round" stroke-linejoin="round"/>
<path d="M112.138 80.096C112.139 78.5079 111.827 76.9351 111.22 75.4676C110.613 74.0001 109.723 72.6666 108.6 71.5432C107.477 70.4199 106.144 69.5289 104.677 68.9209C103.21 68.313 101.637 68 100.049 68H87.535C85.9468 68 84.3742 68.313 82.9071 68.9209C81.4399 69.5289 80.1069 70.4199 78.9842 71.5432C77.8615 72.6666 76.9712 74.0001 76.3641 75.4676C75.7569 76.9351 75.4449 78.5079 75.4458 80.096V116.953C75.4458 118.541 75.7585 120.113 76.3661 121.579C76.9736 123.046 77.864 124.379 78.9866 125.501C80.1092 126.624 81.4419 127.514 82.9087 128.122C84.3754 128.73 85.9474 129.042 87.535 129.042H100.049C101.637 129.042 103.209 128.73 104.676 128.122C106.142 127.514 107.475 126.624 108.598 125.501C109.72 124.379 110.611 123.046 111.218 121.579C111.826 120.113 112.138 118.541 112.138 116.953" stroke="white" stroke-width="2.26" stroke-linecap="round" stroke-linejoin="round"/>
<path d="M93.8159 98.521H112.159V116.953" stroke="white" stroke-width="2.26" stroke-linecap="round" stroke-linejoin="round"/>
<path d="M112.138 80.096C112.139 78.5079 111.827 76.9351 111.22 75.4676C110.613 74.0001 109.723 72.6666 108.6 71.5432C107.477 70.4199 106.144 69.5289 104.677 68.9209C103.21 68.313 101.637 68 100.049 68H87.535C85.9468 68 84.3742 68.313 82.9071 68.9209C81.4399 69.5289 80.1069 70.4199 78.9842 71.5432C77.8615 72.6666 76.9712 74.0001 76.3641 75.4676C75.7569 76.9351 75.4449 78.5079 75.4458 80.096V116.953C75.4458 118.541 75.7585 120.113 76.3661 121.579C76.9736 123.046 77.864 124.379 78.9866 125.501C80.1092 126.624 81.4419 127.514 82.9087 128.122C84.3754 128.73 85.9474 129.042 87.535 129.042H100.049C101.637 129.042 103.209 128.73 104.676 128.122C106.142 127.514 107.475 126.624 108.598 125.501C109.72 124.379 110.611 123.046 111.218 121.579C111.826 120.113 112.138 118.541 112.138 116.953" stroke="black" stroke-width="1.45" stroke-linecap="round" stroke-linejoin="round"/>
<path d="M93.8159 98.521H112.159V116.953" stroke="black" stroke-width="1.45" stroke-linecap="round" stroke-linejoin="round"/>
</svg>
