<svg width="200" height="200" viewBox="0 0 200 200" fill="none" xmlns="http://www.w3.org/2000/svg">
<rect width="200" height="200" fill="#78CDFD"/>
<path d="M119.159 126.953C119.157 130.159 117.883 133.233 115.616 135.499C113.349 137.766 110.275 139.04 107.07 139.042H94.5555C92.9679 139.042 91.3959 138.73 89.9291 138.122C88.4624 137.514 87.1297 136.624 86.0071 135.501C84.8845 134.379 83.9941 133.046 83.3865 131.579C82.779 130.113 82.4663 128.541 82.4663 126.953V90.096C82.4654 88.5079 82.7774 86.9351 83.3846 85.4676C83.9917 84.0001 84.882 82.6666 86.0047 81.5432C87.1274 80.4199 88.4604 79.5289 89.9276 78.9209C91.3947 78.313 92.9673 78 94.5555 78H107.07C110.277 78.0018 113.352 79.277 115.618 81.5453C117.885 83.8135 119.159 86.8891 119.159 90.096" stroke="#9921CC" stroke-width="22" stroke-linecap="round" stroke-linejoin="round"/>
<g style="mix-blend-mode:multiply" opacity="0.15">
<path d="M120.99 129.84C120.99 136.512 115.038 141.929 107.694 141.929H93.9108C86.5599 141.929 80.6079 136.512 80.6079 129.84V92.9828C80.6079 86.3039 86.5599 80.8868 93.9108 80.8868H107.694C115.038 80.8868 120.99 86.3039 120.99 92.9828" stroke="#000014" stroke-width="15.16" stroke-linecap="round" stroke-linejoin="round"/>
</g>
<path opacity="0.2" d="M119.159 126.953C119.157 130.159 117.883 133.233 115.616 135.499C113.349 137.766 110.275 139.04 107.07 139.042H94.5555C92.9679 139.042 91.3959 138.73 89.9291 138.122C88.4624 137.514 87.1297 136.624 86.0071 135.501C84.8845 134.379 83.9941 133.046 83.3865 131.579C82.779 130.113 82.4663 128.541 82.4663 126.953V90.096C82.4654 88.5079 82.7774 86.9351 83.3846 85.4676C83.9917 84.0001 84.882 82.6666 86.0047 81.5432C87.1274 80.4199 88.4604 79.5289 89.9276 78.9209C91.3947 78.313 92.9673 78 94.5555 78H107.07C110.277 78.0018 113.352 79.277 115.618 81.5453C117.885 83.8135 119.159 86.8891 119.159 90.096" stroke="#FF00FF" stroke-width="13.55" stroke-linecap="round" stroke-linejoin="round"/>
<path opacity="0.15" d="M119.159 126.953C119.157 130.159 117.883 133.233 115.616 135.499C113.349 137.766 110.275 139.04 107.07 139.042H94.5555C92.9679 139.042 91.3959 138.73 89.9291 138.122C88.4624 137.514 87.1297 136.624 86.0071 135.501C84.8845 134.379 83.9941 133.046 83.3865 131.579C82.779 130.113 82.4663 128.541 82.4663 126.953V90.096C82.4654 88.5079 82.7774 86.9351 83.3846 85.4676C83.9917 84.0001 84.882 82.6666 86.0047 81.5432C87.1274 80.4199 88.4604 79.5289 89.9276 78.9209C91.3947 78.313 92.9673 78 94.5555 78H107.07C110.277 78.0018 113.352 79.277 115.618 81.5453C117.885 83.8135 119.159 86.8891 119.159 90.096" stroke="#FF42FC" stroke-width="11.74" stroke-linecap="round" stroke-linejoin="round"/>
<path opacity="0.3" d="M119.159 126.953C119.157 130.159 117.883 133.233 115.616 135.499C113.349 137.766 110.275 139.04 107.07 139.042H94.5555C92.9679 139.042 91.3959 138.73 89.9291 138.122C88.4624 137.514 87.1297 136.624 86.0071 135.501C84.8845 134.379 83.9941 133.046 83.3865 131.579C82.779 130.113 82.4663 128.541 82.4663 126.953V90.096C82.4654 88.5079 82.7774 86.9351 83.3846 85.4676C83.9917 84.0001 84.882 82.6666 86.0047 81.5432C87.1274 80.4199 88.4604 79.5289 89.9276 78.9209C91.3947 78.313 92.9673 78 94.5555 78H107.07C110.277 78.0018 113.352 79.277 115.618 81.5453C117.885 83.8135 119.159 86.8891 119.159 90.096" stroke="#FB7DFF" stroke-width="9.03" stroke-linecap="round" stroke-linejoin="round"/>
<path d="M119.159 126.953C119.157 130.159 117.883 133.233 115.616 135.499C113.349 137.766 110.275 139.04 107.07 139.042H94.5555C92.9679 139.042 91.3959 138.73 89.9291 138.122C88.4624 137.514 87.1297 136.624 86.0071 135.501C84.8845 134.379 83.9941 133.046 83.3865 131.579C82.779 130.113 82.4663 128.541 82.4663 126.953V90.096C82.4654 88.5079 82.7774 86.9351 83.3846 85.4676C83.9917 84.0001 84.882 82.6666 86.0047 81.5432C87.1274 80.4199 88.4604 79.5289 89.9276 78.9209C91.3947 78.313 92.9673 78 94.5555 78H107.07C110.277 78.0018 113.352 79.277 115.618 81.5453C117.885 83.8135 119.159 86.8891 119.159 90.096" stroke="#FF82FF" stroke-width="6.77" stroke-linecap="round" stroke-linejoin="round"/>
<path d="M119.159 126.953C119.157 130.159 117.883 133.233 115.616 135.499C113.349 137.766 110.275 139.04 107.07 139.042H94.5555C92.9679 139.042 91.3959 138.73 89.9291 138.122C88.4624 137.514 87.1297 136.624 86.0071 135.501C84.8845 134.379 83.9941 133.046 83.3865 131.579C82.779 130.113 82.4663 128.541 82.4663 126.953V90.096C82.4654 88.5079 82.7774 86.9351 83.3846 85.4676C83.9917 84.0001 84.882 82.6666 86.0047 81.5432C87.1274 80.4199 88.4604 79.5289 89.9276 78.9209C91.3947 78.313 92.9673 78 94.5555 78H107.07C110.277 78.0018 113.352 79.277 115.618 81.5453C117.885 83.8135 119.159 86.8891 119.159 90.096" stroke="#FFB8FF" stroke-width="4.52" stroke-linecap="round" stroke-linejoin="round"/>
<path d="M119.159 126.953C119.157 130.159 117.883 133.233 115.616 135.499C113.349 137.766 110.275 139.04 107.07 139.042H94.5555C92.9679 139.042 91.3959 138.73 89.9291 138.122C88.4624 137.514 87.1297 136.624 86.0071 135.501C84.8845 134.379 83.9941 133.046 83.3865 131.579C82.779 130.113 82.4663 128.541 82.4663 126.953V90.096C82.4654 88.5079 82.7774 86.9351 83.3846 85.4676C83.9917 84.0001 84.882 82.6666 86.0047 81.5432C87.1274 80.4199 88.4604 79.5289 89.9276 78.9209C91.3947 78.313 92.9673 78 94.5555 78H107.07C110.277 78.0018 113.352 79.277 115.618 81.5453C117.885 83.8135 119.159 86.8891 119.159 90.096" stroke="#FFD7FF" stroke-width="2.26" stroke-linecap="round" stroke-linejoin="round"/>
<path d="M119.159 126.953C119.157 130.159 117.883 133.233 115.616 135.499C113.349 137.766 110.275 139.04 107.07 139.042H94.5555C92.9679 139.042 91.3959 138.73 89.9291 138.122C88.4624 137.514 87.1297 136.624 86.0071 135.501C84.8845 134.379 83.9941 133.046 83.3865 131.579C82.779 130.113 82.4663 128.541 82.4663 126.953V90.096C82.4654 88.5079 82.7774 86.9351 83.3846 85.4676C83.9917 84.0001 84.882 82.6666 86.0047 81.5432C87.1274 80.4199 88.4604 79.5289 89.9276 78.9209C91.3947 78.313 92.9673 78 94.5555 78H107.07C110.277 78.0018 113.352 79.277 115.618 81.5453C117.885 83.8135 119.159 86.8891 119.159 90.096" stroke="#FFF2FF" stroke-width="1.45" stroke-linecap="round" stroke-linejoin="round"/>
</svg>
