<svg width="200" height="200" viewBox="0 0 200 200" fill="none" xmlns="http://www.w3.org/2000/svg">
<rect width="200" height="200" fill="black"/>
<rect width="200" height="200" fill="black"/>
<rect width="200" height="200" fill="black"/>
<rect width="200" height="200" fill="black"/>
<path d="M104.07 71V119.953C104.068 123.159 102.794 126.233 100.527 128.499C98.2602 130.766 95.1863 132.04 91.9807 132.042H91.5555C88.3486 132.042 85.273 130.769 83.0047 128.502C80.7365 126.235 79.4613 123.16 79.4595 119.953V119.953" stroke="black" stroke-width="22" stroke-linecap="round" stroke-linejoin="round"/>
<g style="mix-blend-mode:multiply" opacity="0.15">
<path d="M105.297 73.8868V122.84C105.297 129.512 99.3451 134.929 92.0011 134.929H91.5279C84.1839 134.929 78.2319 129.512 78.2319 122.84" stroke="#000014" stroke-width="15.16" stroke-linecap="round" stroke-linejoin="round"/>
</g>
<path opacity="0.2" d="M104.07 71V119.953C104.068 123.159 102.794 126.233 100.527 128.499C98.2602 130.766 95.1863 132.04 91.9807 132.042H91.5555C88.3486 132.042 85.273 130.769 83.0047 128.502C80.7365 126.235 79.4613 123.16 79.4595 119.953V119.953" stroke="black" stroke-width="13.55" stroke-linecap="round" stroke-linejoin="round"/>
<path opacity="0.15" d="M104.07 71V119.953C104.068 123.159 102.794 126.233 100.527 128.499C98.2602 130.766 95.1863 132.04 91.9807 132.042H91.5555C88.3486 132.042 85.273 130.769 83.0047 128.502C80.7365 126.235 79.4613 123.16 79.4595 119.953V119.953" stroke="black" stroke-width="11.74" stroke-linecap="round" stroke-linejoin="round"/>
<path opacity="0.3" d="M104.07 71V119.953C104.068 123.159 102.794 126.233 100.527 128.499C98.2602 130.766 95.1863 132.04 91.9807 132.042H91.5555C88.3486 132.042 85.273 130.769 83.0047 128.502C80.7365 126.235 79.4613 123.16 79.4595 119.953V119.953" stroke="black" stroke-width="9.03" stroke-linecap="round" stroke-linejoin="round"/>
<path d="M104.07 71V119.953C104.068 123.159 102.794 126.233 100.527 128.499C98.2602 130.766 95.1863 132.04 91.9807 132.042H91.5555C88.3486 132.042 85.273 130.769 83.0047 128.502C80.7365 126.235 79.4613 123.16 79.4595 119.953V119.953" stroke="white" stroke-width="6.77" stroke-linecap="round" stroke-linejoin="round"/>
<path d="M104.07 71V119.953C104.068 123.159 102.794 126.233 100.527 128.499C98.2602 130.766 95.1863 132.04 91.9807 132.042H91.5555C88.3486 132.042 85.273 130.769 83.0047 128.502C80.7365 126.235 79.4613 123.16 79.4595 119.953V119.953" stroke="white" stroke-width="4.52" stroke-linecap="round" stroke-linejoin="round"/>
<path d="M104.07 71V119.953C104.068 123.159 102.794 126.233 100.527 128.499C98.2602 130.766 95.1863 132.04 91.9807 132.042H91.5555C88.3486 132.042 85.273 130.769 83.0047 128.502C80.7365 126.235 79.4613 123.16 79.4595 119.953V119.953" stroke="white" stroke-width="2.26" stroke-linecap="round" stroke-linejoin="round"/>
<path d="M104.07 71V119.953C104.068 123.159 102.794 126.233 100.527 128.499C98.2602 130.766 95.1863 132.04 91.9807 132.042H91.5555C88.3486 132.042 85.273 130.769 83.0047 128.502C80.7365 126.235 79.4613 123.16 79.4595 119.953V119.953" stroke="black" stroke-width="1.45" stroke-linecap="round" stroke-linejoin="round"/>
</svg>
