<svg width="200" height="200" viewBox="0 0 200 200" fill="none" xmlns="http://www.w3.org/2000/svg">
<rect width="200" height="200" fill="black"/>
<path d="M127.502 127.042V66L99.984 96.5211L72.4663 66V127.042" stroke="black" stroke-width="22" stroke-linecap="round" stroke-linejoin="round"/>
<g style="mix-blend-mode:multiply" opacity="0.15">
<path d="M130.258 129.929V68.8868L99.9841 99.4079L69.71 68.8868V129.929" stroke="#000014" stroke-width="15.16" stroke-linecap="round" stroke-linejoin="round"/>
</g>
<path opacity="0.2" d="M127.502 127.042V66L99.984 96.5211L72.4663 66V127.042" stroke="black" stroke-width="13.55" stroke-linecap="round" stroke-linejoin="round"/>
<path opacity="0.15" d="M127.502 127.042V66L99.984 96.5211L72.4663 66V127.042" stroke="black" stroke-width="11.74" stroke-linecap="round" stroke-linejoin="round"/>
<path opacity="0.3" d="M127.502 127.042V66L99.984 96.5211L72.4663 66V127.042" stroke="black" stroke-width="9.03" stroke-linecap="round" stroke-linejoin="round"/>
<path d="M127.502 127.042V66L99.984 96.5211L72.4663 66V127.042" stroke="white" stroke-width="6.77" stroke-linecap="round" stroke-linejoin="round"/>
<path d="M127.502 127.042V66L99.984 96.5211L72.4663 66V127.042" stroke="white" stroke-width="4.52" stroke-linecap="round" stroke-linejoin="round"/>
<path d="M127.502 127.042V66L99.984 96.5211L72.4663 66V127.042" stroke="white" stroke-width="2.26" stroke-linecap="round" stroke-linejoin="round"/>
<path d="M127.502 127.042V66L99.984 96.5211L72.4663 66V127.042" stroke="black" stroke-width="1.45" stroke-linecap="round" stroke-linejoin="round"/>
</svg>
