<svg width="200" height="200" viewBox="0 0 200 200" fill="none" xmlns="http://www.w3.org/2000/svg">
<rect width="200" height="200" fill="#D2FD78"/>
<rect width="200" height="200" fill="#D2FD78"/>
<rect width="200" height="200" fill="#D2FD78"/>
<rect width="200" height="200" fill="#D2FD78"/>
<path d="M84.4592 61V122.035" stroke="#9921CC" stroke-width="22" stroke-linecap="round" stroke-linejoin="round"/>
<path d="M121.152 61V122.035L84.4592 61" stroke="#9921CC" stroke-width="22" stroke-linecap="round" stroke-linejoin="round"/>
<g style="mix-blend-mode:multiply" opacity="0.15">
<g style="mix-blend-mode:multiply" opacity="0.15">
<path d="M82.6284 63.8868V124.922" stroke="#000014" stroke-width="15.16" stroke-linecap="round" stroke-linejoin="round"/>
</g>
<g style="mix-blend-mode:multiply" opacity="0.15">
<path d="M122.99 63.8868V124.922L82.6284 63.8868" stroke="#000014" stroke-width="15.16" stroke-linecap="round" stroke-linejoin="round"/>
</g>
</g>
<g opacity="0.2">
<path opacity="0.2" d="M84.4592 61V122.035" stroke="#FF00FF" stroke-width="13.55" stroke-linecap="round" stroke-linejoin="round"/>
<path opacity="0.2" d="M121.152 61V122.035L84.4592 61" stroke="#FF00FF" stroke-width="13.55" stroke-linecap="round" stroke-linejoin="round"/>
</g>
<g opacity="0.15">
<path opacity="0.15" d="M84.4592 61V122.035" stroke="#FF42FC" stroke-width="11.74" stroke-linecap="round" stroke-linejoin="round"/>
<path opacity="0.15" d="M121.152 61V122.035L84.4592 61" stroke="#FF42FC" stroke-width="11.74" stroke-linecap="round" stroke-linejoin="round"/>
</g>
<g opacity="0.3">
<path opacity="0.3" d="M84.4592 61V122.035" stroke="#FB7DFF" stroke-width="9.03" stroke-linecap="round" stroke-linejoin="round"/>
<path opacity="0.3" d="M121.152 61V122.035L84.4592 61" stroke="#FB7DFF" stroke-width="9.03" stroke-linecap="round" stroke-linejoin="round"/>
</g>
<path d="M84.4592 61V122.035" stroke="#FF82FF" stroke-width="6.77" stroke-linecap="round" stroke-linejoin="round"/>
<path d="M121.152 61V122.035L84.4592 61" stroke="#FF82FF" stroke-width="6.77" stroke-linecap="round" stroke-linejoin="round"/>
<path d="M84.4592 61V122.035" stroke="#FFB8FF" stroke-width="4.52" stroke-linecap="round" stroke-linejoin="round"/>
<path d="M121.152 61V122.035L84.4592 61" stroke="#FFB8FF" stroke-width="4.52" stroke-linecap="round" stroke-linejoin="round"/>
<path d="M84.4592 61V122.035" stroke="#FFD7FF" stroke-width="2.26" stroke-linecap="round" stroke-linejoin="round"/>
<path d="M121.152 61V122.035L84.4592 61" stroke="#FFD7FF" stroke-width="2.26" stroke-linecap="round" stroke-linejoin="round"/>
<path d="M84.4592 61V122.035" stroke="#FFF2FF" stroke-width="1.45" stroke-linecap="round" stroke-linejoin="round"/>
<path d="M121.152 61V122.035L84.4592 61" stroke="#FFF2FF" stroke-width="1.45" stroke-linecap="round" stroke-linejoin="round"/>
</svg>
