<svg width="200" height="200" viewBox="0 0 200 200" fill="none" xmlns="http://www.w3.org/2000/svg">
<rect width="200" height="200" fill="black"/>
<path d="M127.88 103.21C127.88 87.6302 115.25 75 99.6698 75C84.0897 75 71.4595 87.6302 71.4595 103.21V107.825C71.4595 123.405 84.0897 136.035 99.6698 136.035C115.25 136.035 127.88 123.405 127.88 107.825V103.21Z" stroke="black" stroke-width="22" stroke-linecap="round" stroke-linejoin="round"/>
<g style="mix-blend-mode:multiply" opacity="0.15">
<path d="M122.641 129.699C125.173 127.228 127.189 124.28 128.574 121.024C129.958 117.768 130.682 114.27 130.705 110.733V106.118C130.705 90.5383 116.812 77.9075 99.6764 77.9075C82.5336 77.9075 68.6411 90.5383 68.6411 106.118V110.733C68.6411 126.312 82.5336 138.943 99.6764 138.943C105.061 138.961 110.37 137.672 115.146 135.185" stroke="#000014" stroke-width="15.16" stroke-linecap="round" stroke-linejoin="round"/>
</g>
<path opacity="0.2" d="M120.557 126.792C125.281 121.606 127.896 114.841 127.887 107.825V103.21C127.887 95.7284 124.915 88.5531 119.624 83.2626C114.334 77.9722 107.158 75 99.6766 75V75C95.9714 74.9991 92.3024 75.7282 88.8789 77.1455C85.4555 78.5627 82.3448 80.6405 79.7245 83.2602C77.1042 85.8799 75.0257 88.99 73.6075 92.4131C72.1894 95.8362 71.4595 99.5051 71.4595 103.21V107.825C71.4595 111.53 72.1894 115.199 73.6075 118.622C75.0257 122.045 77.1042 125.156 79.7245 127.775C82.3448 130.395 85.4555 132.473 88.8789 133.89C92.3024 135.307 95.9714 136.036 99.6766 136.035V136.035C104.602 136.044 109.444 134.755 113.713 132.298" stroke="black" stroke-width="13.55" stroke-linecap="round" stroke-linejoin="round"/>
<path opacity="0.15" d="M120.557 126.792C125.281 121.606 127.896 114.841 127.887 107.825V103.21C127.887 95.7284 124.915 88.5531 119.624 83.2626C114.334 77.9722 107.158 75 99.6766 75V75C95.9714 74.9991 92.3024 75.7282 88.8789 77.1455C85.4555 78.5627 82.3448 80.6405 79.7245 83.2602C77.1042 85.8799 75.0257 88.99 73.6075 92.4131C72.1894 95.8362 71.4595 99.5051 71.4595 103.21V107.825C71.4595 111.53 72.1894 115.199 73.6075 118.622C75.0257 122.045 77.1042 125.156 79.7245 127.775C82.3448 130.395 85.4555 132.473 88.8789 133.89C92.3024 135.307 95.9714 136.036 99.6766 136.035V136.035C104.602 136.044 109.444 134.755 113.713 132.298" stroke="black" stroke-width="11.74" stroke-linecap="round" stroke-linejoin="round"/>
<path opacity="0.3" d="M120.557 126.792C125.281 121.606 127.896 114.841 127.887 107.825V103.21C127.887 95.7284 124.915 88.5531 119.624 83.2626C114.334 77.9722 107.158 75 99.6766 75V75C95.9714 74.9991 92.3024 75.7282 88.8789 77.1455C85.4555 78.5627 82.3448 80.6405 79.7245 83.2602C77.1042 85.8799 75.0257 88.99 73.6075 92.4131C72.1894 95.8362 71.4595 99.5051 71.4595 103.21V107.825C71.4595 111.53 72.1894 115.199 73.6075 118.622C75.0257 122.045 77.1042 125.156 79.7245 127.775C82.3448 130.395 85.4555 132.473 88.8789 133.89C92.3024 135.307 95.9714 136.036 99.6766 136.035V136.035C104.602 136.044 109.444 134.755 113.713 132.298" stroke="black" stroke-width="9.03" stroke-linecap="round" stroke-linejoin="round"/>
<path d="M120.557 126.792C125.281 121.606 127.896 114.841 127.887 107.825V103.21C127.887 95.7284 124.915 88.5531 119.624 83.2626C114.334 77.9722 107.158 75 99.6766 75V75C95.9714 74.9991 92.3024 75.7282 88.8789 77.1455C85.4555 78.5627 82.3448 80.6405 79.7245 83.2602C77.1042 85.8799 75.0257 88.99 73.6075 92.4131C72.1894 95.8362 71.4595 99.5051 71.4595 103.21V107.825C71.4595 111.53 72.1894 115.199 73.6075 118.622C75.0257 122.045 77.1042 125.156 79.7245 127.775C82.3448 130.395 85.4555 132.473 88.8789 133.89C92.3024 135.307 95.9714 136.036 99.6766 136.035V136.035C104.602 136.044 109.444 134.755 113.713 132.298" stroke="white" stroke-width="6.77" stroke-linecap="round" stroke-linejoin="round"/>
<path d="M120.557 126.792C125.281 121.606 127.896 114.841 127.887 107.825V103.21C127.887 95.7284 124.915 88.5531 119.624 83.2626C114.334 77.9722 107.158 75 99.6766 75V75C95.9714 74.9991 92.3024 75.7282 88.8789 77.1455C85.4555 78.5627 82.3448 80.6405 79.7245 83.2602C77.1042 85.8799 75.0257 88.99 73.6075 92.4131C72.1894 95.8362 71.4595 99.5051 71.4595 103.21V107.825C71.4595 111.53 72.1894 115.199 73.6075 118.622C75.0257 122.045 77.1042 125.156 79.7245 127.775C82.3448 130.395 85.4555 132.473 88.8789 133.89C92.3024 135.307 95.9714 136.036 99.6766 136.035V136.035C104.602 136.044 109.444 134.755 113.713 132.298" stroke="white" stroke-width="4.52" stroke-linecap="round" stroke-linejoin="round"/>
<path d="M120.557 126.792C125.281 121.606 127.896 114.841 127.887 107.825V103.21C127.887 95.7284 124.915 88.5531 119.624 83.2626C114.334 77.9722 107.158 75 99.6766 75V75C95.9714 74.9991 92.3024 75.7282 88.8789 77.1455C85.4555 78.5627 82.3448 80.6405 79.7245 83.2602C77.1042 85.8799 75.0257 88.99 73.6075 92.4131C72.1894 95.8362 71.4595 99.5051 71.4595 103.21V107.825C71.4595 111.53 72.1894 115.199 73.6075 118.622C75.0257 122.045 77.1042 125.156 79.7245 127.775C82.3448 130.395 85.4555 132.473 88.8789 133.89C92.3024 135.307 95.9714 136.036 99.6766 136.035V136.035C104.602 136.044 109.444 134.755 113.713 132.298" stroke="white" stroke-width="2.26" stroke-linecap="round" stroke-linejoin="round"/>
<path d="M120.557 126.792C125.281 121.606 127.896 114.841 127.887 107.825V103.21C127.887 95.7284 124.915 88.5531 119.624 83.2626C114.334 77.9722 107.158 75 99.6766 75V75C95.9714 74.9991 92.3024 75.7282 88.8789 77.1455C85.4555 78.5627 82.3448 80.6405 79.7245 83.2602C77.1042 85.8799 75.0257 88.99 73.6075 92.4131C72.1894 95.8362 71.4595 99.5051 71.4595 103.21V107.825C71.4595 111.53 72.1894 115.199 73.6075 118.622C75.0257 122.045 77.1042 125.156 79.7245 127.775C82.3448 130.395 85.4555 132.473 88.8789 133.89C92.3024 135.307 95.9714 136.036 99.6766 136.035V136.035C104.602 136.044 109.444 134.755 113.713 132.298" stroke="black" stroke-width="1.45" stroke-linecap="round" stroke-linejoin="round"/>
</svg>
