<svg width="200" height="200" viewBox="0 0 200 200" fill="none" xmlns="http://www.w3.org/2000/svg">
<rect width="200" height="200" fill="black"/>
<path d="M84.4596 101.521H109.063C112.265 101.516 115.335 100.24 117.598 97.973C119.861 95.7065 121.131 92.6347 121.131 89.432V83.096C121.131 79.8891 119.858 76.8135 117.591 74.5453C115.324 72.277 112.249 71.0018 109.042 71H84.439V132.029" stroke="black" stroke-width="22" stroke-linecap="round" stroke-linejoin="round"/>
<g style="mix-blend-mode:multiply" opacity="0.15">
<path d="M91.4127 104.408H109.687C117.031 104.408 122.99 98.9977 122.99 92.3188V85.9828C122.99 79.3039 117.031 73.8868 109.687 73.8868H82.6289V134.915" stroke="#000014" stroke-width="15.16" stroke-linecap="round" stroke-linejoin="round"/>
</g>
<path opacity="0.2" d="M92.448 101.521H109.063C112.265 101.516 115.335 100.24 117.598 97.973C119.861 95.7065 121.131 92.6347 121.131 89.432V83.096C121.131 79.8891 119.858 76.8135 117.591 74.5453C115.324 72.277 112.249 71.0018 109.042 71H84.439V132.029" stroke="black" stroke-width="13.55" stroke-linecap="round" stroke-linejoin="round"/>
<path opacity="0.15" d="M92.448 101.521H109.063C112.265 101.516 115.335 100.24 117.598 97.973C119.861 95.7065 121.131 92.6347 121.131 89.432V83.096C121.131 79.8891 119.858 76.8135 117.591 74.5453C115.324 72.277 112.249 71.0018 109.042 71H84.439V132.029" stroke="black" stroke-width="11.74" stroke-linecap="round" stroke-linejoin="round"/>
<path opacity="0.3" d="M92.448 101.521H109.063C112.265 101.516 115.335 100.24 117.598 97.973C119.861 95.7065 121.131 92.6347 121.131 89.432V83.096C121.131 79.8891 119.858 76.8135 117.591 74.5453C115.324 72.277 112.249 71.0018 109.042 71H84.439V132.029" stroke="black" stroke-width="9.03" stroke-linecap="round" stroke-linejoin="round"/>
<path d="M92.448 101.521H109.063C112.265 101.516 115.335 100.24 117.598 97.973C119.861 95.7065 121.131 92.6347 121.131 89.432V83.096C121.131 79.8891 119.858 76.8135 117.591 74.5453C115.324 72.277 112.249 71.0018 109.042 71H84.439V132.029" stroke="white" stroke-width="6.77" stroke-linecap="round" stroke-linejoin="round"/>
<path d="M92.448 101.521H109.063C112.265 101.516 115.335 100.24 117.598 97.973C119.861 95.7065 121.131 92.6347 121.131 89.432V83.096C121.131 79.8891 119.858 76.8135 117.591 74.5453C115.324 72.277 112.249 71.0018 109.042 71H84.439V132.029" stroke="white" stroke-width="4.52" stroke-linecap="round" stroke-linejoin="round"/>
<path d="M92.448 101.521H109.063C112.265 101.516 115.335 100.24 117.598 97.973C119.861 95.7065 121.131 92.6347 121.131 89.432V83.096C121.131 79.8891 119.858 76.8135 117.591 74.5453C115.324 72.277 112.249 71.0018 109.042 71H84.439V132.029" stroke="white" stroke-width="2.26" stroke-linecap="round" stroke-linejoin="round"/>
<path d="M92.448 101.521H109.063C112.265 101.516 115.335 100.24 117.598 97.973C119.861 95.7065 121.131 92.6347 121.131 89.432V83.096C121.131 79.8891 119.858 76.8135 117.591 74.5453C115.324 72.277 112.249 71.0018 109.042 71H84.439V132.029" stroke="black" stroke-width="1.45" stroke-linecap="round" stroke-linejoin="round"/>
</svg>
