<svg width="203" height="200" viewBox="0 0 203 200" fill="none" xmlns="http://www.w3.org/2000/svg">
<rect width="203" height="200" fill="black"/>
<path d="M127.88 106.217C127.88 90.637 115.25 78.0068 99.6699 78.0068C84.0898 78.0068 71.4595 90.637 71.4595 106.217V110.832C71.4595 126.412 84.0898 139.042 99.6699 139.042C115.25 139.042 127.88 126.412 127.88 110.832V106.217Z" stroke="black" stroke-width="22" stroke-linecap="round" stroke-linejoin="round"/>
<path d="M111.759 125.849L123.848 139.049" stroke="black" stroke-width="22" stroke-linecap="round" stroke-linejoin="round"/>
<g style="mix-blend-mode:multiply" opacity="0.15">
<g style="mix-blend-mode:multiply" opacity="0.15">
<path d="M125.446 129.435C128.845 124.902 130.69 119.392 130.705 113.726V109.104C130.705 93.5245 116.813 80.8937 99.6698 80.8937C82.5269 80.8937 68.6411 93.5245 68.6411 109.104V113.726C68.6411 129.305 82.5337 141.936 99.6698 141.936C103.663 141.949 107.626 141.253 111.375 139.879" stroke="#000014" stroke-width="15.16" stroke-linecap="round" stroke-linejoin="round"/>
</g>
<g style="mix-blend-mode:multiply" opacity="0.15">
<path d="M112.973 128.736L126.269 141.936" stroke="#000014" stroke-width="15.16" stroke-linecap="round" stroke-linejoin="round"/>
</g>
</g>
<g opacity="0.2">
<path opacity="0.2" d="M123.1 126.542C126.229 121.9 127.9 116.43 127.9 110.832V106.21C127.9 98.7284 124.928 91.5531 119.638 86.2626C114.347 80.9722 107.172 78 99.6903 78C92.2085 78 85.0331 80.9722 79.7427 86.2626C74.4522 91.5531 71.48 98.7284 71.48 106.21V110.832C71.48 118.314 74.4522 125.489 79.7427 130.78C85.0331 136.07 92.2085 139.042 99.6903 139.042C103.337 139.052 106.952 138.353 110.333 136.985" stroke="black" stroke-width="13.55" stroke-linecap="round" stroke-linejoin="round"/>
<path opacity="0.2" d="M111.759 125.849L123.848 139.049" stroke="black" stroke-width="13.55" stroke-linecap="round" stroke-linejoin="round"/>
</g>
<g opacity="0.15">
<path opacity="0.15" d="M123.1 126.542C126.229 121.9 127.9 116.43 127.9 110.832V106.21C127.9 98.7284 124.928 91.5531 119.638 86.2626C114.347 80.9722 107.172 78 99.6903 78C92.2085 78 85.0331 80.9722 79.7427 86.2626C74.4522 91.5531 71.48 98.7284 71.48 106.21V110.832C71.48 118.314 74.4522 125.489 79.7427 130.78C85.0331 136.07 92.2085 139.042 99.6903 139.042C103.337 139.052 106.952 138.353 110.333 136.985" stroke="black" stroke-width="11.74" stroke-linecap="round" stroke-linejoin="round"/>
<path opacity="0.15" d="M111.759 125.849L123.848 139.049" stroke="black" stroke-width="11.74" stroke-linecap="round" stroke-linejoin="round"/>
</g>
<g opacity="0.3">
<path opacity="0.3" d="M123.1 126.542C126.229 121.9 127.9 116.43 127.9 110.832V106.21C127.9 98.7284 124.928 91.5531 119.638 86.2626C114.347 80.9722 107.172 78 99.6903 78C92.2085 78 85.0331 80.9722 79.7427 86.2626C74.4522 91.5531 71.48 98.7284 71.48 106.21V110.832C71.48 118.314 74.4522 125.489 79.7427 130.78C85.0331 136.07 92.2085 139.042 99.6903 139.042C103.337 139.052 106.952 138.353 110.333 136.985" stroke="black" stroke-width="9.03" stroke-linecap="round" stroke-linejoin="round"/>
<path opacity="0.3" d="M111.759 125.849L123.848 139.049" stroke="black" stroke-width="9.03" stroke-linecap="round" stroke-linejoin="round"/>
</g>
<path d="M123.1 126.542C126.229 121.9 127.9 116.43 127.9 110.832V106.21C127.9 98.7284 124.928 91.5531 119.638 86.2626C114.347 80.9722 107.172 78 99.6903 78C92.2085 78 85.0331 80.9722 79.7427 86.2626C74.4522 91.5531 71.48 98.7284 71.48 106.21V110.832C71.48 118.314 74.4522 125.489 79.7427 130.78C85.0331 136.07 92.2085 139.042 99.6903 139.042C103.337 139.052 106.952 138.353 110.333 136.985" stroke="white" stroke-width="6.77" stroke-linecap="round" stroke-linejoin="round"/>
<path d="M111.759 125.849L123.848 139.049" stroke="white" stroke-width="6.77" stroke-linecap="round" stroke-linejoin="round"/>
<path d="M123.1 126.542C126.229 121.9 127.9 116.43 127.9 110.832V106.21C127.9 98.7284 124.928 91.5531 119.638 86.2626C114.347 80.9722 107.172 78 99.6903 78C92.2085 78 85.0331 80.9722 79.7427 86.2626C74.4522 91.5531 71.48 98.7284 71.48 106.21V110.832C71.48 118.314 74.4522 125.489 79.7427 130.78C85.0331 136.07 92.2085 139.042 99.6903 139.042C103.337 139.052 106.952 138.353 110.333 136.985" stroke="white" stroke-width="4.52" stroke-linecap="round" stroke-linejoin="round"/>
<path d="M111.759 125.849L123.848 139.049" stroke="white" stroke-width="4.52" stroke-linecap="round" stroke-linejoin="round"/>
<path d="M123.1 126.542C126.229 121.9 127.9 116.43 127.9 110.832V106.21C127.9 98.7284 124.928 91.5531 119.638 86.2626C114.347 80.9722 107.172 78 99.6903 78C92.2085 78 85.0331 80.9722 79.7427 86.2626C74.4522 91.5531 71.48 98.7284 71.48 106.21V110.832C71.48 118.314 74.4522 125.489 79.7427 130.78C85.0331 136.07 92.2085 139.042 99.6903 139.042C103.337 139.052 106.952 138.353 110.333 136.985" stroke="white" stroke-width="2.26" stroke-linecap="round" stroke-linejoin="round"/>
<path d="M111.759 125.849L123.848 139.049" stroke="white" stroke-width="2.26" stroke-linecap="round" stroke-linejoin="round"/>
<path d="M123.1 126.542C126.229 121.9 127.9 116.43 127.9 110.832V106.21C127.9 98.7284 124.928 91.5531 119.638 86.2626C114.347 80.9722 107.172 78 99.6903 78C92.2085 78 85.0331 80.9722 79.7427 86.2626C74.4522 91.5531 71.48 98.7284 71.48 106.21V110.832C71.48 118.314 74.4522 125.489 79.7427 130.78C85.0331 136.07 92.2085 139.042 99.6903 139.042C103.337 139.052 106.952 138.353 110.333 136.985" stroke="black" stroke-width="1.45" stroke-linecap="round" stroke-linejoin="round"/>
<path d="M111.759 125.849L123.848 139.049" stroke="black" stroke-width="1.45" stroke-linecap="round" stroke-linejoin="round"/>
</svg>
