<svg width="203" height="200" viewBox="0 0 203 200" fill="none" xmlns="http://www.w3.org/2000/svg">
<rect width="203" height="200" fill="#F2FD78"/>
<path d="M127.88 106.217C127.88 90.637 115.25 78.0068 99.6698 78.0068C84.0896 78.0068 71.4594 90.637 71.4594 106.217V110.832C71.4594 126.412 84.0896 139.042 99.6698 139.042C115.25 139.042 127.88 126.412 127.88 110.832V106.217Z" stroke="#9921CC" stroke-width="22" stroke-linecap="round" stroke-linejoin="round"/>
<path d="M111.759 125.849L123.848 139.049" stroke="#9921CC" stroke-width="22" stroke-linecap="round" stroke-linejoin="round"/>
<g style="mix-blend-mode:multiply" opacity="0.15">
<g style="mix-blend-mode:multiply" opacity="0.15">
<path d="M125.446 129.435C128.845 124.902 130.689 119.392 130.705 113.726V109.104C130.705 93.5245 116.813 80.8937 99.6697 80.8937C82.5268 80.8937 68.641 93.5245 68.641 109.104V113.726C68.641 129.305 82.5336 141.936 99.6697 141.936C103.662 141.949 107.626 141.253 111.375 139.879" stroke="#000014" stroke-width="15.16" stroke-linecap="round" stroke-linejoin="round"/>
</g>
<g style="mix-blend-mode:multiply" opacity="0.15">
<path d="M112.972 128.736L126.269 141.936" stroke="#000014" stroke-width="15.16" stroke-linecap="round" stroke-linejoin="round"/>
</g>
</g>
<g opacity="0.2">
<path opacity="0.2" d="M123.1 126.542C126.229 121.9 127.9 116.43 127.9 110.832V106.21C127.9 98.7284 124.928 91.5531 119.638 86.2626C114.347 80.9722 107.172 78 99.6903 78C92.2085 78 85.0331 80.9722 79.7427 86.2626C74.4522 91.5531 71.48 98.7284 71.48 106.21V110.832C71.48 118.314 74.4522 125.489 79.7427 130.78C85.0331 136.07 92.2085 139.042 99.6903 139.042C103.337 139.052 106.952 138.353 110.333 136.985" stroke="#FF00FF" stroke-width="13.55" stroke-linecap="round" stroke-linejoin="round"/>
<path opacity="0.2" d="M111.759 125.849L123.848 139.049" stroke="#FF00FF" stroke-width="13.55" stroke-linecap="round" stroke-linejoin="round"/>
</g>
<g opacity="0.15">
<path opacity="0.15" d="M123.1 126.542C126.229 121.9 127.9 116.43 127.9 110.832V106.21C127.9 98.7284 124.928 91.5531 119.638 86.2626C114.347 80.9722 107.172 78 99.6903 78C92.2085 78 85.0331 80.9722 79.7427 86.2626C74.4522 91.5531 71.48 98.7284 71.48 106.21V110.832C71.48 118.314 74.4522 125.489 79.7427 130.78C85.0331 136.07 92.2085 139.042 99.6903 139.042C103.337 139.052 106.952 138.353 110.333 136.985" stroke="#FF42FC" stroke-width="11.74" stroke-linecap="round" stroke-linejoin="round"/>
<path opacity="0.15" d="M111.759 125.849L123.848 139.049" stroke="#FF42FC" stroke-width="11.74" stroke-linecap="round" stroke-linejoin="round"/>
</g>
<g opacity="0.3">
<path opacity="0.3" d="M123.1 126.542C126.229 121.9 127.9 116.43 127.9 110.832V106.21C127.9 98.7284 124.928 91.5531 119.638 86.2626C114.347 80.9722 107.172 78 99.6903 78C92.2085 78 85.0331 80.9722 79.7427 86.2626C74.4522 91.5531 71.48 98.7284 71.48 106.21V110.832C71.48 118.314 74.4522 125.489 79.7427 130.78C85.0331 136.07 92.2085 139.042 99.6903 139.042C103.337 139.052 106.952 138.353 110.333 136.985" stroke="#FB7DFF" stroke-width="9.03" stroke-linecap="round" stroke-linejoin="round"/>
<path opacity="0.3" d="M111.759 125.849L123.848 139.049" stroke="#FB7DFF" stroke-width="9.03" stroke-linecap="round" stroke-linejoin="round"/>
</g>
<path d="M123.1 126.542C126.229 121.9 127.9 116.43 127.9 110.832V106.21C127.9 98.7284 124.928 91.5531 119.638 86.2626C114.347 80.9722 107.172 78 99.6903 78C92.2085 78 85.0331 80.9722 79.7427 86.2626C74.4522 91.5531 71.48 98.7284 71.48 106.21V110.832C71.48 118.314 74.4522 125.489 79.7427 130.78C85.0331 136.07 92.2085 139.042 99.6903 139.042C103.337 139.052 106.952 138.353 110.333 136.985" stroke="#FF82FF" stroke-width="6.77" stroke-linecap="round" stroke-linejoin="round"/>
<path d="M111.759 125.849L123.848 139.049" stroke="#FF82FF" stroke-width="6.77" stroke-linecap="round" stroke-linejoin="round"/>
<path d="M123.1 126.542C126.229 121.9 127.9 116.43 127.9 110.832V106.21C127.9 98.7284 124.928 91.5531 119.638 86.2626C114.347 80.9722 107.172 78 99.6903 78C92.2085 78 85.0331 80.9722 79.7427 86.2626C74.4522 91.5531 71.48 98.7284 71.48 106.21V110.832C71.48 118.314 74.4522 125.489 79.7427 130.78C85.0331 136.07 92.2085 139.042 99.6903 139.042C103.337 139.052 106.952 138.353 110.333 136.985" stroke="#FFB8FF" stroke-width="4.52" stroke-linecap="round" stroke-linejoin="round"/>
<path d="M111.759 125.849L123.848 139.049" stroke="#FFB8FF" stroke-width="4.52" stroke-linecap="round" stroke-linejoin="round"/>
<path d="M123.1 126.542C126.229 121.9 127.9 116.43 127.9 110.832V106.21C127.9 98.7284 124.928 91.5531 119.638 86.2626C114.347 80.9722 107.172 78 99.6903 78C92.2085 78 85.0331 80.9722 79.7427 86.2626C74.4522 91.5531 71.48 98.7284 71.48 106.21V110.832C71.48 118.314 74.4522 125.489 79.7427 130.78C85.0331 136.07 92.2085 139.042 99.6903 139.042C103.337 139.052 106.952 138.353 110.333 136.985" stroke="#FFD7FF" stroke-width="2.26" stroke-linecap="round" stroke-linejoin="round"/>
<path d="M111.759 125.849L123.848 139.049" stroke="#FFD7FF" stroke-width="2.26" stroke-linecap="round" stroke-linejoin="round"/>
<path d="M123.1 126.542C126.229 121.9 127.9 116.43 127.9 110.832V106.21C127.9 98.7284 124.928 91.5531 119.638 86.2626C114.347 80.9722 107.172 78 99.6903 78C92.2085 78 85.0331 80.9722 79.7427 86.2626C74.4522 91.5531 71.48 98.7284 71.48 106.21V110.832C71.48 118.314 74.4522 125.489 79.7427 130.78C85.0331 136.07 92.2085 139.042 99.6903 139.042C103.337 139.052 106.952 138.353 110.333 136.985" stroke="#FFF2FF" stroke-width="1.45" stroke-linecap="round" stroke-linejoin="round"/>
<path d="M111.759 125.849L123.848 139.049" stroke="#FFF2FF" stroke-width="1.45" stroke-linecap="round" stroke-linejoin="round"/>
</svg>
