<svg width="200" height="200" viewBox="0 0 200 200" fill="none" xmlns="http://www.w3.org/2000/svg">
<rect width="200" height="200" fill="#78CDFD"/>
<path d="M121.159 83.096C121.159 81.5075 120.846 79.9346 120.238 78.467C119.63 76.9995 118.739 75.666 117.616 74.5428C116.493 73.4196 115.159 72.5286 113.692 71.9208C112.224 71.3129 110.651 71 109.063 71H96.5486C94.9605 71 93.3879 71.3129 91.9207 71.9208C90.4536 72.5288 89.1205 73.4199 87.9979 74.5432C86.8752 75.6666 85.9849 77 85.3777 78.4675C84.7706 79.935 84.4586 81.5079 84.4595 83.096V89.432C84.4595 91.0196 84.7722 92.5916 85.3797 94.0583C85.9872 95.525 86.8777 96.8577 88.0003 97.9803C89.1229 99.1029 90.4556 99.9933 91.9223 100.601C93.389 101.208 94.9611 101.521 96.5486 101.521H109.063C112.271 101.521 115.348 102.796 117.616 105.064C119.885 107.332 121.159 110.409 121.159 113.617V119.953C121.157 123.16 119.882 126.235 117.614 128.502C115.345 130.769 112.27 132.042 109.063 132.042H96.5486C94.9611 132.042 93.389 131.73 91.9223 131.122C90.4556 130.514 89.1229 129.624 88.0003 128.501C86.8777 127.379 85.9872 126.046 85.3797 124.579C84.7722 123.113 84.4595 121.541 84.4595 119.953" stroke="#9921CC" stroke-width="22" stroke-linecap="round" stroke-linejoin="round"/>
<g style="mix-blend-mode:multiply" opacity="0.15">
<g style="mix-blend-mode:multiply" opacity="0.15">
<path d="M122.99 85.9828C122.99 79.3039 117.038 73.8867 109.694 73.8867H95.9247C88.5807 73.8867 82.6218 79.3039 82.6218 85.9828V92.3188C82.6218 98.9977 88.5807 104.408 95.9247 104.408H109.694C117.038 104.408 122.99 109.825 122.99 116.504V122.84C122.99 129.512 117.038 134.929 109.694 134.929H95.9247C88.5807 134.929 82.6218 129.512 82.6218 122.84" stroke="#000014" stroke-width="15.16" stroke-linecap="round" stroke-linejoin="round"/>
</g>
</g>
<g opacity="0.2">
<path opacity="0.2" d="M121.159 83.096C121.159 81.5075 120.846 79.9346 120.238 78.467C119.63 76.9995 118.739 75.666 117.616 74.5428C116.493 73.4196 115.159 72.5286 113.692 71.9208C112.224 71.3129 110.651 71 109.063 71H96.5486C94.9605 71 93.3879 71.3129 91.9207 71.9208C90.4536 72.5288 89.1205 73.4199 87.9979 74.5432C86.8752 75.6666 85.9849 77 85.3777 78.4675C84.7706 79.935 84.4586 81.5079 84.4595 83.096V89.432C84.4595 91.0196 84.7722 92.5916 85.3797 94.0583C85.9872 95.525 86.8777 96.8577 88.0003 97.9803C89.1229 99.1029 90.4556 99.9933 91.9223 100.601C93.389 101.208 94.9611 101.521 96.5486 101.521H109.063C112.271 101.521 115.348 102.796 117.616 105.064C119.885 107.332 121.159 110.409 121.159 113.617V119.953C121.157 123.16 119.882 126.235 117.614 128.502C115.345 130.769 112.27 132.042 109.063 132.042H96.5486C94.9611 132.042 93.389 131.73 91.9223 131.122C90.4556 130.514 89.1229 129.624 88.0003 128.501C86.8777 127.379 85.9872 126.046 85.3797 124.579C84.7722 123.113 84.4595 121.541 84.4595 119.953" stroke="#FF00FF" stroke-width="13.55" stroke-linecap="round" stroke-linejoin="round"/>
</g>
<g opacity="0.15">
<path opacity="0.15" d="M121.159 83.096C121.159 81.5075 120.846 79.9346 120.238 78.467C119.63 76.9995 118.739 75.666 117.616 74.5428C116.493 73.4196 115.159 72.5286 113.692 71.9208C112.224 71.3129 110.651 71 109.063 71H96.5486C94.9605 71 93.3879 71.3129 91.9207 71.9208C90.4536 72.5288 89.1205 73.4199 87.9979 74.5432C86.8752 75.6666 85.9849 77 85.3777 78.4675C84.7706 79.935 84.4586 81.5079 84.4595 83.096V89.432C84.4595 91.0196 84.7722 92.5916 85.3797 94.0583C85.9872 95.525 86.8777 96.8577 88.0003 97.9803C89.1229 99.1029 90.4556 99.9933 91.9223 100.601C93.389 101.208 94.9611 101.521 96.5486 101.521H109.063C112.271 101.521 115.348 102.796 117.616 105.064C119.885 107.332 121.159 110.409 121.159 113.617V119.953C121.157 123.16 119.882 126.235 117.614 128.502C115.345 130.769 112.27 132.042 109.063 132.042H96.5486C94.9611 132.042 93.389 131.73 91.9223 131.122C90.4556 130.514 89.1229 129.624 88.0003 128.501C86.8777 127.379 85.9872 126.046 85.3797 124.579C84.7722 123.113 84.4595 121.541 84.4595 119.953" stroke="#FF42FC" stroke-width="11.74" stroke-linecap="round" stroke-linejoin="round"/>
</g>
<g opacity="0.3">
<path opacity="0.3" d="M121.159 83.096C121.159 81.5075 120.846 79.9346 120.238 78.467C119.63 76.9995 118.739 75.666 117.616 74.5428C116.493 73.4196 115.159 72.5286 113.692 71.9208C112.224 71.3129 110.651 71 109.063 71H96.5486C94.9605 71 93.3879 71.3129 91.9207 71.9208C90.4536 72.5288 89.1205 73.4199 87.9979 74.5432C86.8752 75.6666 85.9849 77 85.3777 78.4675C84.7706 79.935 84.4586 81.5079 84.4595 83.096V89.432C84.4595 91.0196 84.7722 92.5916 85.3797 94.0583C85.9872 95.525 86.8777 96.8577 88.0003 97.9803C89.1229 99.1029 90.4556 99.9933 91.9223 100.601C93.389 101.208 94.9611 101.521 96.5486 101.521H109.063C112.271 101.521 115.348 102.796 117.616 105.064C119.885 107.332 121.159 110.409 121.159 113.617V119.953C121.157 123.16 119.882 126.235 117.614 128.502C115.345 130.769 112.27 132.042 109.063 132.042H96.5486C94.9611 132.042 93.389 131.73 91.9223 131.122C90.4556 130.514 89.1229 129.624 88.0003 128.501C86.8777 127.379 85.9872 126.046 85.3797 124.579C84.7722 123.113 84.4595 121.541 84.4595 119.953" stroke="#FB7DFF" stroke-width="9.03" stroke-linecap="round" stroke-linejoin="round"/>
</g>
<path d="M121.159 83.096C121.159 81.5075 120.846 79.9346 120.238 78.467C119.63 76.9995 118.739 75.666 117.616 74.5428C116.493 73.4196 115.159 72.5286 113.692 71.9208C112.224 71.3129 110.651 71 109.063 71H96.5486C94.9605 71 93.3879 71.3129 91.9207 71.9208C90.4536 72.5288 89.1205 73.4199 87.9979 74.5432C86.8752 75.6666 85.9849 77 85.3777 78.4675C84.7706 79.935 84.4586 81.5079 84.4595 83.096V89.432C84.4595 91.0196 84.7722 92.5916 85.3797 94.0583C85.9872 95.525 86.8777 96.8577 88.0003 97.9803C89.1229 99.1029 90.4556 99.9933 91.9223 100.601C93.389 101.208 94.9611 101.521 96.5486 101.521H109.063C112.271 101.521 115.348 102.796 117.616 105.064C119.885 107.332 121.159 110.409 121.159 113.617V119.953C121.157 123.16 119.882 126.235 117.614 128.502C115.345 130.769 112.27 132.042 109.063 132.042H96.5486C94.9611 132.042 93.389 131.73 91.9223 131.122C90.4556 130.514 89.1229 129.624 88.0003 128.501C86.8777 127.379 85.9872 126.046 85.3797 124.579C84.7722 123.113 84.4595 121.541 84.4595 119.953" stroke="#FF82FF" stroke-width="6.77" stroke-linecap="round" stroke-linejoin="round"/>
<path d="M121.159 83.096C121.159 81.5075 120.846 79.9346 120.238 78.467C119.63 76.9995 118.739 75.666 117.616 74.5428C116.493 73.4196 115.159 72.5286 113.692 71.9208C112.224 71.3129 110.651 71 109.063 71H96.5486C94.9605 71 93.3879 71.3129 91.9207 71.9208C90.4536 72.5288 89.1205 73.4199 87.9979 74.5432C86.8752 75.6666 85.9849 77 85.3777 78.4675C84.7706 79.935 84.4586 81.5079 84.4595 83.096V89.432C84.4595 91.0196 84.7722 92.5916 85.3797 94.0583C85.9872 95.525 86.8777 96.8577 88.0003 97.9803C89.1229 99.1029 90.4556 99.9933 91.9223 100.601C93.389 101.208 94.9611 101.521 96.5486 101.521H109.063C112.271 101.521 115.348 102.796 117.616 105.064C119.885 107.332 121.159 110.409 121.159 113.617V119.953C121.157 123.16 119.882 126.235 117.614 128.502C115.345 130.769 112.27 132.042 109.063 132.042H96.5486C94.9611 132.042 93.389 131.73 91.9223 131.122C90.4556 130.514 89.1229 129.624 88.0003 128.501C86.8777 127.379 85.9872 126.046 85.3797 124.579C84.7722 123.113 84.4595 121.541 84.4595 119.953" stroke="#FFB8FF" stroke-width="4.52" stroke-linecap="round" stroke-linejoin="round"/>
<path d="M121.159 83.096C121.159 81.5075 120.846 79.9346 120.238 78.467C119.63 76.9995 118.739 75.666 117.616 74.5428C116.493 73.4196 115.159 72.5286 113.692 71.9208C112.224 71.3129 110.651 71 109.063 71H96.5486C94.9605 71 93.3879 71.3129 91.9207 71.9208C90.4536 72.5288 89.1205 73.4199 87.9979 74.5432C86.8752 75.6666 85.9849 77 85.3777 78.4675C84.7706 79.935 84.4586 81.5079 84.4595 83.096V89.432C84.4595 91.0196 84.7722 92.5916 85.3797 94.0583C85.9872 95.525 86.8777 96.8577 88.0003 97.9803C89.1229 99.1029 90.4556 99.9933 91.9223 100.601C93.389 101.208 94.9611 101.521 96.5486 101.521H109.063C112.271 101.521 115.348 102.796 117.616 105.064C119.885 107.332 121.159 110.409 121.159 113.617V119.953C121.157 123.16 119.882 126.235 117.614 128.502C115.345 130.769 112.27 132.042 109.063 132.042H96.5486C94.9611 132.042 93.389 131.73 91.9223 131.122C90.4556 130.514 89.1229 129.624 88.0003 128.501C86.8777 127.379 85.9872 126.046 85.3797 124.579C84.7722 123.113 84.4595 121.541 84.4595 119.953" stroke="#FFD7FF" stroke-width="2.26" stroke-linecap="round" stroke-linejoin="round"/>
<path d="M121.159 83.096C121.159 81.5075 120.846 79.9346 120.238 78.467C119.63 76.9995 118.739 75.666 117.616 74.5428C116.493 73.4196 115.159 72.5286 113.692 71.9208C112.224 71.3129 110.651 71 109.063 71H96.5486C94.9605 71 93.3879 71.3129 91.9207 71.9208C90.4536 72.5288 89.1205 73.4199 87.9979 74.5432C86.8752 75.6666 85.9849 77 85.3777 78.4675C84.7706 79.935 84.4586 81.5079 84.4595 83.096V89.432C84.4595 91.0196 84.7722 92.5916 85.3797 94.0583C85.9872 95.525 86.8777 96.8577 88.0003 97.9803C89.1229 99.1029 90.4556 99.9933 91.9223 100.601C93.389 101.208 94.9611 101.521 96.5486 101.521H109.063C112.271 101.521 115.348 102.796 117.616 105.064C119.885 107.332 121.159 110.409 121.159 113.617V119.953C121.157 123.16 119.882 126.235 117.614 128.502C115.345 130.769 112.27 132.042 109.063 132.042H96.5486C94.9611 132.042 93.389 131.73 91.9223 131.122C90.4556 130.514 89.1229 129.624 88.0003 128.501C86.8777 127.379 85.9872 126.046 85.3797 124.579C84.7722 123.113 84.4595 121.541 84.4595 119.953" stroke="#FFF2FF" stroke-width="1.45" stroke-linecap="round" stroke-linejoin="round"/>
</svg>
