<svg width="200" height="200" viewBox="0 0 200 200" fill="none" xmlns="http://www.w3.org/2000/svg">
<rect width="200" height="200" fill="black"/>
<path d="M84.4663 66V114.953C84.4663 116.541 84.779 118.113 85.3865 119.579C85.9941 121.046 86.8845 122.379 88.0071 123.501C89.1297 124.624 90.4624 125.514 91.9291 126.122C93.3959 126.73 94.9679 127.042 96.5555 127.042H109.07C110.657 127.042 112.229 126.73 113.696 126.122C115.163 125.514 116.495 124.624 117.618 123.501C118.741 122.379 119.631 121.046 120.239 119.579C120.846 118.113 121.159 116.541 121.159 114.953V66" stroke="black" stroke-width="22" stroke-linecap="round" stroke-linejoin="round"/>
<g style="mix-blend-mode:multiply" opacity="0.15">
<path d="M82.6289 68.8867V117.84C82.6289 124.512 88.5809 129.929 95.9249 129.929H109.694C117.038 129.929 122.997 124.512 122.997 117.84V68.8867" stroke="#000014" stroke-width="15.16" stroke-linecap="round" stroke-linejoin="round"/>
</g>
<path opacity="0.2" d="M84.4663 66V114.953C84.4663 116.541 84.779 118.113 85.3865 119.579C85.9941 121.046 86.8845 122.379 88.0071 123.501C89.1297 124.624 90.4624 125.514 91.9291 126.122C93.3959 126.73 94.9679 127.042 96.5555 127.042H109.07C110.657 127.042 112.229 126.73 113.696 126.122C115.163 125.514 116.495 124.624 117.618 123.501C118.741 122.379 119.631 121.046 120.239 119.579C120.846 118.113 121.159 116.541 121.159 114.953V66" stroke="black" stroke-width="13.55" stroke-linecap="round" stroke-linejoin="round"/>
<path opacity="0.15" d="M84.4663 66V114.953C84.4663 116.541 84.779 118.113 85.3865 119.579C85.9941 121.046 86.8845 122.379 88.0071 123.501C89.1297 124.624 90.4624 125.514 91.9291 126.122C93.3959 126.73 94.9679 127.042 96.5555 127.042H109.07C110.657 127.042 112.229 126.73 113.696 126.122C115.163 125.514 116.495 124.624 117.618 123.501C118.741 122.379 119.631 121.046 120.239 119.579C120.846 118.113 121.159 116.541 121.159 114.953V66" stroke="black" stroke-width="11.74" stroke-linecap="round" stroke-linejoin="round"/>
<path opacity="0.3" d="M84.4663 66V114.953C84.4663 116.541 84.779 118.113 85.3865 119.579C85.9941 121.046 86.8845 122.379 88.0071 123.501C89.1297 124.624 90.4624 125.514 91.9291 126.122C93.3959 126.73 94.9679 127.042 96.5555 127.042H109.07C110.657 127.042 112.229 126.73 113.696 126.122C115.163 125.514 116.495 124.624 117.618 123.501C118.741 122.379 119.631 121.046 120.239 119.579C120.846 118.113 121.159 116.541 121.159 114.953V66" stroke="black" stroke-width="9.03" stroke-linecap="round" stroke-linejoin="round"/>
<path d="M84.4663 66V114.953C84.4663 116.541 84.779 118.113 85.3865 119.579C85.9941 121.046 86.8845 122.379 88.0071 123.501C89.1297 124.624 90.4624 125.514 91.9291 126.122C93.3959 126.73 94.9679 127.042 96.5555 127.042H109.07C110.657 127.042 112.229 126.73 113.696 126.122C115.163 125.514 116.495 124.624 117.618 123.501C118.741 122.379 119.631 121.046 120.239 119.579C120.846 118.113 121.159 116.541 121.159 114.953V66" stroke="white" stroke-width="6.77" stroke-linecap="round" stroke-linejoin="round"/>
<path d="M84.4663 66V114.953C84.4663 116.541 84.779 118.113 85.3865 119.579C85.9941 121.046 86.8845 122.379 88.0071 123.501C89.1297 124.624 90.4624 125.514 91.9291 126.122C93.3959 126.73 94.9679 127.042 96.5555 127.042H109.07C110.657 127.042 112.229 126.73 113.696 126.122C115.163 125.514 116.495 124.624 117.618 123.501C118.741 122.379 119.631 121.046 120.239 119.579C120.846 118.113 121.159 116.541 121.159 114.953V66" stroke="white" stroke-width="4.52" stroke-linecap="round" stroke-linejoin="round"/>
<path d="M84.4663 66V114.953C84.4663 116.541 84.779 118.113 85.3865 119.579C85.9941 121.046 86.8845 122.379 88.0071 123.501C89.1297 124.624 90.4624 125.514 91.9291 126.122C93.3959 126.73 94.9679 127.042 96.5555 127.042H109.07C110.657 127.042 112.229 126.73 113.696 126.122C115.163 125.514 116.495 124.624 117.618 123.501C118.741 122.379 119.631 121.046 120.239 119.579C120.846 118.113 121.159 116.541 121.159 114.953V66" stroke="white" stroke-width="2.26" stroke-linecap="round" stroke-linejoin="round"/>
<path d="M84.4663 66V114.953C84.4663 116.541 84.779 118.113 85.3865 119.579C85.9941 121.046 86.8845 122.379 88.0071 123.501C89.1297 124.624 90.4624 125.514 91.9291 126.122C93.3959 126.73 94.9679 127.042 96.5555 127.042H109.07C110.657 127.042 112.229 126.73 113.696 126.122C115.163 125.514 116.495 124.624 117.618 123.501C118.741 122.379 119.631 121.046 120.239 119.579C120.846 118.113 121.159 116.541 121.159 114.953V66" stroke="black" stroke-width="1.45" stroke-linecap="round" stroke-linejoin="round"/>
</svg>
